<svg width="196" height="165" viewBox="0 0 196 165" fill="none" xmlns="http://www.w3.org/2000/svg">
<path fill-rule="evenodd" clip-rule="evenodd" d="M39.0544 31.6271C39.0544 14.1572 54.0926 0 72.6515 0C91.2104 0 104.438 14.1572 104.438 31.6271C104.438 49.0969 91.2104 63.2542 72.6515 63.2542C54.0926 63.2542 39.0544 49.0969 39.0544 31.6271ZM91.8642 31.6271C91.8642 20.6061 83.7793 12.5954 72.6515 12.5954C61.0584 12.5954 51.6281 21.1351 51.6281 31.6271C51.6281 42.1191 61.0584 50.6588 72.6515 50.6588C83.7793 50.6588 91.8642 42.6481 91.8642 31.6271Z" fill="url(#paint0_linear)"/>
<path fill-rule="evenodd" clip-rule="evenodd" d="M46.6238 70.6981H96.8811C101.056 70.6981 104.438 73.2675 104.451 76.429V159.269C104.451 162.431 101.068 165 96.8937 165L73.0287 153.538L46.6238 165C42.4493 165 39.0669 162.431 39.0669 159.269V76.429C39.0669 73.2675 42.4493 70.6981 46.6238 70.6981ZM91.8642 148.626V83.3061H51.6281V149.105L73.2801 139.708L91.8642 148.626Z" fill="url(#paint1_linear)"/>
<path fill-rule="evenodd" clip-rule="evenodd" d="M196 117.804C196 103.584 191.838 91.9459 184.319 83.8723C176.8 75.7986 165.936 71.3272 152.696 71.3272C139.431 71.3272 128.567 75.7986 121.048 83.8723C113.529 91.9459 109.392 103.571 109.392 117.804C109.392 132.025 113.529 143.638 121.048 151.699C128.567 159.76 139.431 164.218 152.696 164.206C165.936 164.206 176.8 159.76 184.319 151.699C191.838 143.638 196 132.025 196 117.804ZM125.096 117.804C125.096 107.564 127.8 99.2764 132.578 93.5707C137.356 87.8776 144.196 84.7036 152.696 84.691C161.183 84.691 168.023 87.865 172.776 93.5707C177.529 99.2764 180.22 107.552 180.22 117.804C180.22 128.019 177.529 136.282 172.776 141.975C168.011 147.668 161.183 150.842 152.696 150.842C144.209 150.842 137.356 147.668 132.578 141.975C127.8 136.282 125.096 128.019 125.096 117.804Z" fill="url(#paint2_linear)"/>
<path d="M9.69434 145.4C4.24989 145.4 0 149.569 0 155.086C0 160.515 4.24989 164.76 9.69434 164.772C15.2268 164.772 19.3887 160.527 19.3887 155.086C19.3887 149.557 15.2142 145.4 9.69434 145.4Z" fill="url(#paint3_linear)"/>
<defs>
<linearGradient id="paint0_linear" x1="98" y1="0" x2="213.481" y2="230.978" gradientUnits="userSpaceOnUse">
<stop stop-color="#BBC564"/>
<stop offset="1" stop-color="#BBC564" stop-opacity="0"/>
</linearGradient>
<linearGradient id="paint1_linear" x1="98" y1="0" x2="213.481" y2="230.978" gradientUnits="userSpaceOnUse">
<stop stop-color="#BBC564"/>
<stop offset="1" stop-color="#BBC564" stop-opacity="0"/>
</linearGradient>
<linearGradient id="paint2_linear" x1="98" y1="0" x2="213.481" y2="230.978" gradientUnits="userSpaceOnUse">
<stop stop-color="#BBC564"/>
<stop offset="1" stop-color="#BBC564" stop-opacity="0"/>
</linearGradient>
<linearGradient id="paint3_linear" x1="98" y1="0" x2="213.481" y2="230.978" gradientUnits="userSpaceOnUse">
<stop stop-color="#BBC564"/>
<stop offset="1" stop-color="#BBC564" stop-opacity="0"/>
</linearGradient>
</defs>
</svg>
