<svg width="185" height="22" viewBox="0 0 185 22" fill="none" xmlns="http://www.w3.org/2000/svg">
<path d="M103.938 16.7694C103.938 16.1769 104.396 15.731 104.979 15.731C105.572 15.731 106.021 16.1769 106.021 16.7694C106.021 17.3528 105.572 17.8079 104.979 17.8079C104.396 17.8079 103.938 17.3528 103.938 16.7694Z" fill="#BBC564"/>
<path d="M124.933 12.7714C124.933 15.7982 123.161 17.6826 120.345 17.6826C117.523 17.6826 115.758 15.7982 115.758 12.7714C115.758 9.7446 117.523 7.854 120.345 7.854C123.161 7.854 124.933 9.7446 124.933 12.7714ZM117.315 12.7714C117.315 14.9857 118.488 16.3846 120.348 16.3846C122.208 16.3846 123.375 14.9857 123.375 12.7714C123.375 10.5509 122.208 9.15207 120.348 9.15207C118.488 9.15207 117.315 10.5479 117.315 12.7714Z" fill="#BBC564"/>
<path d="M124.933 12.7712H124.866C124.866 14.2708 124.426 15.4803 123.647 16.3141C122.866 17.148 121.742 17.6122 120.349 17.6122C118.953 17.6122 117.826 17.148 117.047 16.3141C116.268 15.4803 115.832 14.2708 115.832 12.7712C115.832 11.2715 116.268 10.059 117.047 9.22518C117.826 8.38831 118.953 7.92406 120.349 7.92406C121.742 7.92406 122.869 8.39137 123.647 9.22824C124.429 10.0651 124.866 11.2746 124.866 12.7742H124.933H125C125 11.2471 124.555 10.001 123.745 9.13356C122.936 8.26614 121.769 7.78662 120.346 7.78662C118.919 7.78662 117.753 8.26614 116.946 9.13356C116.14 10.001 115.694 11.2471 115.694 12.7742C115.694 14.3014 116.14 15.5475 116.946 16.4119C117.753 17.2762 118.922 17.7558 120.346 17.7527C121.769 17.7527 122.936 17.2762 123.745 16.4119C124.555 15.5475 125 14.3014 125 12.7742H124.933V12.7712ZM117.316 12.7712H117.249C117.249 13.8891 117.545 14.8084 118.083 15.4528C118.62 16.0942 119.402 16.4546 120.349 16.4516C121.296 16.4516 122.074 16.0942 122.612 15.4528C123.15 14.8114 123.443 13.8921 123.443 12.7712C123.443 11.6503 123.15 10.7279 122.612 10.0865C122.074 9.44509 121.296 9.08469 120.349 9.08469C119.402 9.08469 118.623 9.44204 118.083 10.0865C117.545 10.7279 117.249 11.6503 117.249 12.7712H117.316H117.383C117.383 11.6717 117.673 10.7829 118.186 10.172C118.699 9.56115 119.436 9.21907 120.349 9.21907C121.262 9.21907 121.995 9.56115 122.508 10.172C123.018 10.7829 123.308 11.6717 123.308 12.7712C123.308 13.8677 123.018 14.7534 122.508 15.3643C121.995 15.9751 121.262 16.3141 120.349 16.3172C119.436 16.3172 118.699 15.9751 118.186 15.3643C117.673 14.7534 117.383 13.8677 117.383 12.7712H117.316Z" fill="#BBC564"/>
<path d="M111.747 1.4828C112.945 1.4828 113.812 2.34105 113.812 3.52611C113.812 4.71116 112.945 5.56941 111.747 5.56941C110.501 5.56941 109.487 4.65313 109.487 3.52611C109.487 2.39908 110.501 1.4828 111.747 1.4828ZM113.812 9.06961V16.0761L112.37 15.3858L111.815 15.1201L111.25 15.3645L109.487 16.128V9.06961H113.812ZM111.747 0.132812C109.753 0.132812 108.137 1.65079 108.137 3.52611C108.137 5.40143 109.753 6.9194 111.747 6.9194C113.742 6.9194 115.162 5.40143 115.162 3.52611C115.162 1.65079 113.742 0.132812 111.747 0.132812ZM114.35 7.71657H108.95C108.501 7.71657 108.137 7.99145 108.137 8.33047V17.2184C108.137 17.5574 108.501 17.8323 108.95 17.8323L111.787 16.6045L114.35 17.8323C114.799 17.8323 115.162 17.5574 115.162 17.2184V8.33047C115.162 7.99145 114.799 7.71657 114.35 7.71657Z" fill="#BBC564"/>
<path d="M1.78732 14.4605C2.01945 15.0164 2.3432 15.4959 2.72804 15.9113C3.09761 16.3114 3.56185 16.6688 4.10246 16.8826C4.61252 17.0994 5.22949 17.2216 5.78536 17.2216C6.34124 17.2216 6.9582 17.0842 7.46827 16.8826C7.9936 16.6657 8.43953 16.3267 8.85796 15.9113C9.09008 15.6792 9.30694 15.3554 9.52074 15.0164H9.93612C9.68872 15.4807 9.38024 15.8808 9.11757 16.1434C8.68387 16.5772 8.16159 16.9773 7.62098 17.2094C7.09565 17.4415 6.4176 17.6095 5.78536 17.6095C5.13786 17.6095 4.49035 17.4385 3.96502 17.2094C3.42441 16.9773 2.88381 16.5772 2.46843 16.1587C2.03777 15.7281 1.66515 15.1722 1.45135 14.601C1.2345 14.0604 1.08179 13.3518 1.08179 12.7043C1.08179 12.0416 1.22228 11.3941 1.45135 10.8076C1.66821 10.267 2.03777 9.71115 2.4837 9.26523C2.89908 8.83458 3.42441 8.43141 3.96502 8.19929C4.50562 7.96716 5.12259 7.81445 5.78536 7.81445C6.46341 7.81445 7.0651 7.95495 7.62098 8.19929C8.16159 8.43141 8.67165 8.81625 9.11757 9.2805C9.28861 9.45154 9.33443 9.5279 9.50241 9.72948H9.53295V8.51083H9.90252V10.4381H9.54823C9.33137 10.099 9.1023 9.76002 8.85491 9.49736C8.47007 9.09725 7.99055 8.78877 7.46521 8.55664C6.93988 8.32452 6.36873 8.20234 5.78231 8.20234C5.19589 8.20234 4.64001 8.32452 4.09941 8.55664C3.5588 8.78877 3.09761 9.11252 2.72498 9.49736C2.32488 9.91274 2.01639 10.3923 1.78427 10.9634C1.56742 11.4887 1.46052 12.1057 1.46052 12.7074C1.46357 13.3335 1.57047 13.9199 1.78732 14.4605Z" fill="#8C8C8C" stroke="#8C8C8C" stroke-miterlimit="10"/>
<path d="M18.0944 12.7012H14.2216V16.9894H18.6655V15.5386H19.0382V17.3773H12.5723V16.9894H13.8367V8.42523H12.6028V8.05566H18.974V9.89128H18.6045V8.42523H14.2216V12.3316H18.0944V11.3879H18.4517V13.6419H18.0944V12.7012Z" fill="#8C8C8C" stroke="#8C8C8C" stroke-miterlimit="10"/>
<path d="M25.794 13.1929H23.3872V17.0047H24.667V17.3742H21.7349V17.0047H23.0146V8.42523H21.7807V8.05566H26.3651C26.7347 8.05566 27.089 8.11675 27.3975 8.24197C27.706 8.38247 27.9839 8.53519 28.2466 8.78258C28.5092 9.04525 28.6925 9.33846 28.833 9.6164C28.9735 9.92488 29.0346 10.2639 29.0346 10.6335C29.0346 10.9725 28.9735 11.3115 28.833 11.62C28.6925 11.9132 28.5092 12.2064 28.2466 12.4538C27.9839 12.7012 27.706 12.8692 27.3975 13.0097C27.089 13.1319 26.7347 13.196 26.2552 13.196C27.1501 14.4757 28.0603 15.7433 28.9552 17.0077H29.6637V17.3773H28.7383L25.794 13.1929ZM23.3872 12.8234H26.3651C26.6736 12.8234 26.9668 12.7623 27.26 12.6371C27.538 12.5302 27.7701 12.3744 27.987 12.1728C28.1733 11.9865 28.3718 11.7086 28.497 11.4642C28.6039 11.2321 28.6681 10.8931 28.6681 10.6304C28.6681 10.3372 28.6375 10.044 28.5153 9.76605C28.4084 9.51866 28.2374 9.28654 28.0053 9.07274C27.8037 8.88643 27.5594 8.70317 27.2661 8.59322C26.9577 8.47105 26.6797 8.42218 26.3712 8.42218H23.3933V12.8234H23.3872Z" fill="#8C8C8C" stroke="#8C8C8C" stroke-miterlimit="10"/>
<path d="M33.4796 16.9894H34.7593V8.42523H32.4289V9.89128H32.0593V8.05566H37.8136V9.89128H37.4593V8.42523H35.1289V16.9894H36.4117V17.3773H33.4796V16.9894Z" fill="#8C8C8C" stroke="#8C8C8C" stroke-miterlimit="10"/>
<path d="M40.452 8.05566H43.2436V8.42523H42.0402V17.0047H43.3077V17.3773H40.3909V17.0047H41.6553V8.42523H40.452V8.05566Z" fill="#8C8C8C" stroke="#8C8C8C" stroke-miterlimit="10"/>
<path d="M50.9889 12.8539H47.5651V16.9894H48.8296V17.3773H45.8975V16.9894H47.1772V8.42523H45.9433V8.05566H51.838V9.89128H51.4685V8.42523H47.5651V12.4844H50.9889V11.5436H51.3616V13.7946H50.9889V12.8539Z" fill="#8C8C8C" stroke="#8C8C8C" stroke-miterlimit="10"/>
<path d="M54.5228 8.05566H57.3144V8.42523H56.111V17.0047H57.3785V17.3773H54.4617V17.0047H55.7261V8.42523H54.5228V8.05566Z" fill="#8C8C8C" stroke="#8C8C8C" stroke-miterlimit="10"/>
<path d="M60.4937 14.4605C60.7259 15.0164 61.0496 15.4959 61.4345 15.9113C61.804 16.3114 62.2683 16.6688 62.8089 16.8826C63.3189 17.0994 63.9359 17.2216 64.4918 17.2216C65.0477 17.2216 65.6646 17.0842 66.1747 16.8826C66.7 16.6657 67.1459 16.3267 67.5644 15.9113C67.7965 15.6792 68.0134 15.3554 68.2272 15.0164H68.6395C68.3921 15.4807 68.0836 15.8808 67.8209 16.1434C67.3872 16.5772 66.865 16.9773 66.3244 17.2094C65.799 17.4415 65.121 17.6095 64.4887 17.6095C63.8412 17.6095 63.1937 17.4385 62.6684 17.2094C62.1278 16.9773 61.5872 16.5772 61.1718 16.1587C60.7411 15.7281 60.3685 15.1722 60.1547 14.601C59.9379 14.0604 59.7852 13.3518 59.7852 12.7043C59.7852 12.0416 59.9257 11.3941 60.1547 10.8076C60.3716 10.267 60.7411 9.71115 61.1871 9.26523C61.6025 8.83458 62.1278 8.43141 62.6684 8.19929C63.209 7.96716 63.826 7.81445 64.4887 7.81445C65.1668 7.81445 65.7685 7.95495 66.3244 8.19929C66.865 8.43141 67.375 8.81625 67.8209 9.2805C67.992 9.45154 68.0378 9.5279 68.2058 9.72948H68.2363V8.51083H68.6059V10.4381H68.2516C68.0347 10.099 67.8057 9.76002 67.5583 9.49736C67.1734 9.09725 66.6939 8.78877 66.1686 8.55664C65.6432 8.32452 65.0721 8.20234 64.4857 8.20234C63.8993 8.20234 63.3434 8.32452 62.8028 8.55664C62.2622 8.78877 61.801 9.11252 61.4284 9.49736C61.0282 9.91274 60.7198 10.3923 60.4876 10.9634C60.2708 11.4887 60.1639 12.1057 60.1639 12.7074C60.17 13.3335 60.2769 13.9199 60.4937 14.4605Z" fill="#8C8C8C" stroke="#8C8C8C" stroke-miterlimit="10"/>
<path d="M77.6983 17.0047H78.8712C78.5016 16.1098 78.129 15.2149 77.7594 14.32H72.897C72.5274 15.2454 72.1395 16.0792 71.7394 17.0047H72.8512V17.3742H70.6277V17.0047H71.321C72.5397 14.1184 73.743 11.3115 74.977 8.42523H73.8958V8.05566H75.5634L79.2682 17.0047H79.931V17.3742H77.6922V17.0047H77.6983ZM77.6036 13.9657C76.8309 12.1148 76.1376 10.4319 75.3496 8.581H75.319C74.5463 10.4013 73.8072 12.1453 73.0345 13.9657H77.6036Z" fill="#8C8C8C" stroke="#8C8C8C" stroke-miterlimit="10"/>
<path d="M82.0177 8.05566H86.477C87.1397 8.05566 87.7109 8.17784 88.1904 8.39469C88.6547 8.59627 89.1159 8.9353 89.4396 9.30486C89.7939 9.70497 90.0566 10.2608 90.2429 10.8167C90.4445 11.4031 90.5056 12.0354 90.5056 12.6982C90.5056 13.3762 90.3834 14.0726 90.1971 14.6101C89.9955 15.166 89.6717 15.6913 89.3022 16.0915C88.9173 16.5068 88.4531 16.8336 87.9278 17.0322C87.3871 17.2337 86.7855 17.3712 86.0921 17.3712H81.9719V16.9864H83.2517V8.43745H82.0177V8.05566ZM83.6212 16.9894H86.0891C86.7213 16.9894 87.2772 16.8978 87.772 16.6962C88.2515 16.4946 88.6974 16.2014 89.0365 15.8624C89.3907 15.5081 89.6534 15.0286 89.855 14.4727C90.0413 13.9474 90.1329 13.3457 90.1329 12.6982C90.1329 12.0965 90.0413 11.4642 89.8855 10.9236C89.7634 10.4441 89.4518 9.87296 89.1586 9.51866C88.896 9.21018 88.4806 8.91697 88.0469 8.73066C87.5979 8.54435 87.0756 8.43745 86.4739 8.43745H83.6182V16.9894H83.6212Z" fill="#8C8C8C" stroke="#8C8C8C" stroke-miterlimit="10"/>
<path d="M99.9606 8.19592C100.516 8.44331 101.027 8.81288 101.472 9.26186C101.906 9.69556 102.23 10.2331 102.459 10.8043C102.706 11.3907 102.829 12.0382 102.829 12.701C102.829 13.3485 102.673 14.0601 102.459 14.5977C102.227 15.1535 101.888 15.7094 101.472 16.1401C101.042 16.5891 100.516 16.9739 99.9606 17.206C99.4352 17.4381 98.7572 17.6061 98.125 17.6061C97.4775 17.6061 96.8452 17.4351 96.3046 17.206C95.764 16.9769 95.2234 16.5738 94.808 16.1553C94.3743 15.7247 94.02 15.1688 93.791 14.5977C93.5741 14.0571 93.4214 13.3485 93.4214 12.701C93.4214 12.0382 93.5436 11.3907 93.791 10.8043C94.0078 10.2637 94.3774 9.70778 94.8263 9.26186C95.2417 8.83121 95.7671 8.42804 96.3077 8.19592C96.8635 7.96379 97.4652 7.81108 98.128 7.81108C98.803 7.80803 99.4047 7.96379 99.9606 8.19592ZM99.8048 8.55021C99.2795 8.31809 98.7236 8.19592 98.1219 8.19592C97.5355 8.19592 96.9796 8.31809 96.439 8.55021C95.9137 8.78234 95.4372 9.10609 95.0646 9.49093C94.6645 9.90631 94.356 10.3858 94.1239 10.957C93.907 11.4823 93.8001 12.0993 93.8001 12.701C93.8001 13.3332 93.9223 13.9196 94.1391 14.4602C94.3713 15.0161 94.695 15.4956 95.0799 15.911C95.4494 16.3111 95.9137 16.6685 96.439 16.8823C96.9491 17.0991 97.566 17.2213 98.1219 17.2213C98.6931 17.2213 99.2947 17.0838 99.8048 16.8823C100.33 16.6654 100.776 16.3264 101.194 15.911C101.564 15.5262 101.888 15.0314 102.12 14.4602C102.352 13.9196 102.459 13.3332 102.459 12.701C102.459 12.0993 102.352 11.4823 102.12 10.957C101.888 10.4011 101.579 9.89104 101.194 9.49093C100.81 9.09082 100.33 8.77928 99.8048 8.55021Z" fill="#8C8C8C" stroke="#8C8C8C" stroke-miterlimit="10"/>
<path d="M1.788 14.4611L1.71775 14.4917C1.95293 15.0567 2.28279 15.5424 2.67374 15.9638C3.04942 16.3731 3.52283 16.7335 4.07565 16.9565L4.10314 16.8862L4.0726 16.9565C4.59182 17.1764 5.21795 17.3016 5.78299 17.3016C6.35108 17.3016 6.97415 17.1611 7.49338 16.9565C8.03093 16.7366 8.48602 16.3884 8.90751 15.9669C9.14574 15.7256 9.36565 15.3988 9.5825 15.0598L9.51836 15.0201V15.0964H9.93374V15.0201L9.86655 14.9834C9.62221 15.4385 9.31678 15.8356 9.06327 16.0921C8.63568 16.5197 8.11645 16.9137 7.59112 17.1397C7.07494 17.3658 6.40606 17.5337 5.78604 17.5337C5.15075 17.5337 4.51241 17.3658 3.99624 17.1397H3.99319C3.4648 16.9137 2.9303 16.5167 2.52103 16.1074C2.09648 15.6829 1.73303 15.1361 1.51923 14.5772C1.30543 14.0458 1.15271 13.3433 1.15271 12.708C1.15271 12.0544 1.29016 11.416 1.51923 10.8388C1.72997 10.3104 2.09648 9.76062 2.5363 9.32081C2.94557 8.89321 3.4648 8.49921 3.99319 8.27319C4.52463 8.04412 5.13243 7.89446 5.78299 7.89446C6.45187 7.89446 7.04135 8.0319 7.58806 8.27319C8.11645 8.49921 8.61735 8.87794 9.06022 9.33608C9.22515 9.50101 9.26791 9.57431 9.442 9.77895L9.46338 9.80643H9.53058H9.60693V8.58778H9.82379V10.3654H9.54585V10.4417L9.60999 10.402C9.39314 10.0599 9.16101 9.71786 8.90751 9.44909C8.51351 9.03981 8.02788 8.72522 7.49338 8.49004C6.95888 8.25487 6.37857 8.12964 5.77993 8.12964C5.1813 8.12964 4.61626 8.25487 4.06649 8.49004C3.51672 8.72522 3.04636 9.05508 2.66763 9.44909C2.25836 9.87363 1.94682 10.3593 1.71165 10.9396C1.49174 11.4741 1.38178 12.1002 1.38178 12.711C1.38178 13.3524 1.49174 13.948 1.71165 14.4978L1.788 14.4611L1.85825 14.4337C1.64751 13.9022 1.54061 13.328 1.54061 12.7019C1.54061 12.1094 1.64751 11.5016 1.85825 10.9884C2.08732 10.4264 2.38969 9.95609 2.78369 9.54682C3.14715 9.16809 3.60224 8.85045 4.13063 8.62138C4.66207 8.39231 5.20573 8.27319 5.78299 8.27319C6.35719 8.27319 6.91918 8.39536 7.43535 8.62138C7.95152 8.85045 8.42188 9.15282 8.80061 9.54682L8.85558 9.4949L8.80061 9.54682C9.04189 9.80338 9.27096 10.1394 9.48476 10.4753L9.50614 10.512H9.9032H9.97956V8.43201H9.45728V9.72703H9.53363V9.65067H9.50309V9.72703L9.56112 9.67816C9.39314 9.47963 9.34427 9.40022 9.17017 9.22612L9.1152 9.2811L9.17017 9.22918C8.71814 8.76187 8.20197 8.36787 7.64915 8.13269L7.6186 8.20294L7.64915 8.13269C7.08411 7.88224 6.4702 7.73869 5.78299 7.74175C5.10799 7.74175 4.47881 7.89751 3.9321 8.13269C3.37928 8.37093 2.84783 8.77714 2.42634 9.21391L2.48132 9.26583L2.42634 9.21085C1.97126 9.66594 1.59558 10.2279 1.37568 10.7807C1.1405 11.3763 1 12.033 1 12.708C1 13.3677 1.15577 14.0855 1.37568 14.6352L1.44592 14.6077L1.37568 14.6352C1.59558 15.2186 1.97126 15.7806 2.41107 16.2204C2.83256 16.6419 3.37928 17.0481 3.9321 17.2863L3.96264 17.2161L3.9321 17.2863C4.4666 17.5215 5.12327 17.6926 5.78299 17.6926C6.43049 17.6926 7.11465 17.5215 7.64915 17.2863L7.6186 17.2161L7.64915 17.2863C8.20197 17.0481 8.73341 16.6419 9.17017 16.2051C9.43895 15.9364 9.75049 15.5301 10.0009 15.0598L10.062 14.9468H9.4756L9.45422 14.9834C9.24042 15.3224 9.02357 15.6431 8.80061 15.8661C8.38828 16.2784 7.94847 16.6113 7.43535 16.8221L7.46589 16.8923L7.4384 16.8221C6.9375 17.0206 6.32665 17.155 5.78299 17.155C5.23933 17.155 4.62847 17.0328 4.13063 16.8221C3.60224 16.6113 3.15021 16.2632 2.78369 15.8692C2.40191 15.4568 2.08427 14.9865 1.8552 14.4398L1.788 14.4611L1.85825 14.4337L1.788 14.4611Z" fill="#8C8C8C"/>
<path d="M1.788 14.4611L1.71775 14.4917C1.95293 15.0567 2.28279 15.5424 2.67374 15.9638C3.04942 16.3731 3.52283 16.7335 4.07565 16.9565L4.10314 16.8862L4.0726 16.9565C4.59182 17.1764 5.21795 17.3016 5.78299 17.3016C6.35108 17.3016 6.97415 17.1611 7.49338 16.9565C8.03093 16.7366 8.48602 16.3884 8.90751 15.9669C9.14574 15.7256 9.36565 15.3988 9.5825 15.0598L9.51836 15.0201V15.0964H9.93374V15.0201L9.86655 14.9834C9.62221 15.4385 9.31678 15.8356 9.06327 16.0921C8.63568 16.5197 8.11645 16.9137 7.59112 17.1397C7.07494 17.3658 6.40606 17.5337 5.78604 17.5337C5.15075 17.5337 4.51241 17.3658 3.99624 17.1397H3.99319C3.4648 16.9137 2.9303 16.5167 2.52103 16.1074C2.09648 15.6829 1.73302 15.1361 1.51923 14.5772C1.30543 14.0458 1.15271 13.3433 1.15271 12.708C1.15271 12.0544 1.29016 11.416 1.51923 10.8388C1.72997 10.3104 2.09648 9.76062 2.5363 9.32081C2.94557 8.89321 3.4648 8.49921 3.99319 8.27319C4.52463 8.04412 5.13243 7.89446 5.78299 7.89446C6.45187 7.89446 7.04135 8.0319 7.58806 8.27319C8.11645 8.49921 8.61735 8.87794 9.06022 9.33608C9.22515 9.50101 9.26791 9.57431 9.442 9.77895L9.46338 9.80643H9.53058H9.60693V8.58778H9.82379V10.3654H9.54585V10.4417L9.60999 10.402C9.39314 10.0599 9.16101 9.71786 8.90751 9.44909C8.51351 9.03981 8.02788 8.72522 7.49338 8.49004C6.95888 8.25487 6.37857 8.12964 5.77993 8.12964C5.1813 8.12964 4.61626 8.25487 4.06649 8.49004C3.51672 8.72522 3.04636 9.05508 2.66763 9.44909C2.25836 9.87363 1.94682 10.3593 1.71165 10.9396C1.49174 11.4741 1.38178 12.1002 1.38178 12.711C1.38178 13.3524 1.49174 13.948 1.71165 14.4978L1.788 14.4611ZM1.788 14.4611L1.85825 14.4337C1.64751 13.9022 1.54061 13.328 1.54061 12.7019C1.54061 12.1094 1.64751 11.5016 1.85825 10.9884C2.08732 10.4264 2.38969 9.95609 2.78369 9.54682C3.14715 9.16809 3.60224 8.85045 4.13063 8.62138C4.66207 8.39231 5.20573 8.27319 5.78299 8.27319C6.35719 8.27319 6.91918 8.39536 7.43535 8.62138C7.95152 8.85045 8.42188 9.15282 8.80061 9.54682L8.85558 9.4949L8.80061 9.54682C9.04189 9.80338 9.27096 10.1394 9.48476 10.4753L9.50614 10.512H9.9032H9.97956V8.43201H9.45728V9.72703H9.53363V9.65067H9.50309V9.72703L9.56112 9.67816C9.39314 9.47963 9.34427 9.40022 9.17017 9.22612L9.1152 9.2811L9.17017 9.22918C8.71814 8.76187 8.20197 8.36787 7.64915 8.13269L7.6186 8.20294L7.64915 8.13269C7.08411 7.88224 6.4702 7.73869 5.78299 7.74175C5.10799 7.74175 4.47881 7.89751 3.9321 8.13269C3.37928 8.37093 2.84783 8.77714 2.42634 9.21391L2.48132 9.26583L2.42634 9.21085C1.97126 9.66594 1.59558 10.2279 1.37568 10.7807C1.1405 11.3763 1 12.033 1 12.708C1 13.3677 1.15577 14.0855 1.37568 14.6352L1.44592 14.6077L1.37568 14.6352C1.59558 15.2186 1.97126 15.7806 2.41107 16.2204C2.83256 16.6419 3.37928 17.0481 3.9321 17.2863L3.96264 17.2161L3.9321 17.2863C4.4666 17.5215 5.12327 17.6926 5.78299 17.6926C6.43049 17.6926 7.11465 17.5215 7.64915 17.2863L7.6186 17.2161L7.64915 17.2863C8.20197 17.0481 8.73341 16.6419 9.17017 16.2051C9.43895 15.9364 9.75049 15.5301 10.0009 15.0598L10.062 14.9468H9.4756L9.45422 14.9834C9.24042 15.3224 9.02357 15.6431 8.80061 15.8661C8.38828 16.2784 7.94847 16.6113 7.43535 16.8221L7.46589 16.8923L7.4384 16.8221C6.9375 17.0206 6.32665 17.155 5.78299 17.155C5.23933 17.155 4.62847 17.0328 4.13063 16.8221C3.60224 16.6113 3.15021 16.2632 2.78369 15.8692C2.40191 15.4568 2.08427 14.9865 1.8552 14.4398L1.788 14.4611ZM1.788 14.4611L1.85825 14.4337L1.788 14.4611Z" stroke="#8C8C8C" stroke-miterlimit="10"/>
<path d="M18.0946 12.7014V12.625H14.1454V17.0659H18.7421V15.6152H18.962V17.3011H12.6488V17.0659H13.9133V8.34906H12.6793V8.13221H18.8978V9.81511H18.681V8.34906H14.1454V12.4082H18.1709V11.4644H18.3756V13.5658H18.1709V12.625H18.0946V12.7014H18.0182V13.7185H18.5283V11.3117H18.0182V12.2555H14.2981V8.50177H18.5283V9.96782H19.0506V7.97949H12.5266V8.50177H13.7606V16.9132H12.4961V17.4538H19.1147V15.4625H18.5894V16.9132H14.2981V12.7778H18.0946V12.7014H18.0182H18.0946Z" fill="#8C8C8C"/>
<path d="M18.0946 12.7014V12.625H14.1454V17.0659H18.7421V15.6152H18.962V17.3011H12.6488V17.0659H13.9133V8.34906H12.6793V8.13221H18.8978V9.81511H18.681V8.34906H14.1454V12.4082H18.1709V11.4644H18.3756V13.5658H18.1709V12.625H18.0946V12.7014ZM18.0946 12.7014H18.0182V13.7185H18.5283V11.3117H18.0182V12.2555H14.2981V8.50177H18.5283V9.96782H19.0506V7.97949H12.5266V8.50177H13.7606V16.9132H12.4961V17.4538H19.1147V15.4625H18.5894V16.9132H14.2981V12.7778H18.0946V12.7014ZM18.0946 12.7014H18.0182H18.0946Z" stroke="#8C8C8C" stroke-miterlimit="10"/>
<path d="M25.7943 13.1928V13.1164H23.3112V17.0808H24.5909V17.2977H21.8115V17.0808H23.0913V8.34869H21.8573V8.13183H26.3654C26.7258 8.13183 27.074 8.19292 27.3703 8.31203L27.3978 8.24178L27.3672 8.31203C27.6727 8.44948 27.9414 8.59913 28.195 8.83737L28.2469 8.78239L28.1919 8.83737C28.4454 9.09087 28.6287 9.37798 28.763 9.64981L28.8302 9.61621L28.76 9.64675C28.8944 9.94301 28.9555 10.2729 28.9555 10.6333C28.9555 10.9631 28.8944 11.293 28.76 11.5893L28.8302 11.6198L28.76 11.5862C28.6225 11.8733 28.4423 12.1574 28.1888 12.3956C27.9323 12.6369 27.6635 12.8018 27.3611 12.9362L27.3917 13.0064L27.3642 12.9362C27.0649 13.0553 26.7228 13.1164 26.2494 13.1164H26.1028L26.1852 13.2355C27.0801 14.5183 27.9903 15.7828 28.8852 17.0472L28.9066 17.0808H29.5785V17.2977H28.7814L25.834 13.1164H25.7943V13.1928L25.7332 13.2355L28.705 17.4504H29.7465V16.9281H28.9616V17.0045L29.0227 16.9617C28.1278 15.6973 27.2176 14.4297 26.3227 13.15L26.2616 13.1928V13.2691C26.7472 13.2691 27.1137 13.205 27.4314 13.0797H27.4344C27.749 12.9393 28.0361 12.7652 28.3049 12.5117C28.5767 12.2551 28.7661 11.9558 28.9066 11.6565C29.0501 11.3358 29.1143 10.9876 29.1143 10.6363C29.1143 10.2576 29.0501 9.90636 28.9066 9.58566V9.58261C28.7661 9.29856 28.5767 8.99924 28.3049 8.73047C28.0331 8.47696 27.746 8.31814 27.4344 8.17764H27.4314C27.1107 8.04937 26.7472 7.98828 26.3685 7.98828H21.7077V8.51056H22.9416V16.9373H21.6619V17.4596H24.7467V16.9373H23.4669V13.2783H25.7973V13.1928L25.7363 13.2355L25.7943 13.1928ZM23.3875 12.8232V12.8995H26.3654C26.6831 12.8995 26.9885 12.8354 27.2909 12.7071L27.2603 12.6369L27.2878 12.7071C27.5749 12.5941 27.8162 12.4353 28.0361 12.2276C28.2285 12.0352 28.4301 11.7542 28.5584 11.4976C28.6714 11.2502 28.7356 10.9051 28.7356 10.6333C28.7356 10.334 28.705 10.0316 28.5737 9.73838C28.4607 9.48182 28.2835 9.24053 28.0453 9.02062C27.8407 8.83126 27.5872 8.63884 27.2787 8.52583L27.2512 8.59608L27.2787 8.52583C26.961 8.39755 26.6709 8.35174 26.3563 8.35174H23.302V12.9026H23.3784V12.8232H23.4547V8.5014H26.3563C26.6587 8.5014 26.9213 8.54721 27.2237 8.66633C27.5047 8.77017 27.7429 8.94732 27.9384 9.13058C28.1644 9.34132 28.3263 9.56428 28.4301 9.79946C28.5462 10.0621 28.5767 10.3462 28.5767 10.6333C28.5767 10.8837 28.5156 11.2197 28.4149 11.4335L28.4851 11.4671L28.4179 11.4335C28.2988 11.6717 28.1003 11.9466 27.9231 12.1238L27.9781 12.1787L27.9262 12.1238C27.7154 12.3192 27.4925 12.4658 27.2237 12.5727C26.9396 12.6919 26.6556 12.7529 26.3593 12.7529H23.3814V12.8232H23.4578H23.3875Z" fill="#8C8C8C"/>
<path d="M25.7943 13.1928V13.1164H23.3112V17.0808H24.5909V17.2977H21.8115V17.0808H23.0913V8.34869H21.8573V8.13183H26.3654C26.7258 8.13183 27.074 8.19292 27.3703 8.31203L27.3978 8.24178L27.3672 8.31203C27.6727 8.44948 27.9414 8.59913 28.195 8.83737L28.2469 8.78239L28.1919 8.83737C28.4454 9.09087 28.6287 9.37798 28.763 9.64981L28.8302 9.61621L28.76 9.64675C28.8944 9.94301 28.9555 10.2729 28.9555 10.6333C28.9555 10.9631 28.8944 11.293 28.76 11.5893L28.8302 11.6198L28.76 11.5862C28.6225 11.8733 28.4423 12.1574 28.1888 12.3956C27.9323 12.6369 27.6635 12.8018 27.3611 12.9362L27.3917 13.0064L27.3642 12.9362C27.0649 13.0553 26.7228 13.1164 26.2494 13.1164H26.1028L26.1852 13.2355C27.0801 14.5183 27.9903 15.7828 28.8852 17.0472L28.9066 17.0808H29.5785V17.2977H28.7814L25.834 13.1164H25.7943V13.1928ZM25.7943 13.1928L25.7332 13.2355L28.705 17.4504H29.7465V16.9281H28.9616V17.0045L29.0227 16.9617C28.1278 15.6973 27.2176 14.4297 26.3227 13.15L26.2616 13.1928V13.2691C26.7472 13.2691 27.1137 13.205 27.4314 13.0797H27.4344C27.749 12.9393 28.0361 12.7652 28.3049 12.5117C28.5767 12.2551 28.7661 11.9558 28.9066 11.6565C29.0501 11.3358 29.1143 10.9876 29.1143 10.6363C29.1143 10.2576 29.0501 9.90636 28.9066 9.58566V9.58261C28.7661 9.29856 28.5767 8.99924 28.3049 8.73047C28.0331 8.47696 27.746 8.31814 27.4344 8.17764H27.4314C27.1107 8.04937 26.7472 7.98828 26.3685 7.98828H21.7077V8.51056H22.9416V16.9373H21.6619V17.4596H24.7467V16.9373H23.4669V13.2783H25.7973V13.1928L25.7363 13.2355L25.7943 13.1928ZM23.3875 12.8232V12.8995H26.3654C26.6831 12.8995 26.9885 12.8354 27.2909 12.7071L27.2603 12.6369L27.2878 12.7071C27.5749 12.5941 27.8162 12.4353 28.0361 12.2276C28.2285 12.0352 28.4301 11.7542 28.5584 11.4976C28.6714 11.2502 28.7356 10.9051 28.7356 10.6333C28.7356 10.334 28.705 10.0316 28.5737 9.73838C28.4607 9.48182 28.2835 9.24053 28.0453 9.02062C27.8407 8.83126 27.5872 8.63884 27.2787 8.52583L27.2512 8.59608L27.2787 8.52583C26.961 8.39755 26.6709 8.35174 26.3563 8.35174H23.302V12.9026H23.3784V12.8232H23.4547V8.5014H26.3563C26.6587 8.5014 26.9213 8.54721 27.2237 8.66633C27.5047 8.77017 27.7429 8.94732 27.9384 9.13058C28.1644 9.34132 28.3263 9.56428 28.4301 9.79946C28.5462 10.0621 28.5767 10.3462 28.5767 10.6333C28.5767 10.8837 28.5156 11.2197 28.4149 11.4335L28.4851 11.4671L28.4179 11.4335C28.2988 11.6717 28.1003 11.9466 27.9231 12.1238L27.9781 12.1787L27.9262 12.1238C27.7154 12.3192 27.4925 12.4658 27.2237 12.5727C26.9396 12.6919 26.6556 12.7529 26.3593 12.7529H23.3814V12.8232H23.4578H23.3875Z" stroke="#8C8C8C" stroke-miterlimit="10"/>
<path d="M33.479 16.9896V17.0659H34.8351V8.34906H32.352V9.81511H32.1351V8.13221H37.7367V9.81511H37.5351V8.34906H35.052V17.0659H36.3348V17.3011H33.5554V16.9896H33.479V17.0659V16.9896H33.4027V17.3775V17.4538H36.4875V16.9132H35.2047V8.50177H37.3824V9.96782H37.8894V7.97949H31.9824V9.96782H32.5047V8.50177H34.6824V16.9132H33.4027V16.9896H33.479Z" fill="#8C8C8C"/>
<path d="M33.479 16.9896V17.0659H34.8351V8.34906H32.352V9.81511H32.1351V8.13221H37.7367V9.81511H37.5351V8.34906H35.052V17.0659H36.3348V17.3011H33.5554V16.9896H33.479ZM33.479 16.9896V17.0659V16.9896ZM33.479 16.9896H33.4027V17.3775V17.4538H36.4875V16.9132H35.2047V8.50177H37.3824V9.96782H37.8894V7.97949H31.9824V9.96782H32.5047V8.50177H34.6824V16.9132H33.4027V16.9896H33.479Z" stroke="#8C8C8C" stroke-miterlimit="10"/>
<path d="M40.4514 8.05585V8.13221H43.1667V8.34906H41.9633V17.0812H43.2308V17.3011H40.4667V17.0812H41.7311V8.34906H40.5278V8.05585H40.4514V8.13221V8.05585H40.3751V8.42542V8.50177H41.5784V16.9285H40.314V17.4538H43.3835V16.9285H42.116V8.50177H43.3194V7.97949H40.3751V8.05585H40.4514Z" fill="#8C8C8C"/>
<path d="M40.4514 8.05585V8.13221H43.1667V8.34906H41.9633V17.0812H43.2308V17.3011H40.4667V17.0812H41.7311V8.34906H40.5278V8.05585H40.4514ZM40.4514 8.05585V8.13221V8.05585ZM40.4514 8.05585H40.3751V8.42542V8.50177H41.5784V16.9285H40.314V17.4538H43.3835V16.9285H42.116V8.50177H43.3194V7.97949H40.3751V8.05585H40.4514Z" stroke="#8C8C8C" stroke-miterlimit="10"/>
<path d="M50.9891 12.8541V12.7778H47.4889V17.0659H48.7534V17.3011H45.974V17.0659H47.2537V8.34906H46.0198V8.13221H51.7618V9.81511H51.545V8.34906H47.4889V12.5609H51.0655V11.6202H51.2854V13.7185H51.0655V12.7778H50.9891V12.8541H50.9128V13.8712H51.4381V11.4675H50.9128V12.4082H47.6416V8.50177H51.3923V9.96782H51.9146V7.97949H45.8671V8.50177H47.101V16.9132H45.8213V17.4538H48.9061V16.9132H47.6416V12.9305H50.9891V12.8541H50.9128H50.9891Z" fill="#8C8C8C"/>
<path d="M50.9891 12.8541V12.7778H47.4889V17.0659H48.7534V17.3011H45.974V17.0659H47.2537V8.34906H46.0198V8.13221H51.7618V9.81511H51.545V8.34906H47.4889V12.5609H51.0655V11.6202H51.2854V13.7185H51.0655V12.7778H50.9891V12.8541ZM50.9891 12.8541H50.9128V13.8712H51.4381V11.4675H50.9128V12.4082H47.6416V8.50177H51.3923V9.96782H51.9146V7.97949H45.8671V8.50177H47.101V16.9132H45.8213V17.4538H48.9061V16.9132H47.6416V12.9305H50.9891V12.8541ZM50.9891 12.8541H50.9128H50.9891Z" stroke="#8C8C8C" stroke-miterlimit="10"/>
<path d="M54.5225 8.05585V8.13221H57.2377V8.34906H56.0343V17.0812H57.3018V17.3011H54.5377V17.0812H55.8022V8.34906H54.5988V8.05585H54.5225V8.13221V8.05585H54.4461V8.42542V8.50177H55.6495V16.9285H54.385V17.4538H57.4546V16.9285H56.187V8.50177H57.3904V7.97949H54.4461V8.05585H54.5225Z" fill="#8C8C8C"/>
<path d="M54.5225 8.05585V8.13221H57.2377V8.34906H56.0343V17.0812H57.3018V17.3011H54.5377V17.0812H55.8022V8.34906H54.5988V8.05585H54.5225ZM54.5225 8.05585V8.13221V8.05585ZM54.5225 8.05585H54.4461V8.42542V8.50177H55.6495V16.9285H54.385V17.4538H57.4546V16.9285H56.187V8.50177H57.3904V7.97949H54.4461V8.05585H54.5225Z" stroke="#8C8C8C" stroke-miterlimit="10"/>
<path d="M60.4941 14.4607L60.4238 14.4912C60.659 15.0562 60.9888 15.5419 61.3798 15.9634C61.7555 16.3726 62.2289 16.733 62.7817 16.956L62.8092 16.8857L62.7787 16.956C63.2979 17.1759 63.924 17.3011 64.489 17.3011C65.0571 17.3011 65.6802 17.1606 66.1994 16.956C66.737 16.7361 67.1921 16.3879 67.6136 15.9664C67.8518 15.7251 68.0717 15.3983 68.2886 15.0593L68.2244 15.0196V15.0959H68.6398V15.0196L68.5726 14.9829C68.3283 15.438 68.0228 15.8351 67.7693 16.0916C67.3417 16.5192 66.8225 16.9132 66.2972 17.1392C65.781 17.3653 65.1121 17.5333 64.4921 17.5333C63.8568 17.5333 63.2185 17.3653 62.7023 17.1392C62.1739 16.9132 61.6394 16.5162 61.2301 16.1069C60.8056 15.6824 60.4421 15.1356 60.2283 14.5767C60.0145 14.0453 59.8618 13.3428 59.8618 12.7075C59.8618 12.0539 59.9993 11.4155 60.2283 10.8383C60.4391 10.3099 60.8056 9.76013 61.2454 9.32032C61.6547 8.89272 62.1739 8.49872 62.7023 8.2727C63.2337 8.04363 63.8415 7.89397 64.4921 7.89397C65.161 7.89397 65.7505 8.03142 66.2972 8.2727C66.8256 8.49872 67.3265 8.87745 67.7693 9.33559C67.9343 9.50052 67.977 9.57382 68.1511 9.77846L68.1725 9.80595H68.2397H68.316V8.58729H68.5329V10.3649H68.255V10.4412L68.3191 10.4015C68.1022 10.0594 67.8701 9.71737 67.6166 9.4486C67.2226 9.03932 66.737 8.72474 66.2025 8.48956C65.668 8.25438 65.0877 8.12915 64.489 8.12915C63.8904 8.12915 63.3254 8.25438 62.7756 8.48956C62.2258 8.72474 61.7555 9.0546 61.3767 9.4486C60.9675 9.87314 60.6559 10.3588 60.4208 10.9391C60.2008 11.4736 60.0909 12.0997 60.0909 12.7106C60.0909 13.352 60.2008 13.9475 60.4208 14.4973L60.4941 14.4607L60.5643 14.4332C60.3536 13.9017 60.2467 13.3275 60.2467 12.7014C60.2467 12.1089 60.3536 11.5011 60.5643 10.9879C60.7934 10.426 61.0957 9.9556 61.4897 9.54633C61.8532 9.1676 62.3083 8.84996 62.8367 8.62089C63.3681 8.39182 63.9118 8.2727 64.489 8.2727C65.0632 8.2727 65.6252 8.39487 66.1414 8.62089C66.6576 8.84996 67.1279 9.15233 67.5067 9.54633L67.5616 9.49441L67.5067 9.54633C67.7479 9.80289 67.977 10.1389 68.1908 10.4748L68.2122 10.5115H68.6093H68.6856V8.43152H68.1633V9.72654H68.2397V9.65018H68.2091V9.72654L68.2672 9.67767C68.0992 9.47914 68.0503 9.39973 67.8762 9.22564L67.8213 9.28061L67.8762 9.22869C67.4242 8.76139 66.908 8.36738 66.3552 8.1322L66.3247 8.20245L66.3552 8.1322C65.7902 7.88175 65.1763 7.7382 64.489 7.74126C63.814 7.74126 63.1849 7.89703 62.6382 8.1322C62.0853 8.37044 61.5539 8.77666 61.1324 9.21342L61.1874 9.26534L61.1324 9.21036C60.6773 9.66545 60.3016 10.2274 60.0817 10.7803C59.8465 11.3758 59.7061 12.0325 59.7061 12.7075C59.7061 13.3672 59.8618 14.085 60.0817 14.6347L60.152 14.6073L60.0817 14.6347C60.3016 15.2181 60.6773 15.7801 61.1171 16.2199C61.5386 16.6414 62.0853 17.0476 62.6382 17.2859L62.6687 17.2156L62.6382 17.2859C63.1727 17.521 63.8293 17.6921 64.489 17.6921C65.1365 17.6921 65.8207 17.521 66.3552 17.2859L66.3247 17.2156L66.3552 17.2859C66.908 17.0476 67.4395 16.6414 67.8762 16.2046C68.145 15.9359 68.4565 15.5296 68.707 15.0593L68.7681 14.9463H68.1817L68.1603 14.9829C67.9465 15.322 67.7296 15.6427 67.5067 15.8656C67.0943 16.2779 66.6545 16.6109 66.1414 16.8216L66.1719 16.8919L66.1445 16.8216C65.6436 17.0201 65.0327 17.1545 64.489 17.1545C63.9454 17.1545 63.3345 17.0324 62.8367 16.8216C62.3083 16.6109 61.8563 16.2627 61.4897 15.8687C61.108 15.4563 60.7903 14.986 60.5613 14.4393L60.4941 14.4607L60.5643 14.4332L60.4941 14.4607Z" fill="#8C8C8C"/>
<path d="M60.4941 14.4607L60.4238 14.4912C60.659 15.0562 60.9888 15.5419 61.3798 15.9634C61.7555 16.3726 62.2289 16.733 62.7817 16.956L62.8092 16.8857L62.7787 16.956C63.2979 17.1759 63.924 17.3011 64.489 17.3011C65.0571 17.3011 65.6802 17.1606 66.1994 16.956C66.737 16.7361 67.1921 16.3879 67.6136 15.9664C67.8518 15.7251 68.0717 15.3983 68.2886 15.0593L68.2244 15.0196V15.0959H68.6398V15.0196L68.5726 14.9829C68.3283 15.438 68.0228 15.8351 67.7693 16.0916C67.3417 16.5192 66.8225 16.9132 66.2972 17.1392C65.781 17.3653 65.1121 17.5333 64.4921 17.5333C63.8568 17.5333 63.2185 17.3653 62.7023 17.1392C62.1739 16.9132 61.6394 16.5162 61.2301 16.1069C60.8056 15.6824 60.4421 15.1356 60.2283 14.5767C60.0145 14.0453 59.8618 13.3428 59.8618 12.7075C59.8618 12.0539 59.9993 11.4155 60.2283 10.8383C60.4391 10.3099 60.8056 9.76013 61.2454 9.32032C61.6547 8.89272 62.1739 8.49872 62.7023 8.2727C63.2337 8.04363 63.8415 7.89397 64.4921 7.89397C65.161 7.89397 65.7505 8.03142 66.2972 8.2727C66.8256 8.49872 67.3265 8.87745 67.7693 9.33559C67.9343 9.50052 67.977 9.57382 68.1511 9.77846L68.1725 9.80595H68.2397H68.316V8.58729H68.5329V10.3649H68.255V10.4412L68.3191 10.4015C68.1022 10.0594 67.8701 9.71737 67.6166 9.4486C67.2226 9.03932 66.737 8.72474 66.2025 8.48956C65.668 8.25438 65.0877 8.12915 64.489 8.12915C63.8904 8.12915 63.3254 8.25438 62.7756 8.48956C62.2258 8.72474 61.7555 9.0546 61.3767 9.4486C60.9675 9.87314 60.6559 10.3588 60.4208 10.9391C60.2008 11.4736 60.0909 12.0997 60.0909 12.7106C60.0909 13.352 60.2008 13.9475 60.4208 14.4973L60.4941 14.4607ZM60.4941 14.4607L60.5643 14.4332C60.3536 13.9017 60.2467 13.3275 60.2467 12.7014C60.2467 12.1089 60.3536 11.5011 60.5643 10.9879C60.7934 10.426 61.0957 9.9556 61.4897 9.54633C61.8532 9.1676 62.3083 8.84996 62.8367 8.62089C63.3681 8.39182 63.9118 8.2727 64.489 8.2727C65.0632 8.2727 65.6252 8.39487 66.1414 8.62089C66.6576 8.84996 67.1279 9.15233 67.5067 9.54633L67.5616 9.49441L67.5067 9.54633C67.7479 9.80289 67.977 10.1389 68.1908 10.4748L68.2122 10.5115H68.6093H68.6856V8.43152H68.1633V9.72654H68.2397V9.65018H68.2091V9.72654L68.2672 9.67767C68.0992 9.47914 68.0503 9.39973 67.8762 9.22564L67.8213 9.28061L67.8762 9.22869C67.4242 8.76139 66.908 8.36738 66.3552 8.1322L66.3247 8.20245L66.3552 8.1322C65.7902 7.88175 65.1763 7.7382 64.489 7.74126C63.814 7.74126 63.1849 7.89703 62.6382 8.1322C62.0853 8.37044 61.5539 8.77666 61.1324 9.21342L61.1874 9.26534L61.1324 9.21036C60.6773 9.66545 60.3016 10.2274 60.0817 10.7803C59.8465 11.3758 59.7061 12.0325 59.7061 12.7075C59.7061 13.3672 59.8618 14.085 60.0817 14.6347L60.152 14.6073L60.0817 14.6347C60.3016 15.2181 60.6773 15.7801 61.1171 16.2199C61.5386 16.6414 62.0853 17.0476 62.6382 17.2859L62.6687 17.2156L62.6382 17.2859C63.1727 17.521 63.8293 17.6921 64.489 17.6921C65.1365 17.6921 65.8207 17.521 66.3552 17.2859L66.3247 17.2156L66.3552 17.2859C66.908 17.0476 67.4395 16.6414 67.8762 16.2046C68.145 15.9359 68.4565 15.5296 68.707 15.0593L68.7681 14.9463H68.1817L68.1603 14.9829C67.9465 15.322 67.7296 15.6427 67.5067 15.8656C67.0943 16.2779 66.6545 16.6109 66.1414 16.8216L66.1719 16.8919L66.1445 16.8216C65.6436 17.0201 65.0327 17.1545 64.489 17.1545C63.9454 17.1545 63.3345 17.0324 62.8367 16.8216C62.3083 16.6109 61.8563 16.2627 61.4897 15.8687C61.108 15.4563 60.7903 14.986 60.5613 14.4393L60.4941 14.4607ZM60.4941 14.4607L60.5643 14.4332L60.4941 14.4607Z" stroke="#8C8C8C" stroke-miterlimit="10"/>
<path d="M77.6989 17.0049V17.0812H78.9847L78.942 16.9743C78.5724 16.0794 78.1998 15.1845 77.8302 14.2896L77.8119 14.2438H72.8487L72.8304 14.2927C72.4608 15.2151 72.076 16.0489 71.6728 16.9743L71.627 17.0812H72.7784V17.2981H70.7076V17.0812H71.3765L71.3949 17.0354C72.6135 14.1491 73.8169 11.3422 75.0508 8.45596L75.0966 8.34906H73.9788V8.13221H75.5181L79.2229 17.0812H79.8613V17.2981H77.7752V17.0049H77.6989V17.0812V17.0049H77.6225V17.3744V17.4508H80.014V16.9285H79.3268L75.622 7.97949H73.8291V8.50177H74.9867V8.42542L74.9164 8.39487C73.6825 11.2812 72.4791 14.088 71.2605 16.9743L71.3307 17.0049V16.9285H70.561V17.4508H72.9373V16.9285H71.7491V17.0049L71.8194 17.0354C72.2195 16.11 72.6074 15.2761 72.977 14.3476L72.9067 14.3202V14.3965H77.7691V14.3202L77.6989 14.3507C78.0684 15.2456 78.438 16.1405 78.8106 17.0354L78.8809 17.0049V16.9285H77.6317V17.0049H77.6989ZM77.6042 13.9659L77.6744 13.9353C76.9017 12.0844 76.2084 10.4015 75.4204 8.55064L75.4021 8.50483H75.3196H75.2677L75.2493 8.55064C74.4766 10.371 73.7375 12.115 72.9647 13.9353L72.9189 14.0422H77.7172L77.6744 13.9353L77.6042 13.9659V13.8895H73.038V13.9659L73.1083 13.9964C73.881 12.1761 74.6202 10.4321 75.3929 8.61173L75.3226 8.58118V8.65754H75.3532V8.58118L75.2829 8.61173C76.0709 10.4626 76.7643 12.1455 77.537 13.9964L77.6042 13.9659V13.8895V13.9659Z" fill="#8C8C8C"/>
<path d="M77.6989 17.0049V17.0812H78.9847L78.942 16.9743C78.5724 16.0794 78.1998 15.1845 77.8302 14.2896L77.8119 14.2438H72.8487L72.8304 14.2927C72.4608 15.2151 72.076 16.0489 71.6728 16.9743L71.627 17.0812H72.7784V17.2981H70.7076V17.0812H71.3765L71.3949 17.0354C72.6135 14.1491 73.8169 11.3422 75.0508 8.45596L75.0966 8.34906H73.9788V8.13221H75.5181L79.2229 17.0812H79.8613V17.2981H77.7752V17.0049H77.6989ZM77.6989 17.0049V17.0812V17.0049ZM77.6989 17.0049H77.6225V17.3744V17.4508H80.014V16.9285H79.3268L75.622 7.97949H73.8291V8.50177H74.9867V8.42542L74.9164 8.39487C73.6825 11.2812 72.4791 14.088 71.2605 16.9743L71.3307 17.0049V16.9285H70.561V17.4508H72.9373V16.9285H71.7491V17.0049L71.8194 17.0354C72.2195 16.11 72.6074 15.2761 72.977 14.3476L72.9067 14.3202V14.3965H77.7691V14.3202L77.6989 14.3507C78.0684 15.2456 78.438 16.1405 78.8106 17.0354L78.8809 17.0049V16.9285H77.6317V17.0049H77.6989V17.0049ZM77.6042 13.9659L77.6744 13.9353C76.9017 12.0844 76.2084 10.4015 75.4204 8.55064L75.4021 8.50483H75.3196H75.2677L75.2493 8.55064C74.4766 10.371 73.7375 12.115 72.9647 13.9353L72.9189 14.0422H77.7172L77.6744 13.9353L77.6042 13.9659ZM77.6042 13.9659V13.8895H73.038V13.9659L73.1083 13.9964C73.881 12.1761 74.6202 10.4321 75.3929 8.61173L75.3226 8.58118V8.65754H75.3532V8.58118L75.2829 8.61173C76.0709 10.4626 76.7643 12.1455 77.537 13.9964L77.6042 13.9659ZM77.6042 13.9659V13.8895V13.9659Z" stroke="#8C8C8C" stroke-miterlimit="10"/>
<path d="M82.0177 8.05585V8.13221H86.4769C87.1305 8.13221 87.6895 8.25438 88.1568 8.46512C88.6088 8.6606 89.0639 8.99351 89.3785 9.35697C89.7236 9.74486 89.9832 10.2946 90.1665 10.8444C90.362 11.4186 90.4261 12.0447 90.4261 12.7014C90.4261 13.3703 90.3039 14.0605 90.1207 14.5889L90.194 14.6134L90.1207 14.5889C89.9252 15.1357 89.6045 15.6518 89.241 16.0458C88.8623 16.4551 88.4103 16.7727 87.8971 16.9682C87.3626 17.1667 86.7701 17.3042 86.086 17.3042H82.0482V17.0721H83.328V8.37044H82.094V8.06196H82.0177V8.13832V8.05585H81.9413V8.44069V8.51704H83.1752V16.9132H81.8955V17.4508H86.0921C86.7976 17.4508 87.4085 17.3103 87.9552 17.1057C88.4927 16.901 88.9631 16.5681 89.3571 16.1436C89.7358 15.7343 90.0626 15.2028 90.2673 14.6378C90.4566 14.088 90.5788 13.3886 90.5788 12.6983C90.5788 12.0295 90.5177 11.3881 90.3131 10.7925C90.1268 10.2305 89.861 9.66851 89.4945 9.25312C89.1616 8.8744 88.6913 8.52926 88.2179 8.32463L88.1873 8.39487L88.2179 8.32463C87.7292 8.10472 87.1458 7.97949 86.4739 7.97949H81.9383V8.05585H82.0177ZM83.6212 16.9896V17.0659H86.089C86.7304 17.0659 87.2955 16.9713 87.7994 16.7666C88.2881 16.562 88.7401 16.2657 89.0883 15.9175C89.4548 15.551 89.7206 15.0623 89.9252 14.5004C90.1146 13.9659 90.2062 13.355 90.2062 12.7014C90.2062 12.0905 90.1115 11.4522 89.9557 10.9055L89.8824 10.9269L89.9557 10.9085C89.8275 10.4137 89.5159 9.83954 89.2166 9.47609C88.9448 9.15539 88.5202 8.85912 88.0774 8.66976C87.6192 8.48039 87.0847 8.37044 86.4739 8.37044H83.5418V17.0721H83.6181V16.9896H83.6945V8.51704H86.4739C87.0664 8.51704 87.5795 8.62394 88.0193 8.80415L88.0499 8.7339L88.0193 8.80415C88.4408 8.98435 88.8501 9.2745 89.1005 9.57077L89.1586 9.5219L89.1005 9.57077C89.3846 9.9159 89.6931 10.4809 89.8122 10.9452V10.9482C89.9649 11.4797 90.0565 12.1089 90.0565 12.7014C90.0565 13.3428 89.9649 13.9353 89.7816 14.4515C89.5831 15.0013 89.3266 15.4686 88.9814 15.8106C88.6485 16.1405 88.2087 16.4307 87.7414 16.6261L87.7719 16.6964L87.7444 16.6261C87.2619 16.8216 86.7152 16.9132 86.0921 16.9132H83.6242V16.9896H83.7006H83.6212Z" fill="#8C8C8C"/>
<path d="M82.0177 8.05585V8.13221H86.4769C87.1305 8.13221 87.6895 8.25438 88.1568 8.46512C88.6088 8.6606 89.0639 8.99351 89.3785 9.35697C89.7236 9.74486 89.9832 10.2946 90.1665 10.8444C90.362 11.4186 90.4261 12.0447 90.4261 12.7014C90.4261 13.3703 90.3039 14.0605 90.1207 14.5889L90.194 14.6134L90.1207 14.5889C89.9252 15.1356 89.6045 15.6518 89.241 16.0458C88.8623 16.4551 88.4103 16.7727 87.8971 16.9682C87.3627 17.1667 86.7701 17.3042 86.086 17.3042H82.0482V17.0721H83.328V8.37044H82.094V8.06196H82.0177V8.13832V8.05585ZM82.0177 8.05585H81.9413V8.44069V8.51704H83.1752V16.9132H81.8955V17.4508H86.0921C86.7976 17.4508 87.4085 17.3103 87.9552 17.1057C88.4927 16.901 88.9631 16.5681 89.3571 16.1436C89.7358 15.7343 90.0626 15.2028 90.2673 14.6378C90.4566 14.088 90.5788 13.3886 90.5788 12.6983C90.5788 12.0295 90.5177 11.3881 90.3131 10.7925C90.1268 10.2305 89.861 9.66851 89.4945 9.25312C89.1616 8.8744 88.6913 8.52926 88.2179 8.32463L88.1873 8.39487L88.2179 8.32463C87.7292 8.10472 87.1458 7.97949 86.4739 7.97949H81.9383V8.05585H82.0177ZM83.6212 16.9896V17.0659H86.089C86.7304 17.0659 87.2955 16.9713 87.7994 16.7666C88.2881 16.562 88.7401 16.2657 89.0883 15.9175C89.4548 15.551 89.7206 15.0623 89.9252 14.5004C90.1146 13.9659 90.2062 13.355 90.2062 12.7014C90.2062 12.0905 90.1115 11.4522 89.9557 10.9055L89.8824 10.9269L89.9557 10.9085C89.8275 10.4137 89.5159 9.83954 89.2166 9.47609C88.9448 9.15539 88.5202 8.85912 88.0774 8.66976C87.6192 8.48039 87.0847 8.37044 86.4739 8.37044H83.5418V17.0721H83.6181V16.9896H83.6945V8.51704H86.4739C87.0664 8.51704 87.5795 8.62394 88.0193 8.80415L88.0499 8.7339L88.0193 8.80415C88.4408 8.98435 88.8501 9.2745 89.1005 9.57077L89.1586 9.5219L89.1005 9.57077C89.3846 9.9159 89.6931 10.4809 89.8122 10.9452V10.9482C89.9649 11.4797 90.0565 12.1089 90.0565 12.7014C90.0565 13.3428 89.9649 13.9353 89.7816 14.4515C89.5831 15.0013 89.3266 15.4686 88.9814 15.8106C88.6485 16.1405 88.2087 16.4307 87.7414 16.6261L87.7719 16.6964L87.7444 16.6261C87.2619 16.8216 86.7152 16.9132 86.0921 16.9132H83.6242V16.9896H83.7006H83.6212Z" stroke="#8C8C8C" stroke-miterlimit="10"/>
<path d="M99.9611 8.19606L99.9306 8.26631C100.477 8.50759 100.978 8.87411 101.421 9.31392C101.846 9.73846 102.163 10.2669 102.392 10.8319C102.634 11.4092 102.756 12.0475 102.756 12.7011C102.756 13.3364 102.603 14.0389 102.389 14.5703L102.46 14.5978L102.389 14.5673C102.16 15.114 101.824 15.6637 101.418 16.0852C100.993 16.5251 100.474 16.9068 99.9306 17.1329C99.4144 17.3589 98.7455 17.5269 98.1255 17.5269C97.4902 17.5269 96.8672 17.3589 96.3357 17.1329C95.8073 16.9068 95.2728 16.5098 94.8636 16.1005C94.439 15.676 94.0908 15.1293 93.8617 14.5673C93.651 14.0358 93.4983 13.3333 93.4983 12.6981C93.4983 12.0444 93.6205 11.4061 93.8617 10.8288C94.0725 10.3005 94.439 9.75068 94.8788 9.31087C95.2881 8.88327 95.8073 8.48927 96.3357 8.26325L96.3052 8.193L96.3357 8.26325C96.8855 8.03418 97.475 7.88452 98.1286 7.88452C98.7944 7.88452 99.3869 8.03723 99.9367 8.26325L99.9611 8.19606L99.9306 8.26631L99.9611 8.19606L99.9917 8.12581C99.4297 7.89063 98.8158 7.73486 98.1255 7.73486C97.4505 7.73486 96.8366 7.89368 96.2746 8.12581C95.7218 8.36404 95.1904 8.77026 94.7689 9.20702L94.8239 9.25895L94.7689 9.20397C94.3138 9.65905 93.9381 10.221 93.7182 10.7739L93.7885 10.8013L93.7182 10.7708C93.4677 11.3664 93.3425 12.0261 93.3425 12.6981C93.3425 13.3578 93.4983 14.0755 93.7182 14.6253C93.9534 15.2056 94.3138 15.7676 94.7536 16.2105C95.1751 16.632 95.7218 17.0382 96.2746 17.2764C96.8213 17.5116 97.4627 17.6826 98.1255 17.6826C98.773 17.6826 99.4572 17.5116 99.9917 17.2764L99.9611 17.2062L99.9917 17.2764C100.56 17.0412 101.091 16.6472 101.528 16.1952C101.953 15.7554 102.298 15.1903 102.53 14.6283V14.6253C102.75 14.0755 102.905 13.3578 102.905 12.6981C102.905 12.0261 102.78 11.3664 102.53 10.7708L102.46 10.8013L102.53 10.7739C102.295 10.1966 101.968 9.64684 101.525 9.20397C101.073 8.75193 100.557 8.37626 99.9886 8.12275L99.9611 8.19606ZM99.8054 8.55035L99.8359 8.48011C99.3014 8.24493 98.7364 8.1197 98.1225 8.1197C97.5238 8.1197 96.9588 8.24493 96.409 8.48011C95.8745 8.71528 95.3889 9.04515 95.0102 9.43915C94.6009 9.86369 94.2893 10.3493 94.0542 10.9296C93.8343 11.4641 93.7243 12.0903 93.7243 12.7011C93.7243 13.3425 93.8495 13.9411 94.0694 14.4879C94.3046 15.0529 94.6345 15.5385 95.0254 15.96C95.4011 16.3693 95.8745 16.7297 96.409 16.9496L96.4396 16.8793L96.409 16.9496C96.9282 17.1695 97.5544 17.2947 98.1194 17.2947C98.7028 17.2947 99.3136 17.1542 99.8298 16.9496C100.367 16.7297 100.822 16.3815 101.244 15.96C101.623 15.566 101.949 15.0651 102.185 14.4848L102.114 14.4573L102.185 14.4879C102.42 13.9381 102.53 13.3394 102.53 12.6981C102.53 12.0872 102.42 11.4611 102.185 10.9235L102.114 10.9541L102.185 10.9235C101.949 10.3615 101.638 9.84536 101.244 9.43304C100.85 9.02376 100.364 8.70917 99.8298 8.474L99.8054 8.55035L99.7748 8.6206C100.291 8.84967 100.761 9.15204 101.14 9.54604C101.519 9.94004 101.821 10.4409 102.05 10.9877V10.9907C102.276 11.5038 102.383 12.1116 102.383 12.7042C102.383 13.3272 102.276 13.9045 102.05 14.4329C101.821 14.9949 101.504 15.4805 101.14 15.8592L101.195 15.9111L101.14 15.8562C100.728 16.2685 100.288 16.6014 99.7748 16.8122L99.8054 16.8824L99.7779 16.8122C99.277 17.0107 98.6814 17.1451 98.1225 17.1451C97.5788 17.1451 96.9679 17.0229 96.4701 16.8122C95.957 16.6014 95.5019 16.2532 95.1384 15.8592C94.7567 15.4469 94.439 14.9765 94.213 14.4298L94.1427 14.4604L94.213 14.4329C93.9992 13.9014 93.8801 13.3242 93.8801 12.7011C93.8801 12.1086 93.987 11.5008 94.1977 10.9877C94.4268 10.4257 94.7292 9.95532 95.1232 9.54604C95.4866 9.16731 95.957 8.84967 96.4732 8.6206L96.4426 8.55035L96.4732 8.6206C97.0046 8.39153 97.5483 8.27242 98.1255 8.27242C98.718 8.27242 99.2617 8.39459 99.7779 8.6206L99.8054 8.55035Z" fill="#8C8C8C"/>
<path d="M99.9611 8.19606L99.9306 8.26631C100.477 8.50759 100.978 8.87411 101.421 9.31392C101.846 9.73846 102.163 10.2669 102.392 10.8319C102.634 11.4092 102.756 12.0475 102.756 12.7011C102.756 13.3364 102.603 14.0389 102.389 14.5703L102.46 14.5978L102.389 14.5673C102.16 15.114 101.824 15.6637 101.418 16.0852C100.993 16.5251 100.474 16.9068 99.9306 17.1329C99.4144 17.3589 98.7455 17.5269 98.1255 17.5269C97.4902 17.5269 96.8672 17.3589 96.3357 17.1329C95.8073 16.9068 95.2728 16.5098 94.8636 16.1005C94.439 15.676 94.0908 15.1293 93.8617 14.5673C93.651 14.0358 93.4983 13.3333 93.4983 12.6981C93.4983 12.0444 93.6205 11.4061 93.8617 10.8288C94.0725 10.3005 94.439 9.75068 94.8788 9.31087C95.2881 8.88327 95.8073 8.48927 96.3357 8.26325L96.3052 8.193L96.3357 8.26325C96.8855 8.03418 97.475 7.88452 98.1286 7.88452C98.7944 7.88452 99.3869 8.03723 99.9367 8.26325L99.9611 8.19606ZM99.9611 8.19606L99.9306 8.26631L99.9611 8.19606ZM99.9611 8.19606L99.9917 8.12581C99.4297 7.89063 98.8158 7.73486 98.1255 7.73486C97.4505 7.73486 96.8366 7.89368 96.2746 8.12581C95.7218 8.36404 95.1904 8.77026 94.7689 9.20702L94.8239 9.25895L94.7689 9.20397C94.3138 9.65905 93.9381 10.221 93.7182 10.7739L93.7885 10.8013L93.7182 10.7708C93.4677 11.3664 93.3425 12.0261 93.3425 12.6981C93.3425 13.3578 93.4983 14.0755 93.7182 14.6253C93.9534 15.2056 94.3138 15.7676 94.7536 16.2105C95.1751 16.632 95.7218 17.0382 96.2746 17.2764C96.8213 17.5116 97.4627 17.6826 98.1255 17.6826C98.773 17.6826 99.4572 17.5116 99.9917 17.2764L99.9611 17.2062L99.9917 17.2764C100.56 17.0412 101.091 16.6472 101.528 16.1952C101.953 15.7554 102.298 15.1903 102.53 14.6283V14.6253C102.75 14.0755 102.905 13.3578 102.905 12.6981C102.905 12.0261 102.78 11.3664 102.53 10.7708L102.46 10.8013L102.53 10.7739C102.295 10.1966 101.968 9.64684 101.525 9.20397C101.073 8.75193 100.557 8.37626 99.9886 8.12275L99.9611 8.19606ZM99.8054 8.55035L99.8359 8.48011C99.3014 8.24493 98.7364 8.1197 98.1225 8.1197C97.5238 8.1197 96.9588 8.24493 96.409 8.48011C95.8745 8.71528 95.3889 9.04515 95.0102 9.43915C94.6009 9.86369 94.2893 10.3493 94.0542 10.9296C93.8343 11.4641 93.7243 12.0903 93.7243 12.7011C93.7243 13.3425 93.8495 13.9411 94.0694 14.4879C94.3046 15.0529 94.6345 15.5385 95.0254 15.96C95.4011 16.3693 95.8745 16.7297 96.409 16.9496L96.4396 16.8793L96.409 16.9496C96.9282 17.1695 97.5544 17.2947 98.1194 17.2947C98.7028 17.2947 99.3136 17.1542 99.8298 16.9496C100.367 16.7297 100.822 16.3815 101.244 15.96C101.623 15.566 101.949 15.0651 102.185 14.4848L102.114 14.4573L102.185 14.4879C102.42 13.9381 102.53 13.3394 102.53 12.6981C102.53 12.0872 102.42 11.4611 102.185 10.9235L102.114 10.9541L102.185 10.9235C101.949 10.3615 101.638 9.84536 101.244 9.43304C100.85 9.02376 100.364 8.70917 99.8298 8.474L99.8054 8.55035ZM99.8054 8.55035L99.7748 8.6206C100.291 8.84967 100.761 9.15204 101.14 9.54604C101.519 9.94004 101.821 10.4409 102.05 10.9877V10.9907C102.276 11.5038 102.383 12.1116 102.383 12.7042C102.383 13.3272 102.276 13.9045 102.05 14.4329C101.821 14.9949 101.504 15.4805 101.14 15.8592L101.195 15.9111L101.14 15.8562C100.728 16.2685 100.288 16.6014 99.7748 16.8122L99.8054 16.8824L99.7779 16.8122C99.277 17.0107 98.6814 17.1451 98.1225 17.1451C97.5788 17.1451 96.9679 17.0229 96.4701 16.8122C95.957 16.6014 95.5019 16.2532 95.1384 15.8592C94.7567 15.4469 94.439 14.9765 94.213 14.4298L94.1427 14.4604L94.213 14.4329C93.9992 13.9014 93.8801 13.3242 93.8801 12.7011C93.8801 12.1086 93.987 11.5008 94.1977 10.9877C94.4268 10.4257 94.7292 9.95532 95.1232 9.54604C95.4866 9.16731 95.957 8.84967 96.4732 8.6206L96.4426 8.55035L96.4732 8.6206C97.0046 8.39153 97.5483 8.27242 98.1255 8.27242C98.718 8.27242 99.2617 8.39459 99.7779 8.6206L99.8054 8.55035Z" stroke="#8C8C8C" stroke-miterlimit="10"/>
<path d="M147.489 17.1364C149.982 17.1364 151.997 15.1207 151.989 12.6364C151.98 10.152 149.982 8.13636 147.489 8.13636C145.013 8.13636 142.997 10.152 142.989 12.6364C142.98 15.1207 145.013 17.1364 147.489 17.1364ZM147.489 16.0028C145.631 16.0028 144.114 14.4901 144.122 12.6406C144.126 10.7827 145.639 9.26989 147.489 9.26989C149.351 9.26989 150.851 10.7741 150.855 12.6406C150.864 14.4986 149.355 16.0028 147.489 16.0028ZM145.038 12.6364C145.038 14.0085 146.155 15.125 147.527 15.125C148.724 15.125 149.658 14.277 149.807 13.1562H148.699C148.588 13.6847 148.128 14.0597 147.527 14.0597C146.743 14.0597 146.104 13.4205 146.104 12.6364C146.104 11.848 146.743 11.2131 147.527 11.2131C148.128 11.2131 148.661 11.5881 148.767 12.1165H149.875C149.726 10.9957 148.724 10.1477 147.527 10.1477C146.155 10.1477 145.038 11.2642 145.038 12.6364ZM156.996 17H162.74V15.8707H158.811V15.8068L160.545 13.9915C162.143 12.3764 162.599 11.6051 162.599 10.6293C162.599 9.22727 161.457 8.15341 159.812 8.15341C158.18 8.15341 156.987 9.21023 156.987 10.804H158.244C158.24 9.86648 158.845 9.25284 159.787 9.25284C160.673 9.25284 161.347 9.7983 161.347 10.6676C161.347 11.4389 160.886 11.9929 159.949 12.9858L156.996 16.0455V17ZM167.393 17.1449C169.409 17.1449 170.589 15.5 170.589 12.6406C170.589 9.80256 169.392 8.15341 167.393 8.15341C165.391 8.15341 164.197 9.7983 164.193 12.6406C164.193 15.4957 165.374 17.1406 167.393 17.1449ZM167.393 16.0071C166.213 16.0071 165.501 14.8224 165.501 12.6406C165.506 10.4673 166.217 9.26989 167.393 9.26989C168.565 9.26989 169.281 10.4673 169.281 12.6406C169.281 14.8224 168.57 16.0071 167.393 16.0071ZM172.101 17H177.846V15.8707H173.917V15.8068L175.651 13.9915C177.249 12.3764 177.705 11.6051 177.705 10.6293C177.705 9.22727 176.563 8.15341 174.918 8.15341C173.286 8.15341 172.093 9.21023 172.093 10.804H173.35C173.346 9.86648 173.951 9.25284 174.892 9.25284C175.779 9.25284 176.452 9.7983 176.452 10.6676C176.452 11.4389 175.992 11.9929 175.054 12.9858L172.101 16.0455V17ZM182.772 8.27273H181.489L179.311 9.69602V10.9574L181.4 9.59375H181.451V17H182.772V8.27273Z" fill="#8C8C8C"/>
</svg>
