<svg width="185" height="22" viewBox="0 0 185 22" fill="none" xmlns="http://www.w3.org/2000/svg">
<path d="M103.938 16.7692C103.938 16.1766 104.396 15.7307 104.979 15.7307C105.572 15.7307 106.021 16.1766 106.021 16.7692C106.021 17.3525 105.572 17.8076 104.979 17.8076C104.396 17.8076 103.938 17.3525 103.938 16.7692Z" fill="#BBC564"/>
<path d="M124.933 12.7714C124.933 15.7982 123.161 17.6826 120.345 17.6826C117.523 17.6826 115.758 15.7982 115.758 12.7714C115.758 9.7446 117.523 7.854 120.345 7.854C123.161 7.854 124.933 9.7446 124.933 12.7714ZM117.315 12.7714C117.315 14.9857 118.488 16.3846 120.348 16.3846C122.208 16.3846 123.375 14.9857 123.375 12.7714C123.375 10.5509 122.208 9.15207 120.348 9.15207C118.488 9.15207 117.315 10.5479 117.315 12.7714Z" fill="#BBC564"/>
<path d="M124.933 12.7712H124.866C124.866 14.2708 124.426 15.4803 123.647 16.3141C122.866 17.148 121.742 17.6122 120.349 17.6122C118.953 17.6122 117.826 17.148 117.047 16.3141C116.268 15.4803 115.832 14.2708 115.832 12.7712C115.832 11.2715 116.268 10.059 117.047 9.22518C117.826 8.38831 118.953 7.92406 120.349 7.92406C121.742 7.92406 122.869 8.39137 123.647 9.22824C124.429 10.0651 124.866 11.2746 124.866 12.7742H124.933H125C125 11.2471 124.555 10.001 123.745 9.13356C122.936 8.26614 121.769 7.78662 120.346 7.78662C118.919 7.78662 117.753 8.26614 116.946 9.13356C116.14 10.001 115.694 11.2471 115.694 12.7742C115.694 14.3014 116.14 15.5475 116.946 16.4119C117.753 17.2762 118.922 17.7558 120.346 17.7527C121.769 17.7527 122.936 17.2762 123.745 16.4119C124.555 15.5475 125 14.3014 125 12.7742H124.933V12.7712ZM117.316 12.7712H117.249C117.249 13.8891 117.545 14.8084 118.083 15.4528C118.62 16.0942 119.402 16.4546 120.349 16.4516C121.296 16.4516 122.074 16.0942 122.612 15.4528C123.15 14.8114 123.443 13.8921 123.443 12.7712C123.443 11.6503 123.15 10.7279 122.612 10.0865C122.074 9.44509 121.296 9.08469 120.349 9.08469C119.402 9.08469 118.623 9.44204 118.083 10.0865C117.545 10.7279 117.249 11.6503 117.249 12.7712H117.316H117.383C117.383 11.6717 117.673 10.7829 118.186 10.172C118.699 9.56115 119.436 9.21907 120.349 9.21907C121.262 9.21907 121.995 9.56115 122.508 10.172C123.018 10.7829 123.308 11.6717 123.308 12.7712C123.308 13.8677 123.018 14.7534 122.508 15.3643C121.995 15.9751 121.262 16.3141 120.349 16.3172C119.436 16.3172 118.699 15.9751 118.186 15.3643C117.673 14.7534 117.383 13.8677 117.383 12.7712H117.316Z" fill="#BBC564"/>
<path d="M111.747 1.4828C112.945 1.4828 113.812 2.34105 113.812 3.52611C113.812 4.71116 112.945 5.56941 111.747 5.56941C110.501 5.56941 109.487 4.65313 109.487 3.52611C109.487 2.39908 110.501 1.4828 111.747 1.4828ZM113.812 9.06961V16.0761L112.37 15.3858L111.815 15.1201L111.25 15.3645L109.487 16.128V9.06961H113.812ZM111.747 0.132812C109.753 0.132812 108.137 1.65079 108.137 3.52611C108.137 5.40143 109.753 6.9194 111.747 6.9194C113.742 6.9194 115.162 5.40143 115.162 3.52611C115.162 1.65079 113.742 0.132812 111.747 0.132812ZM114.35 7.71657H108.95C108.501 7.71657 108.137 7.99145 108.137 8.33047V17.2184C108.137 17.5574 108.501 17.8323 108.95 17.8323L111.787 16.6045L114.35 17.8323C114.799 17.8323 115.162 17.5574 115.162 17.2184V8.33047C115.162 7.99145 114.799 7.71657 114.35 7.71657Z" fill="#BBC564"/>
<path d="M1.78732 14.4608C2.01945 15.0167 2.3432 15.4962 2.72804 15.9116C3.09761 16.3117 3.56185 16.669 4.10246 16.8828C4.61252 17.0997 5.22949 17.2218 5.78536 17.2218C6.34124 17.2218 6.9582 17.0844 7.46827 16.8828C7.9936 16.666 8.43953 16.327 8.85796 15.9116C9.09008 15.6794 9.30694 15.3557 9.52074 15.0167H9.93612C9.68872 15.4809 9.38024 15.881 9.11757 16.1437C8.68387 16.5774 8.16159 16.9775 7.62098 17.2096C7.09565 17.4418 6.4176 17.6097 5.78536 17.6097C5.13786 17.6097 4.49035 17.4387 3.96502 17.2096C3.42441 16.9775 2.88381 16.5774 2.46843 16.159C2.03777 15.7283 1.66515 15.1724 1.45135 14.6013C1.2345 14.0607 1.08179 13.3521 1.08179 12.7046C1.08179 12.0418 1.22228 11.3943 1.45135 10.8079C1.66821 10.2673 2.03777 9.7114 2.4837 9.26547C2.89908 8.83482 3.42441 8.43166 3.96502 8.19953C4.50562 7.96741 5.12259 7.8147 5.78536 7.8147C6.46341 7.8147 7.0651 7.95519 7.62098 8.19953C8.16159 8.43166 8.67165 8.8165 9.11757 9.28075C9.28861 9.45178 9.33443 9.52814 9.50241 9.72972H9.53295V8.51107H9.90252V10.4383H9.54823C9.33137 10.0993 9.1023 9.76027 8.85491 9.4976C8.47007 9.09749 7.99055 8.78901 7.46521 8.55689C6.93988 8.32476 6.36873 8.20259 5.78231 8.20259C5.19589 8.20259 4.64001 8.32476 4.09941 8.55689C3.5588 8.78901 3.09761 9.11276 2.72498 9.4976C2.32488 9.91298 2.01639 10.3925 1.78427 10.9636C1.56742 11.489 1.46052 12.1059 1.46052 12.7076C1.46357 13.3338 1.57047 13.9202 1.78732 14.4608Z" fill="white" stroke="white" stroke-miterlimit="10"/>
<path d="M18.0944 12.7015H14.2216V16.9897H18.6655V15.5389H19.0382V17.3775H12.5723V16.9897H13.8367V8.42548H12.6028V8.05591H18.974V9.89153H18.6045V8.42548H14.2216V12.3319H18.0944V11.3881H18.4517V13.6422H18.0944V12.7015Z" fill="white" stroke="white" stroke-miterlimit="10"/>
<path d="M25.794 13.1932H23.3872V17.0049H24.667V17.3745H21.7349V17.0049H23.0146V8.42548H21.7807V8.05591H26.3651C26.7347 8.05591 27.089 8.11699 27.3975 8.24222C27.706 8.38272 27.9839 8.53543 28.2466 8.78283C28.5092 9.04549 28.6925 9.3387 28.833 9.61664C28.9735 9.92512 29.0346 10.2641 29.0346 10.6337C29.0346 10.9727 28.9735 11.3118 28.833 11.6202C28.6925 11.9135 28.5092 12.2067 28.2466 12.4541C27.9839 12.7015 27.706 12.8694 27.3975 13.0099C27.089 13.1321 26.7347 13.1962 26.2552 13.1962C27.1501 14.476 28.0603 15.7435 28.9552 17.008H29.6637V17.3775H28.7383L25.794 13.1932ZM23.3872 12.8236H26.3651C26.6736 12.8236 26.9668 12.7625 27.26 12.6373C27.538 12.5304 27.7701 12.3746 27.987 12.1731C28.1733 11.9868 28.3718 11.7088 28.497 11.4645C28.6039 11.2323 28.6681 10.8933 28.6681 10.6307C28.6681 10.3374 28.6375 10.0442 28.5153 9.7663C28.4084 9.5189 28.2374 9.28678 28.0053 9.07298C27.8037 8.88667 27.5594 8.70341 27.2661 8.59346C26.9577 8.47129 26.6797 8.42242 26.3712 8.42242H23.3933V12.8236H23.3872Z" fill="white" stroke="white" stroke-miterlimit="10"/>
<path d="M33.4796 16.9897H34.7593V8.42548H32.4289V9.89153H32.0593V8.05591H37.8136V9.89153H37.4593V8.42548H35.1289V16.9897H36.4117V17.3775H33.4796V16.9897Z" fill="white" stroke="white" stroke-miterlimit="10"/>
<path d="M40.452 8.05591H43.2436V8.42548H42.0402V17.0049H43.3077V17.3775H40.3909V17.0049H41.6553V8.42548H40.452V8.05591Z" fill="white" stroke="white" stroke-miterlimit="10"/>
<path d="M50.9889 12.8542H47.5651V16.9897H48.8296V17.3775H45.8975V16.9897H47.1772V8.42548H45.9433V8.05591H51.838V9.89153H51.4685V8.42548H47.5651V12.4846H50.9889V11.5439H51.3616V13.7949H50.9889V12.8542Z" fill="white" stroke="white" stroke-miterlimit="10"/>
<path d="M54.5228 8.05591H57.3144V8.42548H56.111V17.0049H57.3785V17.3775H54.4617V17.0049H55.7261V8.42548H54.5228V8.05591Z" fill="white" stroke="white" stroke-miterlimit="10"/>
<path d="M60.4937 14.4608C60.7259 15.0167 61.0496 15.4962 61.4345 15.9116C61.804 16.3117 62.2683 16.669 62.8089 16.8828C63.3189 17.0997 63.9359 17.2218 64.4918 17.2218C65.0477 17.2218 65.6646 17.0844 66.1747 16.8828C66.7 16.666 67.1459 16.327 67.5644 15.9116C67.7965 15.6794 68.0134 15.3557 68.2272 15.0167H68.6395C68.3921 15.4809 68.0836 15.881 67.8209 16.1437C67.3872 16.5774 66.865 16.9775 66.3244 17.2096C65.799 17.4418 65.121 17.6097 64.4887 17.6097C63.8412 17.6097 63.1937 17.4387 62.6684 17.2096C62.1278 16.9775 61.5872 16.5774 61.1718 16.159C60.7411 15.7283 60.3685 15.1724 60.1547 14.6013C59.9379 14.0607 59.7852 13.3521 59.7852 12.7046C59.7852 12.0418 59.9257 11.3943 60.1547 10.8079C60.3716 10.2673 60.7411 9.7114 61.1871 9.26547C61.6025 8.83482 62.1278 8.43166 62.6684 8.19953C63.209 7.96741 63.826 7.8147 64.4887 7.8147C65.1668 7.8147 65.7685 7.95519 66.3244 8.19953C66.865 8.43166 67.375 8.8165 67.8209 9.28075C67.992 9.45178 68.0378 9.52814 68.2058 9.72972H68.2363V8.51107H68.6059V10.4383H68.2516C68.0347 10.0993 67.8057 9.76027 67.5583 9.4976C67.1734 9.09749 66.6939 8.78901 66.1686 8.55689C65.6432 8.32476 65.0721 8.20259 64.4857 8.20259C63.8993 8.20259 63.3434 8.32476 62.8028 8.55689C62.2622 8.78901 61.801 9.11276 61.4284 9.4976C61.0282 9.91298 60.7198 10.3925 60.4876 10.9636C60.2708 11.489 60.1639 12.1059 60.1639 12.7076C60.17 13.3338 60.2769 13.9202 60.4937 14.4608Z" fill="white" stroke="white" stroke-miterlimit="10"/>
<path d="M77.6983 17.0049H78.8712C78.5016 16.11 78.129 15.2151 77.7594 14.3202H72.897C72.5274 15.2457 72.1395 16.0795 71.7394 17.0049H72.8512V17.3745H70.6277V17.0049H71.321C72.5397 14.1186 73.743 11.3118 74.977 8.42548H73.8958V8.05591H75.5634L79.2682 17.0049H79.931V17.3745H77.6922V17.0049H77.6983ZM77.6036 13.9659C76.8309 12.115 76.1376 10.4321 75.3496 8.58124H75.319C74.5463 10.4016 73.8072 12.1456 73.0345 13.9659H77.6036Z" fill="white" stroke="white" stroke-miterlimit="10"/>
<path d="M82.0177 8.05591H86.477C87.1397 8.05591 87.7109 8.17808 88.1904 8.39493C88.6547 8.59651 89.1159 8.93554 89.4396 9.30511C89.7939 9.70522 90.0566 10.2611 90.2429 10.817C90.4445 11.4034 90.5056 12.0356 90.5056 12.6984C90.5056 13.3764 90.3834 14.0728 90.1971 14.6104C89.9955 15.1663 89.6717 15.6916 89.3022 16.0917C88.9173 16.5071 88.4531 16.8339 87.9278 17.0324C87.3871 17.234 86.7855 17.3714 86.0921 17.3714H81.9719V16.9866H83.2517V8.43769H82.0177V8.05591ZM83.6212 16.9897H86.0891C86.7213 16.9897 87.2772 16.898 87.772 16.6964C88.2515 16.4949 88.6974 16.2016 89.0365 15.8626C89.3907 15.5083 89.6534 15.0288 89.855 14.4729C90.0413 13.9476 90.1329 13.3459 90.1329 12.6984C90.1329 12.0967 90.0413 11.4645 89.8855 10.9239C89.7634 10.4444 89.4518 9.8732 89.1586 9.5189C88.896 9.21042 88.4806 8.91721 88.0469 8.7309C87.5979 8.54459 87.0756 8.43769 86.4739 8.43769H83.6182V16.9897H83.6212Z" fill="white" stroke="white" stroke-miterlimit="10"/>
<path d="M99.9606 8.19641C100.516 8.4438 101.027 8.81337 101.472 9.26235C101.906 9.69605 102.23 10.2336 102.459 10.8048C102.706 11.3912 102.829 12.0387 102.829 12.7015C102.829 13.349 102.673 14.0606 102.459 14.5982C102.227 15.154 101.888 15.7099 101.472 16.1406C101.042 16.5895 100.516 16.9744 99.9606 17.2065C99.4352 17.4386 98.7572 17.6066 98.125 17.6066C97.4775 17.6066 96.8452 17.4356 96.3046 17.2065C95.764 16.9774 95.2234 16.5743 94.808 16.1558C94.3743 15.7252 94.02 15.1693 93.791 14.5982C93.5741 14.0576 93.4214 13.349 93.4214 12.7015C93.4214 12.0387 93.5436 11.3912 93.791 10.8048C94.0078 10.2641 94.3774 9.70827 94.8263 9.26235C95.2417 8.83169 95.7671 8.42853 96.3077 8.19641C96.8635 7.96428 97.4652 7.81157 98.128 7.81157C98.803 7.80851 99.4047 7.96428 99.9606 8.19641ZM99.8048 8.5507C99.2795 8.31858 98.7236 8.19641 98.1219 8.19641C97.5355 8.19641 96.9796 8.31858 96.439 8.5507C95.9137 8.78283 95.4372 9.10658 95.0646 9.49142C94.6645 9.9068 94.356 10.3863 94.1239 10.9575C93.907 11.4828 93.8001 12.0998 93.8001 12.7015C93.8001 13.3337 93.9223 13.9201 94.1391 14.4607C94.3713 15.0166 94.695 15.4961 95.0799 15.9115C95.4494 16.3116 95.9137 16.669 96.439 16.8828C96.9491 17.0996 97.566 17.2218 98.1219 17.2218C98.6931 17.2218 99.2947 17.0843 99.8048 16.8828C100.33 16.6659 100.776 16.3269 101.194 15.9115C101.564 15.5267 101.888 15.0319 102.12 14.4607C102.352 13.9201 102.459 13.3337 102.459 12.7015C102.459 12.0998 102.352 11.4828 102.12 10.9575C101.888 10.4016 101.579 9.89153 101.194 9.49142C100.81 9.09131 100.33 8.77977 99.8048 8.5507Z" fill="white" stroke="white" stroke-miterlimit="10"/>
<path d="M1.788 14.4614L1.71775 14.4919C1.95293 15.057 2.28279 15.5426 2.67374 15.9641C3.04942 16.3734 3.52283 16.7338 4.07565 16.9567L4.10314 16.8865L4.0726 16.9567C4.59182 17.1766 5.21795 17.3019 5.78299 17.3019C6.35108 17.3019 6.97415 17.1614 7.49338 16.9567C8.03093 16.7368 8.48602 16.3886 8.90751 15.9671C9.14574 15.7259 9.36565 15.399 9.5825 15.06L9.51836 15.0203V15.0967H9.93374V15.0203L9.86655 14.9837C9.62221 15.4388 9.31678 15.8358 9.06327 16.0924C8.63568 16.52 8.11645 16.914 7.59112 17.14C7.07494 17.366 6.40606 17.534 5.78604 17.534C5.15075 17.534 4.51241 17.366 3.99624 17.14H3.99319C3.4648 16.914 2.9303 16.5169 2.52103 16.1076C2.09648 15.6831 1.73303 15.1364 1.51923 14.5774C1.30543 14.046 1.15271 13.3435 1.15271 12.7082C1.15271 12.0546 1.29016 11.4163 1.51923 10.839C1.72997 10.3106 2.09648 9.76087 2.5363 9.32105C2.94557 8.89345 3.4648 8.49945 3.99319 8.27344C4.52463 8.04437 5.13243 7.8947 5.78299 7.8947C6.45187 7.8947 7.04135 8.03215 7.58806 8.27344C8.11645 8.49945 8.61735 8.87818 9.06022 9.33632C9.22515 9.50125 9.26791 9.57456 9.442 9.77919L9.46338 9.80668H9.53058H9.60693V8.58803H9.82379V10.3656H9.54585V10.442L9.60999 10.4023C9.39314 10.0602 9.16101 9.71811 8.90751 9.44933C8.51351 9.04006 8.02788 8.72547 7.49338 8.49029C6.95888 8.25511 6.37857 8.12988 5.77993 8.12988C5.1813 8.12988 4.61626 8.25511 4.06649 8.49029C3.51672 8.72547 3.04636 9.05533 2.66763 9.44933C2.25836 9.87387 1.94682 10.3595 1.71165 10.9398C1.49174 11.4743 1.38178 12.1004 1.38178 12.7113C1.38178 13.3527 1.49174 13.9483 1.71165 14.498L1.788 14.4614L1.85825 14.4339C1.64751 13.9025 1.54061 13.3283 1.54061 12.7021C1.54061 12.1096 1.64751 11.5018 1.85825 10.9887C2.08732 10.4267 2.38969 9.95634 2.78369 9.54706C3.14715 9.16833 3.60224 8.85069 4.13063 8.62162C4.66207 8.39255 5.20573 8.27344 5.78299 8.27344C6.35719 8.27344 6.91918 8.39561 7.43535 8.62162C7.95152 8.85069 8.42188 9.15306 8.80061 9.54706L8.85558 9.49514L8.80061 9.54706C9.04189 9.80362 9.27096 10.1396 9.48476 10.4756L9.50614 10.5122H9.9032H9.97956V8.43226H9.45728V9.72727H9.53363V9.65091H9.50309V9.72727L9.56112 9.6784C9.39314 9.47987 9.34427 9.40046 9.17017 9.22637L9.1152 9.28134L9.17017 9.22942C8.71814 8.76212 8.20197 8.36812 7.64915 8.13294L7.6186 8.20319L7.64915 8.13294C7.08411 7.88249 6.4702 7.73894 5.78299 7.74199C5.10799 7.74199 4.47881 7.89776 3.9321 8.13294C3.37928 8.37117 2.84783 8.77739 2.42634 9.21415L2.48132 9.26607L2.42634 9.2111C1.97126 9.66618 1.59558 10.2282 1.37568 10.781C1.1405 11.3766 1 12.0332 1 12.7082C1 13.368 1.15577 14.0857 1.37568 14.6355L1.44592 14.608L1.37568 14.6355C1.59558 15.2188 1.97126 15.7808 2.41107 16.2206C2.83256 16.6421 3.37928 17.0484 3.9321 17.2866L3.96264 17.2163L3.9321 17.2866C4.4666 17.5218 5.12327 17.6928 5.78299 17.6928C6.43049 17.6928 7.11465 17.5218 7.64915 17.2866L7.6186 17.2163L7.64915 17.2866C8.20197 17.0484 8.73341 16.6421 9.17017 16.2054C9.43895 15.9366 9.75049 15.5304 10.0009 15.06L10.062 14.947H9.4756L9.45422 14.9837C9.24042 15.3227 9.02357 15.6434 8.80061 15.8664C8.38828 16.2787 7.94847 16.6116 7.43535 16.8223L7.46589 16.8926L7.4384 16.8223C6.9375 17.0209 6.32665 17.1553 5.78299 17.1553C5.23933 17.1553 4.62847 17.0331 4.13063 16.8223C3.60224 16.6116 3.15021 16.2634 2.78369 15.8694C2.40191 15.4571 2.08427 14.9867 1.8552 14.44L1.788 14.4614L1.85825 14.4339L1.788 14.4614Z" fill="white"/>
<path d="M1.788 14.4614L1.71775 14.4919C1.95293 15.057 2.28279 15.5426 2.67374 15.9641C3.04942 16.3734 3.52283 16.7338 4.07565 16.9567L4.10314 16.8865L4.0726 16.9567C4.59182 17.1766 5.21795 17.3019 5.78299 17.3019C6.35108 17.3019 6.97415 17.1614 7.49338 16.9567C8.03093 16.7368 8.48602 16.3886 8.90751 15.9671C9.14574 15.7259 9.36565 15.399 9.5825 15.06L9.51836 15.0203V15.0967H9.93374V15.0203L9.86655 14.9837C9.62221 15.4388 9.31678 15.8358 9.06327 16.0924C8.63568 16.52 8.11645 16.914 7.59112 17.14C7.07494 17.366 6.40606 17.534 5.78604 17.534C5.15075 17.534 4.51241 17.366 3.99624 17.14H3.99319C3.4648 16.914 2.9303 16.5169 2.52103 16.1076C2.09648 15.6831 1.73302 15.1364 1.51923 14.5774C1.30543 14.046 1.15271 13.3435 1.15271 12.7082C1.15271 12.0546 1.29016 11.4163 1.51923 10.839C1.72997 10.3106 2.09648 9.76087 2.5363 9.32105C2.94557 8.89345 3.4648 8.49945 3.99319 8.27344C4.52463 8.04437 5.13243 7.8947 5.78299 7.8947C6.45187 7.8947 7.04135 8.03215 7.58806 8.27344C8.11645 8.49945 8.61735 8.87818 9.06022 9.33632C9.22515 9.50125 9.26791 9.57456 9.442 9.77919L9.46338 9.80668H9.53058H9.60693V8.58803H9.82379V10.3656H9.54585V10.442L9.60999 10.4023C9.39314 10.0602 9.16101 9.71811 8.90751 9.44933C8.51351 9.04006 8.02788 8.72547 7.49338 8.49029C6.95888 8.25511 6.37857 8.12988 5.77993 8.12988C5.1813 8.12988 4.61626 8.25511 4.06649 8.49029C3.51672 8.72547 3.04636 9.05533 2.66763 9.44933C2.25836 9.87387 1.94682 10.3595 1.71165 10.9398C1.49174 11.4743 1.38178 12.1004 1.38178 12.7113C1.38178 13.3527 1.49174 13.9483 1.71165 14.498L1.788 14.4614ZM1.788 14.4614L1.85825 14.4339C1.64751 13.9025 1.54061 13.3283 1.54061 12.7021C1.54061 12.1096 1.64751 11.5018 1.85825 10.9887C2.08732 10.4267 2.38969 9.95634 2.78369 9.54706C3.14715 9.16833 3.60224 8.85069 4.13063 8.62162C4.66207 8.39255 5.20573 8.27344 5.78299 8.27344C6.35719 8.27344 6.91918 8.39561 7.43535 8.62162C7.95152 8.85069 8.42188 9.15306 8.80061 9.54706L8.85558 9.49514L8.80061 9.54706C9.04189 9.80362 9.27096 10.1396 9.48476 10.4756L9.50614 10.5122H9.9032H9.97956V8.43226H9.45728V9.72727H9.53363V9.65091H9.50309V9.72727L9.56112 9.6784C9.39314 9.47987 9.34427 9.40046 9.17017 9.22637L9.1152 9.28134L9.17017 9.22942C8.71814 8.76212 8.20197 8.36812 7.64915 8.13294L7.6186 8.20319L7.64915 8.13294C7.08411 7.88249 6.4702 7.73894 5.78299 7.74199C5.10799 7.74199 4.47881 7.89776 3.9321 8.13294C3.37928 8.37117 2.84783 8.77739 2.42634 9.21415L2.48132 9.26607L2.42634 9.2111C1.97126 9.66618 1.59558 10.2282 1.37568 10.781C1.1405 11.3766 1 12.0332 1 12.7082C1 13.368 1.15577 14.0857 1.37568 14.6355L1.44592 14.608L1.37568 14.6355C1.59558 15.2188 1.97126 15.7808 2.41107 16.2206C2.83256 16.6421 3.37928 17.0484 3.9321 17.2866L3.96264 17.2163L3.9321 17.2866C4.4666 17.5218 5.12327 17.6928 5.78299 17.6928C6.43049 17.6928 7.11465 17.5218 7.64915 17.2866L7.6186 17.2163L7.64915 17.2866C8.20197 17.0484 8.73341 16.6421 9.17017 16.2054C9.43895 15.9366 9.75049 15.5304 10.0009 15.06L10.062 14.947H9.4756L9.45422 14.9837C9.24042 15.3227 9.02357 15.6434 8.80061 15.8664C8.38828 16.2787 7.94847 16.6116 7.43535 16.8223L7.46589 16.8926L7.4384 16.8223C6.9375 17.0209 6.32665 17.1553 5.78299 17.1553C5.23933 17.1553 4.62847 17.0331 4.13063 16.8223C3.60224 16.6116 3.15021 16.2634 2.78369 15.8694C2.40191 15.4571 2.08427 14.9867 1.8552 14.44L1.788 14.4614ZM1.788 14.4614L1.85825 14.4339L1.788 14.4614Z" stroke="white" stroke-miterlimit="10"/>
<path d="M18.0946 12.7014V12.625H14.1454V17.0659H18.7421V15.6152H18.962V17.3011H12.6488V17.0659H13.9133V8.34906H12.6793V8.13221H18.8978V9.81511H18.681V8.34906H14.1454V12.4082H18.1709V11.4644H18.3756V13.5658H18.1709V12.625H18.0946V12.7014H18.0182V13.7185H18.5283V11.3117H18.0182V12.2555H14.2981V8.50177H18.5283V9.96782H19.0506V7.97949H12.5266V8.50177H13.7606V16.9132H12.4961V17.4538H19.1147V15.4625H18.5894V16.9132H14.2981V12.7778H18.0946V12.7014H18.0182H18.0946Z" fill="white"/>
<path d="M18.0946 12.7014V12.625H14.1454V17.0659H18.7421V15.6152H18.962V17.3011H12.6488V17.0659H13.9133V8.34906H12.6793V8.13221H18.8978V9.81511H18.681V8.34906H14.1454V12.4082H18.1709V11.4644H18.3756V13.5658H18.1709V12.625H18.0946V12.7014ZM18.0946 12.7014H18.0182V13.7185H18.5283V11.3117H18.0182V12.2555H14.2981V8.50177H18.5283V9.96782H19.0506V7.97949H12.5266V8.50177H13.7606V16.9132H12.4961V17.4538H19.1147V15.4625H18.5894V16.9132H14.2981V12.7778H18.0946V12.7014ZM18.0946 12.7014H18.0182H18.0946Z" stroke="white" stroke-miterlimit="10"/>
<path d="M25.7943 13.193V13.1166H23.3112V17.0811H24.5909V17.2979H21.8115V17.0811H23.0913V8.34893H21.8573V8.13207H26.3654C26.7258 8.13207 27.074 8.19316 27.3703 8.31228L27.3978 8.24203L27.3672 8.31228C27.6727 8.44972 27.9414 8.59938 28.195 8.83761L28.2469 8.78264L28.1919 8.83761C28.4454 9.09112 28.6287 9.37822 28.763 9.65005L28.8302 9.61645L28.76 9.64699C28.8944 9.94326 28.9555 10.2731 28.9555 10.6335C28.9555 10.9634 28.8944 11.2932 28.76 11.5895L28.8302 11.6201L28.76 11.5865C28.6225 11.8736 28.4423 12.1576 28.1888 12.3958C27.9323 12.6371 27.6635 12.8021 27.3611 12.9364L27.3917 13.0067L27.3642 12.9364C27.0649 13.0556 26.7228 13.1166 26.2494 13.1166H26.1028L26.1852 13.2358C27.0801 14.5186 27.9903 15.783 28.8852 17.0475L28.9066 17.0811H29.5785V17.2979H28.7814L25.834 13.1166H25.7943V13.193L25.7332 13.2358L28.705 17.4507H29.7465V16.9284H28.9616V17.0047L29.0227 16.962C28.1278 15.6975 27.2176 14.43 26.3227 13.1502L26.2616 13.193V13.2694C26.7472 13.2694 27.1137 13.2052 27.4314 13.08H27.4344C27.749 12.9395 28.0361 12.7654 28.3049 12.5119C28.5767 12.2553 28.7661 11.956 28.9066 11.6567C29.0501 11.336 29.1143 10.9878 29.1143 10.6366C29.1143 10.2578 29.0501 9.90661 28.9066 9.58591V9.58285C28.7661 9.29881 28.5767 8.99949 28.3049 8.73071C28.0331 8.47721 27.746 8.31839 27.4344 8.17789H27.4314C27.1107 8.04961 26.7472 7.98853 26.3685 7.98853H21.7077V8.51081H22.9416V16.9375H21.6619V17.4598H24.7467V16.9375H23.4669V13.2785H25.7973V13.193L25.7363 13.2358L25.7943 13.193ZM23.3875 12.8234V12.8998H26.3654C26.6831 12.8998 26.9885 12.8357 27.2909 12.7074L27.2603 12.6371L27.2878 12.7074C27.5749 12.5944 27.8162 12.4355 28.0361 12.2278C28.2285 12.0354 28.4301 11.7544 28.5584 11.4979C28.6714 11.2505 28.7356 10.9054 28.7356 10.6335C28.7356 10.3342 28.705 10.0318 28.5737 9.73862C28.4607 9.48206 28.2835 9.24077 28.0453 9.02087C27.8407 8.8315 27.5872 8.63908 27.2787 8.52608L27.2512 8.59632L27.2787 8.52608C26.961 8.3978 26.6709 8.35198 26.3563 8.35198H23.302V12.9028H23.3784V12.8234H23.4547V8.50164H26.3563C26.6587 8.50164 26.9213 8.54745 27.2237 8.66657C27.5047 8.77042 27.7429 8.94756 27.9384 9.13082C28.1644 9.34156 28.3263 9.56453 28.4301 9.79971C28.5462 10.0624 28.5767 10.3464 28.5767 10.6335C28.5767 10.884 28.5156 11.2199 28.4149 11.4337L28.4851 11.4673L28.4179 11.4337C28.2988 11.672 28.1003 11.9469 27.9231 12.124L27.9781 12.179L27.9262 12.124C27.7154 12.3195 27.4925 12.4661 27.2237 12.573C26.9396 12.6921 26.6556 12.7532 26.3593 12.7532H23.3814V12.8234H23.4578H23.3875Z" fill="white"/>
<path d="M25.7943 13.193V13.1166H23.3112V17.0811H24.5909V17.2979H21.8115V17.0811H23.0913V8.34893H21.8573V8.13207H26.3654C26.7258 8.13207 27.074 8.19316 27.3703 8.31228L27.3978 8.24203L27.3672 8.31228C27.6727 8.44972 27.9414 8.59938 28.195 8.83761L28.2469 8.78264L28.1919 8.83761C28.4454 9.09112 28.6287 9.37822 28.763 9.65005L28.8302 9.61645L28.76 9.64699C28.8944 9.94326 28.9555 10.2731 28.9555 10.6335C28.9555 10.9634 28.8944 11.2932 28.76 11.5895L28.8302 11.6201L28.76 11.5865C28.6225 11.8736 28.4423 12.1576 28.1888 12.3958C27.9323 12.6371 27.6635 12.8021 27.3611 12.9364L27.3917 13.0067L27.3642 12.9364C27.0649 13.0556 26.7228 13.1166 26.2494 13.1166H26.1028L26.1852 13.2358C27.0801 14.5186 27.9903 15.783 28.8852 17.0475L28.9066 17.0811H29.5785V17.2979H28.7814L25.834 13.1166H25.7943V13.193ZM25.7943 13.193L25.7332 13.2358L28.705 17.4507H29.7465V16.9284H28.9616V17.0047L29.0227 16.962C28.1278 15.6975 27.2176 14.43 26.3227 13.1502L26.2616 13.193V13.2694C26.7472 13.2694 27.1137 13.2052 27.4314 13.08H27.4344C27.749 12.9395 28.0361 12.7654 28.3049 12.5119C28.5767 12.2553 28.7661 11.956 28.9066 11.6567C29.0501 11.336 29.1143 10.9878 29.1143 10.6366C29.1143 10.2578 29.0501 9.90661 28.9066 9.58591V9.58285C28.7661 9.29881 28.5767 8.99949 28.3049 8.73071C28.0331 8.47721 27.746 8.31839 27.4344 8.17789H27.4314C27.1107 8.04961 26.7472 7.98853 26.3685 7.98853H21.7077V8.51081H22.9416V16.9375H21.6619V17.4598H24.7467V16.9375H23.4669V13.2785H25.7973V13.193L25.7363 13.2358L25.7943 13.193ZM23.3875 12.8234V12.8998H26.3654C26.6831 12.8998 26.9885 12.8357 27.2909 12.7074L27.2603 12.6371L27.2878 12.7074C27.5749 12.5944 27.8162 12.4355 28.0361 12.2278C28.2285 12.0354 28.4301 11.7544 28.5584 11.4979C28.6714 11.2505 28.7356 10.9054 28.7356 10.6335C28.7356 10.3342 28.705 10.0318 28.5737 9.73862C28.4607 9.48206 28.2835 9.24077 28.0453 9.02087C27.8407 8.8315 27.5872 8.63908 27.2787 8.52608L27.2512 8.59632L27.2787 8.52608C26.961 8.3978 26.6709 8.35198 26.3563 8.35198H23.302V12.9028H23.3784V12.8234H23.4547V8.50164H26.3563C26.6587 8.50164 26.9213 8.54745 27.2237 8.66657C27.5047 8.77042 27.7429 8.94756 27.9384 9.13082C28.1644 9.34156 28.3263 9.56453 28.4301 9.79971C28.5462 10.0624 28.5767 10.3464 28.5767 10.6335C28.5767 10.884 28.5156 11.2199 28.4149 11.4337L28.4851 11.4673L28.4179 11.4337C28.2988 11.672 28.1003 11.9469 27.9231 12.124L27.9781 12.179L27.9262 12.124C27.7154 12.3195 27.4925 12.4661 27.2237 12.573C26.9396 12.6921 26.6556 12.7532 26.3593 12.7532H23.3814V12.8234H23.4578H23.3875Z" stroke="white" stroke-miterlimit="10"/>
<path d="M33.479 16.9896V17.0659H34.8351V8.34906H32.352V9.81511H32.1351V8.13221H37.7367V9.81511H37.5351V8.34906H35.052V17.0659H36.3348V17.3011H33.5554V16.9896H33.479V17.0659V16.9896H33.4027V17.3775V17.4538H36.4875V16.9132H35.2047V8.50177H37.3824V9.96782H37.8894V7.97949H31.9824V9.96782H32.5047V8.50177H34.6824V16.9132H33.4027V16.9896H33.479Z" fill="white"/>
<path d="M33.479 16.9896V17.0659H34.8351V8.34906H32.352V9.81511H32.1351V8.13221H37.7367V9.81511H37.5351V8.34906H35.052V17.0659H36.3348V17.3011H33.5554V16.9896H33.479ZM33.479 16.9896V17.0659V16.9896ZM33.479 16.9896H33.4027V17.3775V17.4538H36.4875V16.9132H35.2047V8.50177H37.3824V9.96782H37.8894V7.97949H31.9824V9.96782H32.5047V8.50177H34.6824V16.9132H33.4027V16.9896H33.479Z" stroke="white" stroke-miterlimit="10"/>
<path d="M40.4514 8.05585V8.13221H43.1667V8.34906H41.9633V17.0812H43.2308V17.3011H40.4667V17.0812H41.7311V8.34906H40.5278V8.05585H40.4514V8.13221V8.05585H40.3751V8.42542V8.50177H41.5784V16.9285H40.314V17.4538H43.3835V16.9285H42.116V8.50177H43.3194V7.97949H40.3751V8.05585H40.4514Z" fill="white"/>
<path d="M40.4514 8.05585V8.13221H43.1667V8.34906H41.9633V17.0812H43.2308V17.3011H40.4667V17.0812H41.7311V8.34906H40.5278V8.05585H40.4514ZM40.4514 8.05585V8.13221V8.05585ZM40.4514 8.05585H40.3751V8.42542V8.50177H41.5784V16.9285H40.314V17.4538H43.3835V16.9285H42.116V8.50177H43.3194V7.97949H40.3751V8.05585H40.4514Z" stroke="white" stroke-miterlimit="10"/>
<path d="M50.9891 12.8541V12.7778H47.4889V17.0659H48.7534V17.3011H45.974V17.0659H47.2537V8.34906H46.0198V8.13221H51.7618V9.81511H51.545V8.34906H47.4889V12.5609H51.0655V11.6202H51.2854V13.7185H51.0655V12.7778H50.9891V12.8541H50.9128V13.8712H51.4381V11.4675H50.9128V12.4082H47.6416V8.50177H51.3923V9.96782H51.9146V7.97949H45.8671V8.50177H47.101V16.9132H45.8213V17.4538H48.9061V16.9132H47.6416V12.9305H50.9891V12.8541H50.9128H50.9891Z" fill="white"/>
<path d="M50.9891 12.8541V12.7778H47.4889V17.0659H48.7534V17.3011H45.974V17.0659H47.2537V8.34906H46.0198V8.13221H51.7618V9.81511H51.545V8.34906H47.4889V12.5609H51.0655V11.6202H51.2854V13.7185H51.0655V12.7778H50.9891V12.8541ZM50.9891 12.8541H50.9128V13.8712H51.4381V11.4675H50.9128V12.4082H47.6416V8.50177H51.3923V9.96782H51.9146V7.97949H45.8671V8.50177H47.101V16.9132H45.8213V17.4538H48.9061V16.9132H47.6416V12.9305H50.9891V12.8541ZM50.9891 12.8541H50.9128H50.9891Z" stroke="white" stroke-miterlimit="10"/>
<path d="M54.5225 8.05585V8.13221H57.2377V8.34906H56.0343V17.0812H57.3018V17.3011H54.5377V17.0812H55.8022V8.34906H54.5988V8.05585H54.5225V8.13221V8.05585H54.4461V8.42542V8.50177H55.6495V16.9285H54.385V17.4538H57.4546V16.9285H56.187V8.50177H57.3904V7.97949H54.4461V8.05585H54.5225Z" fill="white"/>
<path d="M54.5225 8.05585V8.13221H57.2377V8.34906H56.0343V17.0812H57.3018V17.3011H54.5377V17.0812H55.8022V8.34906H54.5988V8.05585H54.5225ZM54.5225 8.05585V8.13221V8.05585ZM54.5225 8.05585H54.4461V8.42542V8.50177H55.6495V16.9285H54.385V17.4538H57.4546V16.9285H56.187V8.50177H57.3904V7.97949H54.4461V8.05585H54.5225Z" stroke="white" stroke-miterlimit="10"/>
<path d="M60.4941 14.4609L60.4238 14.4914C60.659 15.0565 60.9888 15.5421 61.3798 15.9636C61.7555 16.3729 62.2289 16.7333 62.7817 16.9562L62.8092 16.886L62.7787 16.9562C63.2979 17.1761 63.924 17.3014 64.489 17.3014C65.0571 17.3014 65.6802 17.1609 66.1994 16.9562C66.737 16.7363 67.1921 16.3881 67.6136 15.9667C67.8518 15.7254 68.0717 15.3986 68.2886 15.0595L68.2244 15.0198V15.0962H68.6398V15.0198L68.5726 14.9832C68.3283 15.4383 68.0228 15.8353 67.7693 16.0919C67.3417 16.5195 66.8225 16.9135 66.2972 17.1395C65.781 17.3655 65.1121 17.5335 64.4921 17.5335C63.8568 17.5335 63.2185 17.3655 62.7023 17.1395C62.1739 16.9135 61.6394 16.5164 61.2301 16.1072C60.8056 15.6826 60.4421 15.1359 60.2283 14.577C60.0145 14.0455 59.8618 13.343 59.8618 12.7077C59.8618 12.0541 59.9993 11.4158 60.2283 10.8385C60.4391 10.3101 60.8056 9.76038 61.2454 9.32056C61.6547 8.89296 62.1739 8.49896 62.7023 8.27295C63.2337 8.04388 63.8415 7.89422 64.4921 7.89422C65.161 7.89422 65.7505 8.03166 66.2972 8.27295C66.8256 8.49896 67.3265 8.87769 67.7693 9.33583C67.9343 9.50077 67.977 9.57407 68.1511 9.7787L68.1725 9.80619H68.2397H68.316V8.58754H68.5329V10.3651H68.255V10.4415L68.3191 10.4018C68.1022 10.0597 67.8701 9.71762 67.6166 9.44884C67.2226 9.03957 66.737 8.72498 66.2025 8.4898C65.668 8.25462 65.0877 8.1294 64.489 8.1294C63.8904 8.1294 63.3254 8.25462 62.7756 8.4898C62.2258 8.72498 61.7555 9.05484 61.3767 9.44884C60.9675 9.87338 60.6559 10.359 60.4208 10.9393C60.2008 11.4738 60.0909 12.0999 60.0909 12.7108C60.0909 13.3522 60.2008 13.9478 60.4208 14.4976L60.4941 14.4609L60.5643 14.4334C60.3536 13.902 60.2467 13.3278 60.2467 12.7016C60.2467 12.1091 60.3536 11.5013 60.5643 10.9882C60.7934 10.4262 61.0957 9.95585 61.4897 9.54658C61.8532 9.16785 62.3083 8.8502 62.8367 8.62113C63.3681 8.39206 63.9118 8.27295 64.489 8.27295C65.0632 8.27295 65.6252 8.39512 66.1414 8.62113C66.6576 8.8502 67.1279 9.15257 67.5067 9.54658L67.5616 9.49465L67.5067 9.54658C67.7479 9.80313 67.977 10.1391 68.1908 10.4751L68.2122 10.5117H68.6093H68.6856V8.43177H68.1633V9.72678H68.2397V9.65042H68.2091V9.72678L68.2672 9.67791C68.0992 9.47938 68.0503 9.39997 67.8762 9.22588L67.8213 9.28086L67.8762 9.22893C67.4242 8.76163 66.908 8.36763 66.3552 8.13245L66.3247 8.2027L66.3552 8.13245C65.7902 7.882 65.1763 7.73845 64.489 7.7415C63.814 7.7415 63.1849 7.89727 62.6382 8.13245C62.0853 8.37068 61.5539 8.7769 61.1324 9.21366L61.1874 9.26558L61.1324 9.21061C60.6773 9.66569 60.3016 10.2277 60.0817 10.7805C59.8465 11.3761 59.7061 12.0328 59.7061 12.7077C59.7061 13.3675 59.8618 14.0852 60.0817 14.635L60.152 14.6075L60.0817 14.635C60.3016 15.2184 60.6773 15.7803 61.1171 16.2202C61.5386 16.6416 62.0853 17.0479 62.6382 17.2861L62.6687 17.2158L62.6382 17.2861C63.1727 17.5213 63.8293 17.6923 64.489 17.6923C65.1365 17.6923 65.8207 17.5213 66.3552 17.2861L66.3247 17.2158L66.3552 17.2861C66.908 17.0479 67.4395 16.6416 67.8762 16.2049C68.145 15.9361 68.4565 15.5299 68.707 15.0595L68.7681 14.9465H68.1817L68.1603 14.9832C67.9465 15.3222 67.7296 15.6429 67.5067 15.8659C67.0943 16.2782 66.6545 16.6111 66.1414 16.8218L66.1719 16.8921L66.1445 16.8218C65.6436 17.0204 65.0327 17.1548 64.489 17.1548C63.9454 17.1548 63.3345 17.0326 62.8367 16.8218C62.3083 16.6111 61.8563 16.2629 61.4897 15.8689C61.108 15.4566 60.7903 14.9862 60.5613 14.4395L60.4941 14.4609L60.5643 14.4334L60.4941 14.4609Z" fill="white"/>
<path d="M60.4941 14.4609L60.4238 14.4914C60.659 15.0565 60.9888 15.5421 61.3798 15.9636C61.7555 16.3729 62.2289 16.7333 62.7817 16.9562L62.8092 16.886L62.7787 16.9562C63.2979 17.1761 63.924 17.3014 64.489 17.3014C65.0571 17.3014 65.6802 17.1609 66.1994 16.9562C66.737 16.7363 67.1921 16.3881 67.6136 15.9667C67.8518 15.7254 68.0717 15.3986 68.2886 15.0595L68.2244 15.0198V15.0962H68.6398V15.0198L68.5726 14.9832C68.3283 15.4383 68.0228 15.8353 67.7693 16.0919C67.3417 16.5195 66.8225 16.9135 66.2972 17.1395C65.781 17.3655 65.1121 17.5335 64.4921 17.5335C63.8568 17.5335 63.2185 17.3655 62.7023 17.1395C62.1739 16.9135 61.6394 16.5164 61.2301 16.1072C60.8056 15.6826 60.4421 15.1359 60.2283 14.577C60.0145 14.0455 59.8618 13.343 59.8618 12.7077C59.8618 12.0541 59.9993 11.4158 60.2283 10.8385C60.4391 10.3101 60.8056 9.76038 61.2454 9.32056C61.6547 8.89296 62.1739 8.49896 62.7023 8.27295C63.2337 8.04388 63.8415 7.89422 64.4921 7.89422C65.161 7.89422 65.7505 8.03166 66.2972 8.27295C66.8256 8.49896 67.3265 8.87769 67.7693 9.33583C67.9343 9.50077 67.977 9.57407 68.1511 9.7787L68.1725 9.80619H68.2397H68.316V8.58754H68.5329V10.3651H68.255V10.4415L68.3191 10.4018C68.1022 10.0597 67.8701 9.71762 67.6166 9.44884C67.2226 9.03957 66.737 8.72498 66.2025 8.4898C65.668 8.25462 65.0877 8.1294 64.489 8.1294C63.8904 8.1294 63.3254 8.25462 62.7756 8.4898C62.2258 8.72498 61.7555 9.05484 61.3767 9.44884C60.9675 9.87338 60.6559 10.359 60.4208 10.9393C60.2008 11.4738 60.0909 12.0999 60.0909 12.7108C60.0909 13.3522 60.2008 13.9478 60.4208 14.4975L60.4941 14.4609ZM60.4941 14.4609L60.5643 14.4334C60.3536 13.902 60.2467 13.3278 60.2467 12.7016C60.2467 12.1091 60.3536 11.5013 60.5643 10.9882C60.7934 10.4262 61.0957 9.95585 61.4897 9.54658C61.8532 9.16785 62.3083 8.8502 62.8367 8.62113C63.3681 8.39206 63.9118 8.27295 64.489 8.27295C65.0632 8.27295 65.6252 8.39512 66.1414 8.62113C66.6576 8.8502 67.1279 9.15257 67.5067 9.54658L67.5616 9.49465L67.5067 9.54658C67.7479 9.80313 67.977 10.1391 68.1908 10.4751L68.2122 10.5117H68.6093H68.6856V8.43177H68.1633V9.72678H68.2397V9.65042H68.2091V9.72678L68.2672 9.67791C68.0992 9.47938 68.0503 9.39997 67.8762 9.22588L67.8213 9.28086L67.8762 9.22893C67.4242 8.76163 66.908 8.36763 66.3552 8.13245L66.3247 8.2027L66.3552 8.13245C65.7902 7.882 65.1763 7.73845 64.489 7.7415C63.814 7.7415 63.1849 7.89727 62.6382 8.13245C62.0853 8.37068 61.5539 8.7769 61.1324 9.21366L61.1874 9.26558L61.1324 9.21061C60.6773 9.66569 60.3016 10.2277 60.0817 10.7805C59.8465 11.3761 59.7061 12.0328 59.7061 12.7077C59.7061 13.3675 59.8618 14.0852 60.0817 14.635L60.152 14.6075L60.0817 14.635C60.3016 15.2184 60.6773 15.7803 61.1171 16.2202C61.5386 16.6416 62.0853 17.0479 62.6382 17.2861L62.6687 17.2158L62.6382 17.2861C63.1727 17.5213 63.8293 17.6923 64.489 17.6923C65.1365 17.6923 65.8207 17.5213 66.3552 17.2861L66.3247 17.2158L66.3552 17.2861C66.908 17.0479 67.4395 16.6416 67.8762 16.2049C68.145 15.9361 68.4565 15.5299 68.707 15.0595L68.7681 14.9465H68.1817L68.1603 14.9832C67.9465 15.3222 67.7296 15.6429 67.5067 15.8659C67.0943 16.2782 66.6545 16.6111 66.1414 16.8218L66.1719 16.8921L66.1445 16.8218C65.6436 17.0204 65.0327 17.1548 64.489 17.1548C63.9454 17.1548 63.3345 17.0326 62.8367 16.8218C62.3083 16.6111 61.8563 16.2629 61.4897 15.8689C61.108 15.4566 60.7903 14.9862 60.5613 14.4395L60.4941 14.4609ZM60.4941 14.4609L60.5643 14.4334L60.4941 14.4609Z" stroke="white" stroke-miterlimit="10"/>
<path d="M77.6989 17.0049V17.0812H78.9847L78.942 16.9743C78.5724 16.0794 78.1998 15.1845 77.8302 14.2896L77.8119 14.2438H72.8487L72.8304 14.2927C72.4608 15.2151 72.076 16.0489 71.6728 16.9743L71.627 17.0812H72.7784V17.2981H70.7076V17.0812H71.3765L71.3949 17.0354C72.6135 14.1491 73.8169 11.3422 75.0508 8.45596L75.0966 8.34906H73.9788V8.13221H75.5181L79.2229 17.0812H79.8613V17.2981H77.7752V17.0049H77.6989V17.0812V17.0049H77.6225V17.3744V17.4508H80.014V16.9285H79.3268L75.622 7.97949H73.8291V8.50177H74.9867V8.42542L74.9164 8.39487C73.6825 11.2812 72.4791 14.088 71.2605 16.9743L71.3307 17.0049V16.9285H70.561V17.4508H72.9373V16.9285H71.7491V17.0049L71.8194 17.0354C72.2195 16.11 72.6074 15.2761 72.977 14.3476L72.9067 14.3202V14.3965H77.7691V14.3202L77.6989 14.3507C78.0684 15.2456 78.438 16.1405 78.8106 17.0354L78.8809 17.0049V16.9285H77.6317V17.0049H77.6989ZM77.6042 13.9659L77.6744 13.9353C76.9017 12.0844 76.2084 10.4015 75.4204 8.55064L75.4021 8.50483H75.3196H75.2677L75.2493 8.55064C74.4766 10.371 73.7375 12.115 72.9647 13.9353L72.9189 14.0422H77.7172L77.6744 13.9353L77.6042 13.9659V13.8895H73.038V13.9659L73.1083 13.9964C73.881 12.1761 74.6202 10.4321 75.3929 8.61173L75.3226 8.58118V8.65754H75.3532V8.58118L75.2829 8.61173C76.0709 10.4626 76.7643 12.1455 77.537 13.9964L77.6042 13.9659V13.8895V13.9659Z" fill="white"/>
<path d="M77.6989 17.0049V17.0812H78.9847L78.942 16.9743C78.5724 16.0794 78.1998 15.1845 77.8302 14.2896L77.8119 14.2438H72.8487L72.8304 14.2927C72.4608 15.2151 72.076 16.0489 71.6728 16.9743L71.627 17.0812H72.7784V17.2981H70.7076V17.0812H71.3765L71.3949 17.0354C72.6135 14.1491 73.8169 11.3422 75.0508 8.45596L75.0966 8.34906H73.9788V8.13221H75.5181L79.2229 17.0812H79.8613V17.2981H77.7752V17.0049H77.6989ZM77.6989 17.0049V17.0812V17.0049ZM77.6989 17.0049H77.6225V17.3744V17.4508H80.014V16.9285H79.3268L75.622 7.97949H73.8291V8.50177H74.9867V8.42542L74.9164 8.39487C73.6825 11.2812 72.4791 14.088 71.2605 16.9743L71.3307 17.0049V16.9285H70.561V17.4508H72.9373V16.9285H71.7491V17.0049L71.8194 17.0354C72.2195 16.11 72.6074 15.2761 72.977 14.3476L72.9067 14.3202V14.3965H77.7691V14.3202L77.6989 14.3507C78.0684 15.2456 78.438 16.1405 78.8106 17.0354L78.8809 17.0049V16.9285H77.6317V17.0049H77.6989V17.0049ZM77.6042 13.9659L77.6744 13.9353C76.9017 12.0844 76.2084 10.4015 75.4204 8.55064L75.4021 8.50483H75.3196H75.2677L75.2493 8.55064C74.4766 10.371 73.7375 12.115 72.9647 13.9353L72.9189 14.0422H77.7172L77.6744 13.9353L77.6042 13.9659ZM77.6042 13.9659V13.8895H73.038V13.9659L73.1083 13.9964C73.881 12.1761 74.6202 10.4321 75.3929 8.61173L75.3226 8.58118V8.65754H75.3532V8.58118L75.2829 8.61173C76.0709 10.4626 76.7643 12.1455 77.537 13.9964L77.6042 13.9659ZM77.6042 13.9659V13.8895V13.9659Z" stroke="white" stroke-miterlimit="10"/>
<path d="M82.0177 8.05585V8.13221H86.4769C87.1305 8.13221 87.6895 8.25438 88.1568 8.46512C88.6088 8.6606 89.0639 8.99351 89.3785 9.35697C89.7236 9.74486 89.9832 10.2946 90.1665 10.8444C90.362 11.4186 90.4261 12.0447 90.4261 12.7014C90.4261 13.3703 90.3039 14.0605 90.1207 14.5889L90.194 14.6134L90.1207 14.5889C89.9252 15.1357 89.6045 15.6518 89.241 16.0458C88.8623 16.4551 88.4103 16.7727 87.8971 16.9682C87.3626 17.1667 86.7701 17.3042 86.086 17.3042H82.0482V17.0721H83.328V8.37044H82.094V8.06196H82.0177V8.13832V8.05585H81.9413V8.44069V8.51704H83.1752V16.9132H81.8955V17.4508H86.0921C86.7976 17.4508 87.4085 17.3103 87.9552 17.1057C88.4927 16.901 88.9631 16.5681 89.3571 16.1436C89.7358 15.7343 90.0626 15.2028 90.2673 14.6378C90.4566 14.088 90.5788 13.3886 90.5788 12.6983C90.5788 12.0295 90.5177 11.3881 90.3131 10.7925C90.1268 10.2305 89.861 9.66851 89.4945 9.25312C89.1616 8.8744 88.6913 8.52926 88.2179 8.32463L88.1873 8.39487L88.2179 8.32463C87.7292 8.10472 87.1458 7.97949 86.4739 7.97949H81.9383V8.05585H82.0177ZM83.6212 16.9896V17.0659H86.089C86.7304 17.0659 87.2955 16.9713 87.7994 16.7666C88.2881 16.562 88.7401 16.2657 89.0883 15.9175C89.4548 15.551 89.7206 15.0623 89.9252 14.5004C90.1146 13.9659 90.2062 13.355 90.2062 12.7014C90.2062 12.0905 90.1115 11.4522 89.9557 10.9055L89.8824 10.9269L89.9557 10.9085C89.8275 10.4137 89.5159 9.83954 89.2166 9.47609C88.9448 9.15539 88.5202 8.85912 88.0774 8.66976C87.6192 8.48039 87.0847 8.37044 86.4739 8.37044H83.5418V17.0721H83.6181V16.9896H83.6945V8.51704H86.4739C87.0664 8.51704 87.5795 8.62394 88.0193 8.80415L88.0499 8.7339L88.0193 8.80415C88.4408 8.98435 88.8501 9.2745 89.1005 9.57077L89.1586 9.5219L89.1005 9.57077C89.3846 9.9159 89.6931 10.4809 89.8122 10.9452V10.9482C89.9649 11.4797 90.0565 12.1089 90.0565 12.7014C90.0565 13.3428 89.9649 13.9353 89.7816 14.4515C89.5831 15.0013 89.3266 15.4686 88.9814 15.8106C88.6485 16.1405 88.2087 16.4307 87.7414 16.6261L87.7719 16.6964L87.7444 16.6261C87.2619 16.8216 86.7152 16.9132 86.0921 16.9132H83.6242V16.9896H83.7006H83.6212Z" fill="white"/>
<path d="M82.0177 8.05585V8.13221H86.4769C87.1305 8.13221 87.6895 8.25438 88.1568 8.46512C88.6088 8.6606 89.0639 8.99351 89.3785 9.35697C89.7236 9.74486 89.9832 10.2946 90.1665 10.8444C90.362 11.4186 90.4261 12.0447 90.4261 12.7014C90.4261 13.3703 90.3039 14.0605 90.1207 14.5889L90.194 14.6134L90.1207 14.5889C89.9252 15.1356 89.6045 15.6518 89.241 16.0458C88.8623 16.4551 88.4103 16.7727 87.8971 16.9682C87.3627 17.1667 86.7701 17.3042 86.086 17.3042H82.0482V17.0721H83.328V8.37044H82.094V8.06196H82.0177V8.13832V8.05585ZM82.0177 8.05585H81.9413V8.44069V8.51704H83.1752V16.9132H81.8955V17.4508H86.0921C86.7976 17.4508 87.4085 17.3103 87.9552 17.1057C88.4927 16.901 88.9631 16.5681 89.3571 16.1436C89.7358 15.7343 90.0626 15.2028 90.2673 14.6378C90.4566 14.088 90.5788 13.3886 90.5788 12.6983C90.5788 12.0295 90.5177 11.3881 90.3131 10.7925C90.1268 10.2305 89.861 9.66851 89.4945 9.25312C89.1616 8.8744 88.6913 8.52926 88.2179 8.32463L88.1873 8.39487L88.2179 8.32463C87.7292 8.10472 87.1458 7.97949 86.4739 7.97949H81.9383V8.05585H82.0177ZM83.6212 16.9896V17.0659H86.089C86.7304 17.0659 87.2955 16.9713 87.7994 16.7666C88.2881 16.562 88.7401 16.2657 89.0883 15.9175C89.4548 15.551 89.7206 15.0623 89.9252 14.5004C90.1146 13.9659 90.2062 13.355 90.2062 12.7014C90.2062 12.0905 90.1115 11.4522 89.9557 10.9055L89.8824 10.9269L89.9557 10.9085C89.8275 10.4137 89.5159 9.83954 89.2166 9.47609C88.9448 9.15539 88.5202 8.85912 88.0774 8.66976C87.6192 8.48039 87.0847 8.37044 86.4739 8.37044H83.5418V17.0721H83.6181V16.9896H83.6945V8.51704H86.4739C87.0664 8.51704 87.5795 8.62394 88.0193 8.80415L88.0499 8.7339L88.0193 8.80415C88.4408 8.98435 88.8501 9.2745 89.1005 9.57077L89.1586 9.5219L89.1005 9.57077C89.3846 9.9159 89.6931 10.4809 89.8122 10.9452V10.9482C89.9649 11.4797 90.0565 12.1089 90.0565 12.7014C90.0565 13.3428 89.9649 13.9353 89.7816 14.4515C89.5831 15.0013 89.3266 15.4686 88.9814 15.8106C88.6485 16.1405 88.2087 16.4307 87.7414 16.6261L87.7719 16.6964L87.7444 16.6261C87.2619 16.8216 86.7152 16.9132 86.0921 16.9132H83.6242V16.9896H83.7006H83.6212Z" stroke="white" stroke-miterlimit="10"/>
<path d="M99.9611 8.1963L99.9306 8.26655C100.477 8.50784 100.978 8.87435 101.421 9.31416C101.846 9.73871 102.163 10.2671 102.392 10.8321C102.634 11.4094 102.756 12.0477 102.756 12.7013C102.756 13.3366 102.603 14.0391 102.389 14.5706L102.46 14.5981L102.389 14.5675C102.16 15.1142 101.824 15.664 101.418 16.0855C100.993 16.5253 100.474 16.9071 99.9306 17.1331C99.4144 17.3591 98.7455 17.5271 98.1255 17.5271C97.4902 17.5271 96.8672 17.3591 96.3357 17.1331C95.8073 16.9071 95.2728 16.51 94.8636 16.1008C94.439 15.6762 94.0908 15.1295 93.8617 14.5675C93.651 14.0361 93.4983 13.3336 93.4983 12.6983C93.4983 12.0447 93.6205 11.4063 93.8617 10.8291C94.0725 10.3007 94.439 9.75093 94.8788 9.31111C95.2881 8.88351 95.8073 8.48951 96.3357 8.26349L96.3052 8.19325L96.3357 8.26349C96.8855 8.03442 97.475 7.88477 98.1286 7.88477C98.7944 7.88477 99.3869 8.03748 99.9367 8.26349L99.9611 8.1963L99.9306 8.26655L99.9611 8.1963L99.9917 8.12605C99.4297 7.89087 98.8158 7.73511 98.1255 7.73511C97.4505 7.73511 96.8366 7.89393 96.2746 8.12605C95.7218 8.36429 95.1904 8.7705 94.7689 9.20726L94.8239 9.25919L94.7689 9.20421C94.3138 9.6593 93.9381 10.2213 93.7182 10.7741L93.7885 10.8016L93.7182 10.7711C93.4677 11.3666 93.3425 12.0264 93.3425 12.6983C93.3425 13.358 93.4983 14.0758 93.7182 14.6255C93.9534 15.2059 94.3138 15.7678 94.7536 16.2107C95.1751 16.6322 95.7218 17.0384 96.2746 17.2767C96.8213 17.5118 97.4627 17.6829 98.1255 17.6829C98.773 17.6829 99.4572 17.5118 99.9917 17.2767L99.9611 17.2064L99.9917 17.2767C100.56 17.0415 101.091 16.6475 101.528 16.1954C101.953 15.7556 102.298 15.1906 102.53 14.6286V14.6255C102.75 14.0758 102.905 13.358 102.905 12.6983C102.905 12.0264 102.78 11.3666 102.53 10.7711L102.46 10.8016L102.53 10.7741C102.295 10.1968 101.968 9.64708 101.525 9.20421C101.073 8.75218 100.557 8.3765 99.9886 8.123L99.9611 8.1963ZM99.8054 8.5506L99.8359 8.48035C99.3014 8.24517 98.7364 8.11995 98.1225 8.11995C97.5238 8.11995 96.9588 8.24517 96.409 8.48035C95.8745 8.71553 95.3889 9.04539 95.0102 9.43939C94.6009 9.86393 94.2893 10.3496 94.0542 10.9299C93.8343 11.4644 93.7243 12.0905 93.7243 12.7013C93.7243 13.3427 93.8495 13.9414 94.0694 14.4881C94.3046 15.0531 94.6345 15.5388 95.0254 15.9603C95.4011 16.3695 95.8745 16.7299 96.409 16.9498L96.4396 16.8796L96.409 16.9498C96.9282 17.1697 97.5544 17.295 98.1194 17.295C98.7028 17.295 99.3136 17.1545 99.8298 16.9498C100.367 16.7299 100.822 16.3817 101.244 15.9603C101.623 15.5663 101.949 15.0654 102.185 14.485L102.114 14.4576L102.185 14.4881C102.42 13.9383 102.53 13.3397 102.53 12.6983C102.53 12.0874 102.42 11.4613 102.185 10.9238L102.114 10.9543L102.185 10.9238C101.949 10.3618 101.638 9.84561 101.244 9.43328C100.85 9.02401 100.364 8.70942 99.8298 8.47424L99.8054 8.5506L99.7748 8.62085C100.291 8.84992 100.761 9.15229 101.14 9.54629C101.519 9.94029 101.821 10.4412 102.05 10.9879V10.991C102.276 11.5041 102.383 12.1119 102.383 12.7044C102.383 13.3275 102.276 13.9047 102.05 14.4331C101.821 14.9951 101.504 15.4807 101.14 15.8595L101.195 15.9114L101.14 15.8564C100.728 16.2687 100.288 16.6017 99.7748 16.8124L99.8054 16.8826L99.7779 16.8124C99.277 17.0109 98.6814 17.1453 98.1225 17.1453C97.5788 17.1453 96.9679 17.0231 96.4701 16.8124C95.957 16.6017 95.5019 16.2535 95.1384 15.8595C94.7567 15.4471 94.439 14.9768 94.213 14.4301L94.1427 14.4606L94.213 14.4331C93.9992 13.9017 93.8801 13.3244 93.8801 12.7013C93.8801 12.1088 93.987 11.501 94.1977 10.9879C94.4268 10.4259 94.7292 9.95556 95.1232 9.54629C95.4866 9.16756 95.957 8.84992 96.4732 8.62085L96.4426 8.5506L96.4732 8.62085C97.0046 8.39178 97.5483 8.27266 98.1255 8.27266C98.718 8.27266 99.2617 8.39483 99.7779 8.62085L99.8054 8.5506Z" fill="white"/>
<path d="M99.9611 8.1963L99.9306 8.26655C100.477 8.50784 100.978 8.87435 101.421 9.31416C101.846 9.73871 102.163 10.2671 102.392 10.8321C102.634 11.4094 102.756 12.0477 102.756 12.7013C102.756 13.3366 102.603 14.0391 102.389 14.5706L102.46 14.5981L102.389 14.5675C102.16 15.1142 101.824 15.664 101.418 16.0855C100.993 16.5253 100.474 16.9071 99.9306 17.1331C99.4144 17.3591 98.7455 17.5271 98.1255 17.5271C97.4902 17.5271 96.8672 17.3591 96.3357 17.1331C95.8073 16.9071 95.2728 16.51 94.8636 16.1008C94.439 15.6762 94.0908 15.1295 93.8617 14.5675C93.651 14.0361 93.4983 13.3336 93.4983 12.6983C93.4983 12.0447 93.6205 11.4063 93.8617 10.8291C94.0725 10.3007 94.439 9.75093 94.8788 9.31111C95.2881 8.88351 95.8073 8.48951 96.3357 8.26349L96.3052 8.19325L96.3357 8.26349C96.8855 8.03442 97.475 7.88477 98.1286 7.88477C98.7944 7.88477 99.3869 8.03748 99.9367 8.26349L99.9611 8.1963ZM99.9611 8.1963L99.9306 8.26655L99.9611 8.1963ZM99.9611 8.1963L99.9917 8.12605C99.4297 7.89087 98.8158 7.73511 98.1255 7.73511C97.4505 7.73511 96.8366 7.89393 96.2746 8.12605C95.7218 8.36429 95.1904 8.7705 94.7689 9.20726L94.8239 9.25919L94.7689 9.20421C94.3138 9.6593 93.9381 10.2213 93.7182 10.7741L93.7885 10.8016L93.7182 10.7711C93.4677 11.3666 93.3425 12.0264 93.3425 12.6983C93.3425 13.358 93.4983 14.0758 93.7182 14.6255C93.9534 15.2059 94.3138 15.7678 94.7536 16.2107C95.1751 16.6322 95.7218 17.0384 96.2746 17.2766C96.8213 17.5118 97.4627 17.6829 98.1255 17.6829C98.773 17.6829 99.4572 17.5118 99.9917 17.2766L99.9611 17.2064L99.9917 17.2766C100.56 17.0415 101.091 16.6475 101.528 16.1954C101.953 15.7556 102.298 15.1906 102.53 14.6286V14.6255C102.75 14.0758 102.905 13.358 102.905 12.6983C102.905 12.0264 102.78 11.3666 102.53 10.7711L102.46 10.8016L102.53 10.7741C102.295 10.1968 101.968 9.64708 101.525 9.20421C101.073 8.75218 100.557 8.3765 99.9886 8.123L99.9611 8.1963ZM99.8054 8.5506L99.8359 8.48035C99.3014 8.24517 98.7364 8.11995 98.1225 8.11995C97.5238 8.11995 96.9588 8.24517 96.409 8.48035C95.8745 8.71553 95.3889 9.04539 95.0102 9.43939C94.6009 9.86393 94.2893 10.3496 94.0542 10.9299C93.8343 11.4644 93.7243 12.0905 93.7243 12.7013C93.7243 13.3427 93.8495 13.9414 94.0694 14.4881C94.3046 15.0531 94.6345 15.5388 95.0254 15.9603C95.4011 16.3695 95.8745 16.7299 96.409 16.9498L96.4396 16.8796L96.409 16.9498C96.9282 17.1697 97.5544 17.295 98.1194 17.295C98.7028 17.295 99.3136 17.1545 99.8298 16.9498C100.367 16.7299 100.822 16.3817 101.244 15.9603C101.623 15.5663 101.949 15.0654 102.185 14.485L102.114 14.4576L102.185 14.4881C102.42 13.9383 102.53 13.3397 102.53 12.6983C102.53 12.0874 102.42 11.4613 102.185 10.9238L102.114 10.9543L102.185 10.9238C101.949 10.3618 101.638 9.84561 101.244 9.43328C100.85 9.02401 100.364 8.70942 99.8298 8.47424L99.8054 8.5506ZM99.8054 8.5506L99.7748 8.62085C100.291 8.84992 100.761 9.15229 101.14 9.54629C101.519 9.94029 101.821 10.4412 102.05 10.9879V10.991C102.276 11.5041 102.383 12.1119 102.383 12.7044C102.383 13.3275 102.276 13.9047 102.05 14.4331C101.821 14.9951 101.504 15.4807 101.14 15.8595L101.195 15.9114L101.14 15.8564C100.728 16.2687 100.288 16.6017 99.7748 16.8124L99.8054 16.8826L99.7779 16.8124C99.277 17.0109 98.6814 17.1453 98.1225 17.1453C97.5788 17.1453 96.9679 17.0231 96.4701 16.8124C95.957 16.6017 95.5019 16.2535 95.1384 15.8595C94.7567 15.4471 94.439 14.9768 94.213 14.4301L94.1427 14.4606L94.213 14.4331C93.9992 13.9017 93.8801 13.3244 93.8801 12.7013C93.8801 12.1088 93.987 11.501 94.1977 10.9879C94.4268 10.4259 94.7292 9.95556 95.1232 9.54629C95.4866 9.16756 95.957 8.84992 96.4732 8.62085L96.4426 8.5506L96.4732 8.62085C97.0046 8.39178 97.5483 8.27266 98.1255 8.27266C98.718 8.27266 99.2617 8.39483 99.7779 8.62085L99.8054 8.5506Z" stroke="white" stroke-miterlimit="10"/>
<path d="M147.489 17.1364C149.982 17.1364 151.997 15.1207 151.989 12.6364C151.98 10.152 149.982 8.13636 147.489 8.13636C145.013 8.13636 142.997 10.152 142.989 12.6364C142.98 15.1207 145.013 17.1364 147.489 17.1364ZM147.489 16.0028C145.631 16.0028 144.114 14.4901 144.122 12.6406C144.126 10.7827 145.639 9.26989 147.489 9.26989C149.351 9.26989 150.851 10.7741 150.855 12.6406C150.864 14.4986 149.355 16.0028 147.489 16.0028ZM145.038 12.6364C145.038 14.0085 146.155 15.125 147.527 15.125C148.724 15.125 149.658 14.277 149.807 13.1562H148.699C148.588 13.6847 148.128 14.0597 147.527 14.0597C146.743 14.0597 146.104 13.4205 146.104 12.6364C146.104 11.848 146.743 11.2131 147.527 11.2131C148.128 11.2131 148.661 11.5881 148.767 12.1165H149.875C149.726 10.9957 148.724 10.1477 147.527 10.1477C146.155 10.1477 145.038 11.2642 145.038 12.6364ZM156.996 17H162.74V15.8707H158.811V15.8068L160.545 13.9915C162.143 12.3764 162.599 11.6051 162.599 10.6293C162.599 9.22727 161.457 8.15341 159.812 8.15341C158.18 8.15341 156.987 9.21023 156.987 10.804H158.244C158.24 9.86648 158.845 9.25284 159.787 9.25284C160.673 9.25284 161.347 9.7983 161.347 10.6676C161.347 11.4389 160.886 11.9929 159.949 12.9858L156.996 16.0455V17ZM167.393 17.1449C169.409 17.1449 170.589 15.5 170.589 12.6406C170.589 9.80256 169.392 8.15341 167.393 8.15341C165.391 8.15341 164.197 9.7983 164.193 12.6406C164.193 15.4957 165.374 17.1406 167.393 17.1449ZM167.393 16.0071C166.213 16.0071 165.501 14.8224 165.501 12.6406C165.506 10.4673 166.217 9.26989 167.393 9.26989C168.565 9.26989 169.281 10.4673 169.281 12.6406C169.281 14.8224 168.57 16.0071 167.393 16.0071ZM172.101 17H177.846V15.8707H173.917V15.8068L175.651 13.9915C177.249 12.3764 177.705 11.6051 177.705 10.6293C177.705 9.22727 176.563 8.15341 174.918 8.15341C173.286 8.15341 172.093 9.21023 172.093 10.804H173.35C173.346 9.86648 173.951 9.25284 174.892 9.25284C175.779 9.25284 176.452 9.7983 176.452 10.6676C176.452 11.4389 175.992 11.9929 175.054 12.9858L172.101 16.0455V17ZM182.772 8.27273H181.489L179.311 9.69602V10.9574L181.4 9.59375H181.451V17H182.772V8.27273Z" fill="white"/>
</svg>
