<svg width="218" height="32" viewBox="0 0 218 32" fill="none" xmlns="http://www.w3.org/2000/svg">
<path d="M180.318 28.9811C180.318 27.9489 181.116 27.1721 182.133 27.1721C183.165 27.1721 183.947 27.9489 183.947 28.9811C183.947 29.9973 183.165 30.7901 182.133 30.7901C181.116 30.7901 180.318 29.9973 180.318 28.9811Z" fill="#C0CE44"/>
<path d="M216.892 22.0163C216.892 27.289 213.806 30.5718 208.901 30.5718C203.984 30.5718 200.909 27.289 200.909 22.0163C200.909 16.7436 203.984 13.4502 208.901 13.4502C213.806 13.4502 216.892 16.7436 216.892 22.0163ZM203.623 22.0163C203.623 25.8737 205.666 28.3105 208.906 28.3105C212.146 28.3105 214.179 25.8737 214.179 22.0163C214.179 18.1483 212.146 15.7114 208.906 15.7114C205.666 15.7114 203.623 18.1429 203.623 22.0163Z" fill="#C0CE44"/>
<path d="M216.892 22.0164H216.775C216.775 24.6288 216.009 26.7358 214.652 28.1883C213.29 29.6408 211.332 30.4495 208.906 30.4495C206.474 30.4495 204.511 29.6408 203.154 28.1883C201.798 26.7358 201.037 24.6288 201.037 22.0164C201.037 19.404 201.798 17.2918 203.154 15.8392C204.511 14.3814 206.474 13.5727 208.906 13.5727C211.332 13.5727 213.295 14.3867 214.652 15.8446C216.014 17.3024 216.775 19.4093 216.775 22.0217H216.892H217.009C217.009 19.3615 216.232 17.1907 214.822 15.6796C213.412 14.1686 211.38 13.3333 208.901 13.3333C206.416 13.3333 204.383 14.1686 202.979 15.6796C201.574 17.1907 200.797 19.3615 200.797 22.0217C200.797 24.682 201.574 26.8528 202.979 28.3585C204.383 29.8643 206.421 30.6996 208.901 30.6943C211.38 30.6943 213.412 29.8643 214.822 28.3585C216.232 26.8528 217.009 24.682 217.009 22.0217H216.892V22.0164ZM203.623 22.0164H203.506C203.506 23.9637 204.022 25.5652 204.958 26.6879C205.894 27.8052 207.257 28.433 208.906 28.4277C210.555 28.4277 211.912 27.8052 212.848 26.6879C213.785 25.5706 214.296 23.9691 214.296 22.0164C214.296 20.0638 213.785 18.457 212.848 17.3396C211.912 16.2223 210.555 15.5945 208.906 15.5945C207.257 15.5945 205.9 16.217 204.958 17.3396C204.022 18.457 203.506 20.0638 203.506 22.0164H203.623H203.74C203.74 20.101 204.245 18.5527 205.139 17.4886C206.033 16.4245 207.315 15.8286 208.906 15.8286C210.497 15.8286 211.774 16.4245 212.668 17.4886C213.556 18.5527 214.062 20.101 214.062 22.0164C214.062 23.9265 213.556 25.4695 212.668 26.5336C211.774 27.5977 210.497 28.1883 208.906 28.1936C207.315 28.1936 206.033 27.5977 205.139 26.5336C204.245 25.4695 203.74 23.9265 203.74 22.0164H203.623Z" fill="#C0CE44"/>
<path d="M193.923 2.35169C196.009 2.35169 197.52 3.84677 197.52 5.91115C197.52 7.97553 196.009 9.47061 193.923 9.47061C191.752 9.47061 189.986 7.87444 189.986 5.91115C189.986 3.94786 191.752 2.35169 193.923 2.35169ZM197.52 15.568V27.7734L195.008 26.5709L194.04 26.108L193.056 26.5337L189.986 27.8638V15.568H197.52ZM193.923 0C190.449 0 187.634 2.64432 187.634 5.91115C187.634 9.17798 190.449 11.8223 193.923 11.8223C197.397 11.8223 199.871 9.17798 199.871 5.91115C199.871 2.64432 197.397 0 193.923 0ZM198.456 13.211H189.049C188.267 13.211 187.634 13.6898 187.634 14.2804V29.7633C187.634 30.3538 188.267 30.8327 189.049 30.8327L193.992 28.6938L198.456 30.8327C199.238 30.8327 199.871 30.3538 199.871 29.7633V14.2804C199.871 13.6898 199.238 13.211 198.456 13.211Z" fill="#C0CE44"/>
<path d="M2.37212 24.9589C2.77648 25.9272 3.34046 26.7626 4.01085 27.4862C4.65464 28.1832 5.46337 28.8057 6.40511 29.1781C7.29364 29.5559 8.3684 29.7687 9.33674 29.7687C10.3051 29.7687 11.3798 29.5293 12.2684 29.1781C13.1835 28.8003 13.9603 28.2098 14.6892 27.4862C15.0936 27.0818 15.4714 26.5178 15.8438 25.9272H16.5674C16.1364 26.736 15.599 27.433 15.1415 27.8905C14.386 28.6461 13.4761 29.3431 12.5344 29.7474C11.6193 30.1518 10.4381 30.4444 9.33674 30.4444C8.20878 30.4444 7.08082 30.1465 6.16568 29.7474C5.22394 29.3431 4.2822 28.6461 3.5586 27.9171C2.8084 27.1669 2.15929 26.1986 1.78686 25.2036C1.40909 24.2619 1.14307 23.0275 1.14307 21.8996C1.14307 20.745 1.38781 19.6171 1.78686 18.5955C2.16462 17.6538 2.8084 16.6854 3.58521 15.9086C4.3088 15.1584 5.22394 14.4561 6.16568 14.0517C7.10742 13.6474 8.18218 13.3813 9.33674 13.3813C10.5179 13.3813 11.5661 13.6261 12.5344 14.0517C13.4761 14.4561 14.3647 15.1265 15.1415 15.9352C15.4394 16.2332 15.5192 16.3662 15.8119 16.7173H15.8651V14.5944H16.5089V17.9517H15.8917C15.5139 17.3611 15.1149 16.7706 14.6839 16.313C14.0135 15.616 13.1782 15.0786 12.2631 14.6742C11.3479 14.2699 10.353 14.0571 9.33142 14.0571C8.30987 14.0571 7.34153 14.2699 6.39979 14.6742C5.45805 15.0786 4.65464 15.6426 4.00553 16.313C3.30854 17.0366 2.77116 17.8719 2.3668 18.8668C1.98904 19.782 1.80282 20.8567 1.80282 21.9049C1.80814 22.9956 1.99436 24.0172 2.37212 24.9589Z" fill="white" stroke="white" stroke-miterlimit="10"/>
<path d="M30.7783 21.8943H24.0318V29.3644H31.7732V26.8372H32.4223V30.0401H21.1587V29.3644H23.3614V14.4455H21.2119V13.8018H32.3106V16.9994H31.6668V14.4455H24.0318V21.2506H30.7783V19.6065H31.4008V23.5331H30.7783V21.8943Z" fill="white" stroke="white" stroke-miterlimit="10"/>
<path d="M44.1916 22.751H39.999V29.391H42.2283V30.0348H37.1206V29.391H39.3499V14.4455H37.2004V13.8018H45.1866C45.8304 13.8018 46.4476 13.9082 46.9849 14.1263C47.5223 14.3711 48.0065 14.6371 48.4641 15.0681C48.9216 15.5256 49.2409 16.0364 49.4856 16.5206C49.7303 17.0579 49.8368 17.6485 49.8368 18.2923C49.8368 18.8829 49.7303 19.4735 49.4856 20.0109C49.2409 20.5216 48.9216 21.0324 48.4641 21.4634C48.0065 21.8943 47.5223 22.187 46.9849 22.4317C46.4476 22.6445 45.8304 22.7563 44.995 22.7563C46.554 24.9856 48.1395 27.1936 49.6984 29.3963H50.9328V30.0401H49.3207L44.1916 22.751ZM39.999 22.1072H45.1866C45.724 22.1072 46.2347 22.0008 46.7455 21.7826C47.2297 21.5964 47.634 21.325 48.0118 20.9739C48.3364 20.6493 48.6822 20.1652 48.9003 19.7395C49.0866 19.3351 49.1983 18.7446 49.1983 18.287C49.1983 17.7762 49.1451 17.2654 48.9323 16.7813C48.746 16.3503 48.4481 15.946 48.0437 15.5735C47.6926 15.249 47.2669 14.9297 46.7562 14.7382C46.2188 14.5254 45.7346 14.4402 45.1972 14.4402H40.0097V22.1072H39.999Z" fill="white" stroke="white" stroke-miterlimit="10"/>
<path d="M57.579 29.3644H59.8084V14.4455H55.7488V16.9994H55.105V13.8018H65.1289V16.9994H64.5117V14.4455H60.4521V29.3644H62.6868V30.0401H57.579V29.3644Z" fill="white" stroke="white" stroke-miterlimit="10"/>
<path d="M69.7256 13.8018H74.5886V14.4455H72.4923V29.391H74.7003V30.0401H69.6191V29.391H71.8219V14.4455H69.7256V13.8018Z" fill="white" stroke="white" stroke-miterlimit="10"/>
<path d="M88.0816 22.1604H82.1172V29.3644H84.3199V30.0401H79.2122V29.3644H81.4415V14.4455H79.292V13.8018H89.5607V16.9994H88.9169V14.4455H82.1172V21.5166H88.0816V19.8778H88.7307V23.7991H88.0816V22.1604Z" fill="white" stroke="white" stroke-miterlimit="10"/>
<path d="M94.2375 13.8018H99.1005V14.4455H97.0042V29.391H99.2122V30.0401H94.1311V29.391H96.3338V14.4455H94.2375V13.8018Z" fill="white" stroke="white" stroke-miterlimit="10"/>
<path d="M104.639 24.9589C105.043 25.9272 105.607 26.7626 106.278 27.4862C106.921 28.1832 107.73 28.8057 108.672 29.1781C109.56 29.5559 110.635 29.7687 111.604 29.7687C112.572 29.7687 113.647 29.5293 114.535 29.1781C115.45 28.8003 116.227 28.2098 116.956 27.4862C117.36 27.0818 117.738 26.5178 118.111 25.9272H118.829C118.398 26.736 117.861 27.433 117.403 27.8905C116.647 28.6461 115.738 29.3431 114.796 29.7474C113.881 30.1518 112.7 30.4444 111.598 30.4444C110.47 30.4444 109.342 30.1465 108.427 29.7474C107.485 29.3431 106.544 28.6461 105.82 27.9171C105.07 27.1669 104.421 26.1986 104.048 25.2036C103.671 24.2619 103.405 23.0275 103.405 21.8996C103.405 20.745 103.649 19.6171 104.048 18.5955C104.426 17.6538 105.07 16.6854 105.847 15.9086C106.57 15.1584 107.485 14.4561 108.427 14.0517C109.369 13.6474 110.444 13.3813 111.598 13.3813C112.779 13.3813 113.828 13.6261 114.796 14.0517C115.738 14.4561 116.626 15.1265 117.403 15.9352C117.701 16.2332 117.781 16.3662 118.073 16.7173H118.127V14.5944H118.77V17.9517H118.153C117.775 17.3611 117.376 16.7706 116.945 16.313C116.275 15.616 115.44 15.0786 114.525 14.6742C113.609 14.2699 112.614 14.0571 111.593 14.0571C110.571 14.0571 109.603 14.2699 108.661 14.6742C107.72 15.0786 106.916 15.6426 106.267 16.313C105.57 17.0366 105.033 17.8719 104.628 18.8668C104.251 19.782 104.064 20.8567 104.064 21.9049C104.075 22.9956 104.261 24.0172 104.639 24.9589Z" fill="white" stroke="white" stroke-miterlimit="10"/>
<path d="M134.609 29.391H136.652C136.009 27.8321 135.36 26.2732 134.716 24.7142H126.245C125.602 26.3264 124.926 27.7789 124.229 29.391H126.166V30.0348H122.292V29.391H123.5C125.623 24.3631 127.719 19.4735 129.869 14.4455H127.985V13.8018H130.89L137.344 29.391H138.499V30.0348H134.599V29.391H134.609ZM134.444 24.0971C133.098 20.8728 131.891 17.9412 130.518 14.7169H130.465C129.119 17.888 127.831 20.926 126.485 24.0971H134.444Z" fill="white" stroke="white" stroke-miterlimit="10"/>
<path d="M142.133 13.8018H149.901C151.056 13.8018 152.051 14.0146 152.886 14.3923C153.695 14.7435 154.498 15.3341 155.062 15.9779C155.679 16.6749 156.137 17.6432 156.461 18.6116C156.812 19.6331 156.919 20.7345 156.919 21.889C156.919 23.0702 156.706 24.2833 156.382 25.2197C156.03 26.188 155.466 27.1032 154.823 27.8002C154.152 28.5238 153.343 29.0931 152.428 29.4389C151.487 29.7901 150.438 30.0295 149.231 30.0295H142.053V29.3591H144.283V14.4668H142.133V13.8018ZM144.926 29.3644H149.225C150.327 29.3644 151.295 29.2048 152.157 28.8536C152.992 28.5025 153.769 27.9917 154.36 27.4011C154.977 26.7839 155.434 25.9486 155.786 24.9803C156.11 24.0651 156.27 23.017 156.27 21.889C156.27 20.8409 156.11 19.7395 155.839 18.7978C155.626 17.9624 155.083 16.9675 154.573 16.3503C154.115 15.8129 153.391 15.3022 152.636 14.9776C151.854 14.6531 150.944 14.4668 149.896 14.4668H144.921V29.3644H144.926Z" fill="white" stroke="white" stroke-miterlimit="10"/>
<path d="M173.391 14.0464C174.359 14.4774 175.248 15.1212 176.025 15.9033C176.78 16.6588 177.344 17.5953 177.743 18.5902C178.174 19.6118 178.387 20.7397 178.387 21.8943C178.387 23.0222 178.116 24.2619 177.743 25.1984C177.339 26.1667 176.748 27.135 176.025 27.8852C175.274 28.6674 174.359 29.3378 173.391 29.7421C172.476 30.1465 171.295 30.4391 170.193 30.4391C169.065 30.4391 167.964 30.1412 167.022 29.7421C166.08 29.3431 165.139 28.6408 164.415 27.9118C163.66 27.1616 163.042 26.1933 162.643 25.1984C162.266 24.2566 162 23.0222 162 21.8943C162 20.7397 162.212 19.6118 162.643 18.5902C163.021 17.6485 163.665 16.6801 164.447 15.9033C165.171 15.1531 166.086 14.4508 167.027 14.0464C167.996 13.6421 169.044 13.3761 170.198 13.3761C171.374 13.3707 172.422 13.6421 173.391 14.0464ZM173.119 14.6636C172.204 14.2593 171.236 14.0464 170.188 14.0464C169.166 14.0464 168.198 14.2593 167.256 14.6636C166.341 15.068 165.511 15.632 164.862 16.3024C164.165 17.026 163.628 17.8613 163.223 18.8562C162.845 19.7714 162.659 20.8461 162.659 21.8943C162.659 22.9956 162.872 24.0172 163.25 24.9589C163.654 25.9273 164.218 26.7626 164.889 27.4862C165.532 28.1832 166.341 28.8057 167.256 29.1781C168.145 29.5559 169.22 29.7687 170.188 29.7687C171.183 29.7687 172.231 29.5293 173.119 29.1781C174.035 28.8004 174.811 28.2098 175.54 27.4862C176.184 26.8158 176.748 25.9539 177.152 24.9589C177.557 24.0172 177.743 22.9956 177.743 21.8943C177.743 20.8461 177.557 19.7714 177.152 18.8562C176.748 17.8879 176.211 16.9994 175.54 16.3024C174.87 15.6054 174.035 15.0627 173.119 14.6636Z" fill="white" stroke="white" stroke-miterlimit="10"/>
<path d="M2.37271 24.9595L2.25033 25.0127C2.66002 25.997 3.23464 26.843 3.91567 27.5772C4.5701 28.2902 5.39479 28.918 6.35781 29.3064L6.4057 29.184L6.35249 29.3064C7.25699 29.6895 8.3477 29.9076 9.33201 29.9076C10.3216 29.9076 11.407 29.6629 12.3115 29.3064C13.2479 28.9233 14.0407 28.3168 14.7749 27.5825C15.19 27.1622 15.573 26.5929 15.9508 26.0023L15.8391 25.9331V26.0662H16.5627V25.9331L16.4456 25.8693C16.02 26.6621 15.4879 27.3537 15.0463 27.8007C14.3014 28.5455 13.3969 29.2319 12.4818 29.6256C11.5826 30.0193 10.4174 30.312 9.33733 30.312C8.23065 30.312 7.11865 30.0193 6.21948 29.6256H6.21416C5.2937 29.2319 4.3626 28.5402 3.64964 27.8273C2.91008 27.0877 2.27694 26.1353 1.9045 25.1617C1.53206 24.2359 1.26603 23.0122 1.26603 21.9055C1.26603 20.7669 1.50545 19.6549 1.9045 18.6493C2.27162 17.7288 2.91008 16.7711 3.67625 16.005C4.3892 15.2601 5.2937 14.5737 6.21416 14.18C7.13993 13.781 8.19873 13.5203 9.33201 13.5203C10.4972 13.5203 11.5241 13.7597 12.4765 14.18C13.3969 14.5737 14.2695 15.2335 15.041 16.0316C15.3283 16.3189 15.4028 16.4466 15.706 16.8031L15.7433 16.8509H15.8603H15.9934V14.728H16.3711V17.8246H15.8869V17.9576L15.9987 17.8884C15.6209 17.2925 15.2166 16.6966 14.7749 16.2284C14.0886 15.5155 13.2426 14.9675 12.3115 14.5578C11.3804 14.1481 10.3695 13.9299 9.32669 13.9299C8.28386 13.9299 7.29955 14.1481 6.34185 14.5578C5.38415 14.9675 4.56478 15.5421 3.90503 16.2284C3.19207 16.968 2.64938 17.814 2.23969 18.8249C1.85661 19.756 1.66507 20.8467 1.66507 21.9108C1.66507 23.0281 1.85661 24.0656 2.23969 25.0233L2.37271 24.9595L2.49508 24.9116C2.12796 23.9858 1.94174 22.9855 1.94174 21.8948C1.94174 20.8626 2.12796 19.8039 2.49508 18.91C2.89412 17.931 3.42086 17.1116 4.10721 16.3987C4.74036 15.7389 5.53312 15.1856 6.45358 14.7866C7.37936 14.3875 8.32642 14.18 9.33201 14.18C10.3323 14.18 11.3113 14.3928 12.2104 14.7866C13.1096 15.1856 13.929 15.7123 14.5887 16.3987L14.6845 16.3082L14.5887 16.3987C15.0091 16.8456 15.4081 17.4309 15.7805 18.0161L15.8178 18.08H16.5095H16.6425V14.4567H15.7326V16.7126H15.8657V16.5796H15.8125V16.7126L15.9135 16.6275C15.6209 16.2816 15.5358 16.1433 15.2325 15.84L15.1367 15.9358L15.2325 15.8454C14.4451 15.0313 13.5459 14.3449 12.5829 13.9353L12.5297 14.0576L12.5829 13.9353C11.5986 13.499 10.5291 13.2489 9.33201 13.2542C8.15616 13.2542 7.06013 13.5256 6.10774 13.9353C5.14472 14.3503 4.21894 15.0579 3.4847 15.8187L3.58047 15.9092L3.4847 15.8134C2.69194 16.6062 2.03751 17.5852 1.65443 18.5482C1.24475 19.5857 1 20.7296 1 21.9055C1 23.0547 1.27135 24.3051 1.65443 25.2628L1.7768 25.2149L1.65443 25.2628C2.03751 26.279 2.69194 27.258 3.4581 28.0241C4.19234 28.7584 5.14472 29.466 6.10774 29.881L6.16095 29.7586L6.10774 29.881C7.03884 30.2907 8.18277 30.5886 9.33201 30.5886C10.46 30.5886 11.6518 30.2907 12.5829 29.881L12.5297 29.7586L12.5829 29.881C13.5459 29.466 14.4717 28.7584 15.2325 27.9975C15.7007 27.5293 16.2434 26.8217 16.6797 26.0023L16.7861 25.8055H15.7646L15.7273 25.8693C15.3549 26.4599 14.9771 27.0185 14.5887 27.4069C13.8705 28.1252 13.1043 28.7052 12.2104 29.0723L12.2636 29.1947L12.2158 29.0723C11.3432 29.4181 10.2791 29.6522 9.33201 29.6522C8.38495 29.6522 7.32083 29.4394 6.45358 29.0723C5.53312 28.7052 4.74568 28.0986 4.10721 27.4123C3.44214 26.694 2.8888 25.8746 2.48976 24.9222L2.37271 24.9595L2.49508 24.9116L2.37271 24.9595Z" fill="white"/>
<path d="M2.37271 24.9595L2.25033 25.0127C2.66002 25.997 3.23464 26.843 3.91567 27.5772C4.5701 28.2902 5.39479 28.918 6.35781 29.3064L6.4057 29.184L6.35249 29.3064C7.25699 29.6895 8.3477 29.9076 9.33201 29.9076C10.3216 29.9076 11.407 29.6629 12.3115 29.3064C13.2479 28.9233 14.0407 28.3168 14.7749 27.5825C15.19 27.1622 15.573 26.5929 15.9508 26.0023L15.8391 25.9331V26.0662H16.5627V25.9331L16.4456 25.8693C16.02 26.6621 15.4879 27.3537 15.0463 27.8007C14.3014 28.5455 13.3969 29.2319 12.4818 29.6256C11.5826 30.0193 10.4174 30.312 9.33733 30.312C8.23065 30.312 7.11865 30.0193 6.21948 29.6256H6.21416C5.2937 29.2319 4.3626 28.5402 3.64964 27.8273C2.91008 27.0877 2.27694 26.1353 1.9045 25.1617C1.53206 24.2359 1.26603 23.0122 1.26603 21.9055C1.26603 20.7669 1.50545 19.6549 1.9045 18.6493C2.27162 17.7288 2.91008 16.7711 3.67625 16.005C4.3892 15.2601 5.2937 14.5737 6.21416 14.18C7.13993 13.781 8.19873 13.5203 9.33201 13.5203C10.4972 13.5203 11.5241 13.7597 12.4765 14.18C13.3969 14.5737 14.2695 15.2335 15.041 16.0316C15.3283 16.3189 15.4028 16.4466 15.706 16.8031L15.7433 16.8509H15.8603H15.9934V14.728H16.3711V17.8246H15.8869V17.9576L15.9987 17.8884C15.6209 17.2925 15.2166 16.6966 14.7749 16.2284C14.0886 15.5155 13.2426 14.9675 12.3115 14.5578C11.3804 14.1481 10.3695 13.9299 9.32669 13.9299C8.28386 13.9299 7.29955 14.1481 6.34185 14.5578C5.38415 14.9675 4.56478 15.5421 3.90503 16.2284C3.19207 16.968 2.64938 17.814 2.23969 18.8249C1.85661 19.756 1.66507 20.8467 1.66507 21.9108C1.66507 23.0281 1.85661 24.0656 2.23969 25.0233L2.37271 24.9595ZM2.37271 24.9595L2.49508 24.9116C2.12796 23.9858 1.94174 22.9855 1.94174 21.8948C1.94174 20.8626 2.12796 19.8038 2.49508 18.91C2.89412 17.931 3.42086 17.1116 4.10721 16.3987C4.74036 15.7389 5.53312 15.1856 6.45358 14.7866C7.37936 14.3875 8.32642 14.18 9.33201 14.18C10.3323 14.18 11.3113 14.3928 12.2104 14.7866C13.1096 15.1856 13.929 15.7123 14.5887 16.3987L14.6845 16.3082L14.5887 16.3987C15.0091 16.8456 15.4081 17.4309 15.7805 18.0161L15.8178 18.08H16.5095H16.6425V14.4567H15.7326V16.7126H15.8657V16.5796H15.8125V16.7126L15.9135 16.6275C15.6209 16.2816 15.5358 16.1433 15.2325 15.84L15.1367 15.9358L15.2325 15.8454C14.4451 15.0313 13.5459 14.3449 12.5829 13.9353L12.5297 14.0576L12.5829 13.9353C11.5986 13.499 10.5291 13.2489 9.33201 13.2542C8.15616 13.2542 7.06013 13.5256 6.10774 13.9353C5.14472 14.3503 4.21894 15.0579 3.4847 15.8187L3.58047 15.9092L3.4847 15.8134C2.69194 16.6062 2.03751 17.5852 1.65443 18.5482C1.24475 19.5857 1 20.7296 1 21.9055C1 23.0547 1.27135 24.3051 1.65443 25.2628L1.7768 25.2149L1.65443 25.2628C2.03751 26.279 2.69194 27.258 3.4581 28.0241C4.19234 28.7584 5.14472 29.466 6.10774 29.881L6.16095 29.7586L6.10774 29.881C7.03884 30.2907 8.18277 30.5886 9.33201 30.5886C10.46 30.5886 11.6518 30.2907 12.5829 29.881L12.5297 29.7586L12.5829 29.881C13.5459 29.466 14.4717 28.7584 15.2325 27.9975C15.7007 27.5293 16.2434 26.8217 16.6797 26.0023L16.7861 25.8055H15.7646L15.7273 25.8693C15.3549 26.4599 14.9771 27.0185 14.5887 27.4069C13.8705 28.1252 13.1043 28.7052 12.2104 29.0723L12.2636 29.1947L12.2158 29.0723C11.3432 29.4181 10.2791 29.6522 9.33201 29.6522C8.38495 29.6522 7.32083 29.4394 6.45358 29.0723C5.53312 28.7052 4.74568 28.0986 4.10721 27.4123C3.44214 26.694 2.8888 25.8746 2.48976 24.9222L2.37271 24.9595ZM2.37271 24.9595L2.49508 24.9116L2.37271 24.9595Z" stroke="white" stroke-miterlimit="10"/>
<path d="M30.7785 21.8941V21.761H23.899V29.4971H31.9064V26.9699H32.2895V29.9068H21.2919V29.4971H23.4946V14.3122H21.3451V13.9345H32.1778V16.8661H31.8V14.3122H23.899V21.3833H30.9115V19.7392H31.268V23.3998H30.9115V21.761H30.7785V21.8941H30.6455V23.6658H31.534V19.4732H30.6455V21.1173H24.165V14.5783H31.534V17.1321H32.4438V13.6685H21.0791V14.5783H23.2286V29.2311H21.0259V30.1729H32.5555V26.7038H31.6404V29.2311H24.165V22.0271H30.7785V21.8941H30.6455H30.7785Z" fill="white"/>
<path d="M30.7785 21.8941V21.761H23.899V29.4971H31.9064V26.9699H32.2895V29.9068H21.2919V29.4971H23.4946V14.3122H21.3451V13.9345H32.1778V16.8661H31.8V14.3122H23.899V21.3833H30.9115V19.7392H31.268V23.3998H30.9115V21.761H30.7785V21.8941ZM30.7785 21.8941H30.6455V23.6658H31.534V19.4732H30.6455V21.1173H24.165V14.5783H31.534V17.1321H32.4438V13.6685H21.0791V14.5783H23.2286V29.2311H21.0259V30.1729H32.5555V26.7038H31.6404V29.2311H24.165V22.0271H30.7785V21.8941ZM30.7785 21.8941H30.6455H30.7785Z" stroke="white" stroke-miterlimit="10"/>
<path d="M44.1919 22.7513V22.6183H39.8663V29.5244H42.0956V29.9021H37.2539V29.5244H39.4832V14.3129H37.3337V13.9351H45.1868C45.8147 13.9351 46.4212 14.0415 46.9373 14.249L46.9852 14.1267L46.932 14.249C47.464 14.4885 47.9322 14.7492 48.3739 15.1642L48.4643 15.0684L48.3685 15.1642C48.8101 15.6058 49.1294 16.1059 49.3635 16.5794L49.4805 16.5209L49.3582 16.5741C49.5923 17.0902 49.6987 17.6648 49.6987 18.2927C49.6987 18.8673 49.5923 19.4419 49.3582 19.958L49.4805 20.0112L49.3582 19.9527C49.1187 20.4528 48.8048 20.9476 48.3632 21.3626C47.9163 21.783 47.4481 22.0703 46.9213 22.3044L46.9745 22.4267L46.9267 22.3044C46.4052 22.5119 45.8093 22.6183 44.9847 22.6183H44.7293L44.8729 22.8258C46.4318 25.0604 48.0174 27.2631 49.5763 29.4659L49.6135 29.5244H50.7841V29.9021H49.3954L44.2611 22.6183H44.1919V22.7513L44.0855 22.8258L49.2624 30.1682H51.0767V29.2584H49.7093V29.3914L49.8157 29.3169C48.2568 27.1142 46.6713 24.9061 45.1123 22.6768L45.0059 22.7513V22.8843C45.8519 22.8843 46.4904 22.7726 47.0437 22.5544H47.049C47.5971 22.3097 48.0972 22.0064 48.5654 21.5648C49.0389 21.1179 49.3688 20.5965 49.6135 20.0751C49.8636 19.5164 49.9753 18.9099 49.9753 18.298C49.9753 17.6382 49.8636 17.0264 49.6135 16.4677V16.4624C49.3688 15.9676 49.0389 15.4462 48.5654 14.978C48.0919 14.5363 47.5917 14.2597 47.049 14.0149H47.0437C46.4851 13.7915 45.8519 13.6851 45.1922 13.6851H37.073V14.5949H39.2225V29.2743H36.9932V30.1841H42.3669V29.2743H40.1376V22.9003H44.1972V22.7513L44.0908 22.8258L44.1919 22.7513ZM39.9993 22.1075V22.2405H45.1868C45.7402 22.2405 46.2722 22.1288 46.799 21.9053L46.7458 21.783L46.7936 21.9053C47.2938 21.7085 47.7141 21.4318 48.0972 21.07C48.4324 20.7348 48.7835 20.2453 49.007 19.7984C49.2039 19.3674 49.3156 18.7662 49.3156 18.2927C49.3156 17.7713 49.2624 17.2445 49.0336 16.7337C48.8367 16.2868 48.5281 15.8665 48.1131 15.4834C47.7567 15.1535 47.3151 14.8183 46.7777 14.6215C46.2243 14.398 45.7189 14.3182 45.1709 14.3182H39.8503V22.2458H39.9833V22.1075H40.1163V14.5789H45.1709C45.6976 14.5789 46.1552 14.6587 46.6819 14.8662C47.1714 15.0471 47.5864 15.3557 47.9269 15.6749C48.3206 16.0421 48.6026 16.4305 48.7835 16.8402C48.9857 17.2977 49.0389 17.7925 49.0389 18.2927C49.0389 18.729 48.9325 19.3142 48.7569 19.6867L48.8793 19.7452L48.7623 19.6867C48.5548 20.1017 48.2089 20.5805 47.9003 20.8891L47.9961 20.9849L47.9056 20.8891C47.5385 21.2296 47.1501 21.485 46.6819 21.6712C46.1871 21.8787 45.6923 21.9851 45.1762 21.9851H39.9886V22.1075H40.1217H39.9993Z" fill="white"/>
<path d="M44.1919 22.7513V22.6183M44.1919 22.7513L44.0855 22.8258L49.2624 30.1682H51.0767V29.2584H49.7093V29.3914L49.8157 29.3169C48.2568 27.1142 46.6713 24.9061 45.1123 22.6768L45.0059 22.7513V22.8843C45.8519 22.8843 46.4904 22.7726 47.0437 22.5544H47.049C47.5971 22.3097 48.0972 22.0064 48.5654 21.5648C49.0389 21.1179 49.3688 20.5965 49.6135 20.0751C49.8636 19.5164 49.9753 18.9099 49.9753 18.298C49.9753 17.6382 49.8636 17.0264 49.6135 16.4677V16.4624C49.3688 15.9676 49.0389 15.4462 48.5654 14.978C48.0919 14.5363 47.5917 14.2597 47.049 14.0149H47.0437C46.4851 13.7915 45.8519 13.6851 45.1922 13.6851H37.073V14.5949H39.2225V29.2743H36.9932V30.1841H42.3669V29.2743H40.1376V22.9003H44.1972V22.7513L44.0908 22.8258L44.1919 22.7513ZM44.1919 22.6183H39.8663V29.5244H42.0956V29.9021H37.2539V29.5244H39.4832V14.3129H37.3337V13.9351H45.1868C45.8147 13.9351 46.4212 14.0415 46.9373 14.249L46.9852 14.1267L46.932 14.249C47.464 14.4885 47.9322 14.7492 48.3739 15.1642L48.4643 15.0684L48.3685 15.1642C48.8101 15.6058 49.1294 16.1059 49.3635 16.5794L49.4805 16.5209L49.3582 16.5741C49.5923 17.0902 49.6987 17.6648 49.6987 18.2927C49.6987 18.8673 49.5923 19.4419 49.3582 19.958L49.4805 20.0112L49.3582 19.9527C49.1187 20.4528 48.8048 20.9476 48.3632 21.3626C47.9163 21.783 47.4481 22.0703 46.9213 22.3044L46.9745 22.4267L46.9267 22.3044C46.4052 22.5119 45.8093 22.6183 44.9847 22.6183H44.7293L44.8729 22.8258C46.4318 25.0604 48.0174 27.2631 49.5763 29.4659L49.6135 29.5244H50.7841V29.9021H49.3954L44.2611 22.6183H44.1919ZM46.7777 14.6215C47.3151 14.8183 47.7567 15.1535 48.1131 15.4834C48.5282 15.8665 48.8367 16.2868 49.0336 16.7337C49.2624 17.2445 49.3156 17.7713 49.3156 18.2927C49.3156 18.7662 49.2039 19.3674 49.007 19.7984C48.7835 20.2453 48.4324 20.7348 48.0972 21.07C47.7141 21.4318 47.2938 21.7085 46.7936 21.9053L46.7458 21.783L46.799 21.9053C46.2722 22.1288 45.7402 22.2405 45.1868 22.2405H39.9993V22.1075H40.1217H39.9886V21.9851H45.1762C45.6923 21.9851 46.1871 21.8787 46.6819 21.6712C47.1501 21.485 47.5385 21.2296 47.9056 20.8891L47.9961 20.9849L47.9003 20.8891C48.2089 20.5805 48.5548 20.1017 48.7623 19.6867L48.8793 19.7452L48.7569 19.6867C48.9325 19.3142 49.0389 18.729 49.0389 18.2927C49.0389 17.7925 48.9857 17.2977 48.7835 16.8402C48.6026 16.4305 48.3206 16.0421 47.9269 15.6749C47.5864 15.3557 47.1714 15.0471 46.6819 14.8662C46.1552 14.6587 45.6976 14.5789 45.1709 14.5789H40.1163V22.1075H39.9833V22.2458H39.8503V14.3182H45.1709C45.7189 14.3182 46.2243 14.398 46.7777 14.6215ZM46.7777 14.6215L46.7298 14.7439" stroke="white" stroke-miterlimit="10"/>
<path d="M57.5785 29.3641V29.4971H59.9408V14.3122H55.6152V16.8661H55.2375V13.9345H64.9954V16.8661H64.6442V14.3122H60.3186V29.4971H62.5532V29.9068H57.7115V29.3641H57.5785V29.4971V29.3641H57.4455V30.0398V30.1729H62.8193V29.2311H60.5846V14.5783H64.3782V17.1321H65.2614V13.6685H54.9714V17.1321H55.8813V14.5783H59.6748V29.2311H57.4455V29.3641H57.5785Z" fill="white"/>
<path d="M57.5785 29.3641V29.4971H59.9408V14.3122H55.6152V16.8661H55.2375V13.9345H64.9954V16.8661H64.6442V14.3122H60.3186V29.4971H62.5532V29.9068H57.7115V29.3641H57.5785ZM57.5785 29.3641V29.4971V29.3641ZM57.5785 29.3641H57.4455V30.0398V30.1729H62.8193V29.2311H60.5846V14.5783H64.3782V17.1321H65.2614V13.6685H54.9714V17.1321H55.8813V14.5783H59.6748V29.2311H57.4455V29.3641H57.5785Z" stroke="white" stroke-miterlimit="10"/>
<path d="M69.725 13.8015V13.9345H74.455V14.3122H72.3587V29.5238H74.5667V29.9068H69.7516V29.5238H71.9543V14.3122H69.858V13.8015H69.725V13.9345V13.8015H69.592V14.4453V14.5783H71.6883V29.2577H69.4856V30.1729H74.8328V29.2577H72.6247V14.5783H74.721V13.6685H69.592V13.8015H69.725Z" fill="white"/>
<path d="M69.725 13.8015V13.9345H74.455V14.3122H72.3587V29.5238H74.5667V29.9068H69.7516V29.5238H71.9543V14.3122H69.858V13.8015H69.725ZM69.725 13.8015V13.9345V13.8015ZM69.725 13.8015H69.592V14.4453V14.5783H71.6883V29.2577H69.4856V30.1729H74.8328V29.2577H72.6247V14.5783H74.721V13.6685H69.592V13.8015H69.725Z" stroke="white" stroke-miterlimit="10"/>
<path d="M88.081 22.1601V22.0271H81.9836V29.4971H84.1864V29.9068H79.3446V29.4971H81.574V14.3122H79.4245V13.9345H89.4271V16.8661H89.0494V14.3122H81.9836V21.6493H88.214V20.0106H88.5971V23.6658H88.214V22.0271H88.081V22.1601H87.948V23.9318H88.8631V19.7445H87.948V21.3833H82.2497V14.5783H88.7833V17.1321H89.6932V13.6685H79.1584V14.5783H81.3079V29.2311H79.0786V30.1729H84.4524V29.2311H82.2497V22.2931H88.081V22.1601H87.948H88.081Z" fill="white"/>
<path d="M88.081 22.1601V22.0271H81.9836V29.4971H84.1864V29.9068H79.3446V29.4971H81.574V14.3122H79.4245V13.9345H89.4271V16.8661H89.0494V14.3122H81.9836V21.6493H88.214V20.0106H88.5971V23.6658H88.214V22.0271H88.081V22.1601ZM88.081 22.1601H87.948V23.9318H88.8631V19.7445H87.948V21.3833H82.2497V14.5783H88.7833V17.1321H89.6932V13.6685H79.1584V14.5783H81.3079V29.2311H79.0786V30.1729H84.4524V29.2311H82.2497V22.2931H88.081V22.1601ZM88.081 22.1601H87.948H88.081Z" stroke="white" stroke-miterlimit="10"/>
<path d="M94.237 13.8015V13.9345H98.967V14.3122H96.8707V29.5238H99.0787V29.9068H94.2636V29.5238H96.4663V14.3122H94.37V13.8015H94.237V13.9345V13.8015H94.104V14.4453V14.5783H96.2003V29.2577H93.9976V30.1729H99.3447V29.2577H97.1367V14.5783H99.233V13.6685H94.104V13.8015H94.237Z" fill="white"/>
<path d="M94.237 13.8015V13.9345H98.967V14.3122H96.8707V29.5238H99.0787V29.9068H94.2636V29.5238H96.4663V14.3122H94.37V13.8015H94.237ZM94.237 13.8015V13.9345V13.8015ZM94.237 13.8015H94.104V14.4453V14.5783H96.2003V29.2577H93.9976V30.1729H99.3447V29.2577H97.1367V14.5783H99.233V13.6685H94.104V13.8015H94.237Z" stroke="white" stroke-miterlimit="10"/>
<path d="M104.639 24.959L104.517 25.0122C104.926 25.9965 105.501 26.8425 106.182 27.5767C106.836 28.2897 107.661 28.9175 108.624 29.3059L108.672 29.1835L108.619 29.3059C109.523 29.689 110.614 29.9071 111.598 29.9071C112.588 29.9071 113.673 29.6624 114.578 29.3059C115.514 28.9228 116.307 28.3163 117.041 27.582C117.456 27.1617 117.839 26.5924 118.217 26.0018L118.105 25.9327V26.0657H118.829V25.9327L118.712 25.8688C118.286 26.6616 117.754 27.3532 117.313 27.8002C116.568 28.5451 115.663 29.2314 114.748 29.6251C113.849 30.0189 112.684 30.3115 111.604 30.3115C110.497 30.3115 109.385 30.0189 108.486 29.6251C107.565 29.2314 106.634 28.5397 105.921 27.8268C105.182 27.0872 104.549 26.1348 104.176 25.1612C103.804 24.2354 103.538 23.0117 103.538 21.905C103.538 20.7664 103.777 19.6544 104.176 18.6488C104.543 17.7283 105.182 16.7706 105.948 16.0045C106.661 15.2596 107.565 14.5732 108.486 14.1795C109.412 13.7805 110.47 13.5198 111.604 13.5198C112.769 13.5198 113.796 13.7592 114.748 14.1795C115.669 14.5732 116.541 15.233 117.313 16.0311C117.6 16.3184 117.674 16.4461 117.978 16.8026L118.015 16.8504H118.132H118.265V14.7275H118.643V17.8241H118.159V17.9571L118.27 17.888C117.893 17.2921 117.488 16.6962 117.047 16.2279C116.36 15.515 115.514 14.967 114.583 14.5573C113.652 14.1476 112.641 13.9295 111.598 13.9295C110.556 13.9295 109.571 14.1476 108.614 14.5573C107.656 14.967 106.836 15.5416 106.177 16.2279C105.464 16.9675 104.921 17.8135 104.511 18.8244C104.128 19.7555 103.937 20.8462 103.937 21.9103C103.937 23.0276 104.128 24.0651 104.511 25.0228L104.639 24.959L104.761 24.9111C104.394 23.9853 104.208 22.9851 104.208 21.8943C104.208 20.8622 104.394 19.8034 104.761 18.9095C105.16 17.9305 105.687 17.1112 106.374 16.3982C107.007 15.7384 107.799 15.1851 108.72 14.7861C109.646 14.387 110.593 14.1795 111.598 14.1795C112.599 14.1795 113.578 14.3923 114.477 14.7861C115.376 15.1851 116.195 15.7118 116.855 16.3982L116.951 16.3077L116.855 16.3982C117.275 16.8451 117.674 17.4304 118.047 18.0157L118.084 18.0795H118.776H118.909V14.4562H117.999V16.7121H118.132V16.5791H118.079V16.7121L118.18 16.627C117.887 16.2812 117.802 16.1428 117.499 15.8395L117.403 15.9353L117.499 15.8449C116.711 15.0308 115.812 14.3445 114.849 13.9348L114.796 14.0572L114.849 13.9348C113.865 13.4985 112.795 13.2484 111.598 13.2537C110.423 13.2537 109.326 13.5251 108.374 13.9348C107.411 14.3498 106.485 15.0574 105.751 15.8183L105.847 15.9087L105.751 15.8129C104.958 16.6057 104.304 17.5847 103.921 18.5477C103.511 19.5852 103.266 20.7291 103.266 21.905C103.266 23.0542 103.538 24.3046 103.921 25.2623L104.043 25.2144L103.921 25.2623C104.304 26.2785 104.958 27.2575 105.724 28.0236C106.459 28.7579 107.411 29.4655 108.374 29.8805L108.427 29.7581L108.374 29.8805C109.305 30.2902 110.449 30.5882 111.598 30.5882C112.726 30.5882 113.918 30.2902 114.849 29.8805L114.796 29.7581L114.849 29.8805C115.812 29.4655 116.738 28.7579 117.499 27.997C117.967 27.5288 118.51 26.8212 118.946 26.0018L119.052 25.805H118.031L117.994 25.8688C117.621 26.4594 117.243 27.0181 116.855 27.4065C116.137 28.1247 115.371 28.7047 114.477 29.0718L114.53 29.1942L114.482 29.0718C113.61 29.4176 112.545 29.6517 111.598 29.6517C110.651 29.6517 109.587 29.4389 108.72 29.0718C107.799 28.7047 107.012 28.0981 106.374 27.4118C105.708 26.6935 105.155 25.8741 104.756 24.9217L104.639 24.959L104.761 24.9111L104.639 24.959Z" fill="white"/>
<path d="M104.639 24.959L104.517 25.0122C104.926 25.9965 105.501 26.8425 106.182 27.5767C106.836 28.2897 107.661 28.9175 108.624 29.3059L108.672 29.1835L108.619 29.3059C109.523 29.689 110.614 29.9071 111.598 29.9071C112.588 29.9071 113.673 29.6624 114.578 29.3059C115.514 28.9228 116.307 28.3163 117.041 27.582C117.456 27.1617 117.839 26.5924 118.217 26.0018L118.105 25.9327V26.0657H118.829V25.9327L118.712 25.8688C118.286 26.6616 117.754 27.3532 117.313 27.8002C116.568 28.5451 115.663 29.2314 114.748 29.6251C113.849 30.0188 112.684 30.3115 111.604 30.3115C110.497 30.3115 109.385 30.0188 108.486 29.6251C107.565 29.2314 106.634 28.5397 105.921 27.8268C105.182 27.0872 104.549 26.1348 104.176 25.1612C103.804 24.2354 103.538 23.0117 103.538 21.905C103.538 20.7664 103.777 19.6544 104.176 18.6488C104.543 17.7283 105.182 16.7706 105.948 16.0045C106.661 15.2596 107.565 14.5732 108.486 14.1795C109.412 13.7805 110.47 13.5198 111.604 13.5198C112.769 13.5198 113.796 13.7592 114.748 14.1795C115.669 14.5732 116.541 15.233 117.313 16.0311C117.6 16.3184 117.674 16.4461 117.978 16.8026L118.015 16.8504H118.132H118.265V14.7275H118.643V17.8241H118.159V17.9571L118.27 17.888C117.893 17.2921 117.488 16.6962 117.047 16.2279C116.36 15.515 115.514 14.967 114.583 14.5573C113.652 14.1476 112.641 13.9295 111.598 13.9295C110.556 13.9295 109.571 14.1476 108.614 14.5573C107.656 14.967 106.836 15.5416 106.177 16.2279C105.464 16.9675 104.921 17.8135 104.511 18.8244C104.128 19.7555 103.937 20.8462 103.937 21.9103C103.937 23.0276 104.128 24.0651 104.511 25.0228L104.639 24.959ZM104.639 24.959L104.761 24.9111C104.394 23.9853 104.208 22.9851 104.208 21.8943C104.208 20.8622 104.394 19.8034 104.761 18.9095C105.16 17.9305 105.687 17.1112 106.374 16.3982C107.007 15.7384 107.799 15.1851 108.72 14.7861C109.646 14.387 110.593 14.1795 111.598 14.1795C112.599 14.1795 113.578 14.3923 114.477 14.7861C115.376 15.1851 116.195 15.7118 116.855 16.3982L116.951 16.3077L116.855 16.3982C117.275 16.8451 117.674 17.4304 118.047 18.0157L118.084 18.0795H118.776H118.909V14.4562H117.999V16.7121H118.132V16.5791H118.079V16.7121L118.18 16.627C117.887 16.2812 117.802 16.1428 117.499 15.8395L117.403 15.9353L117.499 15.8449C116.711 15.0308 115.812 14.3445 114.849 13.9348L114.796 14.0572L114.849 13.9348C113.865 13.4985 112.795 13.2484 111.598 13.2537C110.423 13.2537 109.326 13.5251 108.374 13.9348C107.411 14.3498 106.485 15.0574 105.751 15.8183L105.847 15.9087L105.751 15.8129C104.958 16.6057 104.304 17.5847 103.921 18.5477C103.511 19.5852 103.266 20.7291 103.266 21.905C103.266 23.0542 103.538 24.3046 103.921 25.2623L104.043 25.2144L103.921 25.2623C104.304 26.2785 104.958 27.2575 105.724 28.0236C106.459 28.7579 107.411 29.4655 108.374 29.8805L108.427 29.7581L108.374 29.8805C109.305 30.2902 110.449 30.5882 111.598 30.5882C112.726 30.5882 113.918 30.2902 114.849 29.8805L114.796 29.7581L114.849 29.8805C115.812 29.4655 116.738 28.7579 117.499 27.997C117.967 27.5288 118.51 26.8212 118.946 26.0018L119.052 25.805H118.031L117.994 25.8688C117.621 26.4594 117.243 27.0181 116.855 27.4065C116.137 28.1247 115.371 28.7047 114.477 29.0718L114.53 29.1942L114.482 29.0718C113.61 29.4176 112.545 29.6517 111.598 29.6517C110.651 29.6517 109.587 29.4389 108.72 29.0718C107.799 28.7047 107.012 28.0981 106.374 27.4118C105.708 26.6935 105.155 25.8741 104.756 24.9217L104.639 24.959ZM104.639 24.959L104.761 24.9111L104.639 24.959Z" stroke="white" stroke-miterlimit="10"/>
<path d="M134.61 29.3907V29.5238H136.85L136.775 29.3375C136.132 27.7786 135.483 26.2197 134.839 24.6607L134.807 24.5809H126.161L126.129 24.6661C125.485 26.2729 124.815 27.7254 124.112 29.3375L124.033 29.5238H126.039V29.9015H122.431V29.5238H123.596L123.628 29.4439C125.751 24.416 127.848 19.5264 129.997 14.4985L130.077 14.3122H128.129V13.9345H130.811L137.265 29.5238H138.377V29.9015H134.743V29.3907H134.61V29.5238V29.3907H134.477V30.0345V30.1675H138.643V29.2577H137.446L130.992 13.6685H127.869V14.5783H129.885V14.4453L129.763 14.3921C127.613 19.42 125.517 24.3096 123.394 29.3375L123.517 29.3907V29.2577H122.176V30.1675H126.315V29.2577H124.245V29.3907L124.368 29.4439C125.065 27.8318 125.741 26.3793 126.384 24.7618L126.262 24.714V24.847H134.732V24.714L134.61 24.7672C135.254 26.3261 135.898 27.885 136.547 29.4439L136.669 29.3907V29.2577H134.493V29.3907H134.61ZM134.445 24.0968L134.567 24.0436C133.221 20.8193 132.014 17.8877 130.641 14.6634L130.609 14.5836H130.465H130.375L130.343 14.6634C128.997 17.8345 127.709 20.8725 126.363 24.0436L126.283 24.2298H134.642L134.567 24.0436L134.445 24.0968V23.9638H126.491V24.0968L126.613 24.15C127.959 20.9789 129.247 17.9409 130.593 14.7698L130.471 14.7166V14.8496H130.524V14.7166L130.401 14.7698C131.774 17.9941 132.982 20.9257 134.328 24.15L134.445 24.0968V23.9638V24.0968Z" fill="white"/>
<path d="M134.61 29.3907V29.5238H136.85L136.775 29.3375C136.132 27.7786 135.483 26.2197 134.839 24.6607L134.807 24.5809H126.161L126.129 24.6661C125.485 26.2729 124.815 27.7254 124.112 29.3375L124.033 29.5238H126.039V29.9015H122.431V29.5238H123.596L123.628 29.4439C125.751 24.416 127.848 19.5264 129.997 14.4985L130.077 14.3122H128.129V13.9345H130.811L137.265 29.5238H138.377V29.9015H134.743V29.3907H134.61ZM134.61 29.3907V29.5238V29.3907ZM134.61 29.3907H134.477V30.0345V30.1675H138.643V29.2577H137.446L130.992 13.6685H127.869V14.5783H129.885V14.4453L129.763 14.3921C127.613 19.42 125.517 24.3096 123.394 29.3375L123.517 29.3907V29.2577H122.176V30.1675H126.315V29.2577H124.245V29.3907L124.368 29.4439C125.065 27.8318 125.741 26.3793 126.384 24.7618L126.262 24.714V24.847H134.732V24.714L134.61 24.7672C135.254 26.3261 135.898 27.885 136.547 29.4439L136.669 29.3907V29.2577H134.493V29.3907H134.61V29.3907ZM134.445 24.0968L134.567 24.0436C133.221 20.8193 132.014 17.8877 130.641 14.6634L130.609 14.5836H130.465H130.375L130.343 14.6634C128.997 17.8345 127.709 20.8725 126.363 24.0436L126.283 24.2298H134.642L134.567 24.0436L134.445 24.0968ZM134.445 24.0968V23.9638H126.491V24.0968L126.613 24.15C127.959 20.9789 129.247 17.9409 130.593 14.7698L130.471 14.7166V14.8496H130.524V14.7166L130.401 14.7698C131.774 17.9941 132.982 20.9257 134.328 24.15L134.445 24.0968ZM134.445 24.0968V23.9638V24.0968Z" stroke="white" stroke-miterlimit="10"/>
<path d="M142.133 13.8015V13.9345H149.901C151.04 13.9345 152.014 14.1473 152.828 14.5144C153.615 14.8549 154.408 15.4349 154.956 16.068C155.557 16.7437 156.009 17.7014 156.329 18.6591C156.669 19.6594 156.781 20.7501 156.781 21.8941C156.781 23.0593 156.568 24.2617 156.249 25.1822L156.376 25.2247L156.249 25.1822C155.908 26.1345 155.35 27.0337 154.716 27.7201C154.057 28.433 153.269 28.9864 152.375 29.3269C151.444 29.6727 150.412 29.9122 149.22 29.9122H142.186V29.5078H144.416V14.3495H142.266V13.8121H142.133V13.9451V13.8015H142V14.4719V14.6049H144.15V29.2311H141.92V30.1675H149.231C150.46 30.1675 151.524 29.9228 152.476 29.5663C153.413 29.2098 154.232 28.6299 154.919 27.8903C155.578 27.1774 156.148 26.2516 156.504 25.2673C156.834 24.3096 157.047 23.0912 157.047 21.8887C157.047 20.7235 156.94 19.6062 156.584 18.5687C156.259 17.5897 155.796 16.6107 155.158 15.8871C154.578 15.2274 153.759 14.6262 152.934 14.2697L152.881 14.3921L152.934 14.2697C152.083 13.8866 151.066 13.6685 149.896 13.6685H141.995V13.8015H142.133ZM144.927 29.3641V29.4971H149.226C150.343 29.4971 151.327 29.3322 152.205 28.9757C153.056 28.6192 153.844 28.1032 154.45 27.4966C155.089 26.8581 155.552 26.0069 155.908 25.0279C156.238 24.0968 156.398 23.0327 156.398 21.8941C156.398 20.8299 156.233 19.7179 155.961 18.7656L155.834 18.8028L155.961 18.7709C155.738 17.909 155.195 16.9087 154.674 16.2755C154.2 15.7169 153.461 15.2008 152.689 14.8709C151.891 14.541 150.96 14.3495 149.896 14.3495H144.788V29.5078H144.921V29.3641H145.054V14.6049H149.896C150.928 14.6049 151.822 14.7911 152.588 15.105L152.641 14.9826L152.588 15.105C153.322 15.4189 154.035 15.9244 154.472 16.4405L154.573 16.3553L154.472 16.4405C154.966 17.0417 155.504 18.026 155.711 18.8347V18.8401C155.977 19.7658 156.137 20.8619 156.137 21.8941C156.137 23.0114 155.977 24.0436 155.658 24.9427C155.312 25.9004 154.865 26.7145 154.264 27.3104C153.684 27.885 152.918 28.3905 152.104 28.731L152.157 28.8534L152.109 28.731C151.269 29.0715 150.316 29.2311 149.231 29.2311H144.932V29.3641H145.065H144.927Z" fill="white"/>
<path d="M142.133 13.8015V13.9345H149.901C151.04 13.9345 152.014 14.1473 152.828 14.5144C153.615 14.8549 154.408 15.4349 154.956 16.068C155.557 16.7437 156.009 17.7014 156.329 18.6591C156.669 19.6594 156.781 20.7501 156.781 21.8941C156.781 23.0593 156.568 24.2617 156.249 25.1822L156.376 25.2247L156.249 25.1822C155.908 26.1345 155.35 27.0337 154.716 27.7201C154.057 28.433 153.269 28.9864 152.375 29.3269C151.444 29.6727 150.412 29.9122 149.22 29.9122H142.186V29.5078H144.416V14.3495H142.266V13.8121H142.133V13.9451V13.8015ZM142.133 13.8015H142V14.4719V14.6049H144.15V29.2311H141.92V30.1675H149.231C150.46 30.1675 151.524 29.9228 152.476 29.5663C153.413 29.2098 154.232 28.6299 154.919 27.8903C155.578 27.1774 156.148 26.2516 156.504 25.2673C156.834 24.3096 157.047 23.0912 157.047 21.8887C157.047 20.7235 156.94 19.6062 156.584 18.5687C156.259 17.5897 155.796 16.6107 155.158 15.8871C154.578 15.2274 153.759 14.6262 152.934 14.2697L152.881 14.3921L152.934 14.2697C152.083 13.8866 151.066 13.6685 149.896 13.6685H141.995V13.8015H142.133ZM144.927 29.3641V29.4971H149.226C150.343 29.4971 151.327 29.3322 152.205 28.9757C153.056 28.6192 153.844 28.1032 154.45 27.4966C155.089 26.8581 155.552 26.0069 155.908 25.0279C156.238 24.0968 156.398 23.0327 156.398 21.8941C156.398 20.8299 156.233 19.7179 155.961 18.7656L155.834 18.8028L155.961 18.7709C155.738 17.909 155.195 16.9087 154.674 16.2755C154.2 15.7169 153.461 15.2008 152.689 14.8709C151.891 14.541 150.96 14.3495 149.896 14.3495H144.788V29.5078H144.921V29.3641H145.054V14.6049H149.896C150.928 14.6049 151.822 14.7911 152.588 15.105L152.641 14.9826L152.588 15.105C153.322 15.4189 154.035 15.9244 154.472 16.4405L154.573 16.3553L154.472 16.4405C154.966 17.0417 155.504 18.026 155.711 18.8347V18.8401C155.977 19.7658 156.137 20.8619 156.137 21.8941C156.137 23.0114 155.977 24.0436 155.658 24.9427C155.312 25.9004 154.865 26.7145 154.264 27.3104C153.684 27.885 152.918 28.3905 152.104 28.731L152.157 28.8534L152.109 28.731C151.269 29.0715 150.316 29.2311 149.231 29.2311H144.932V29.3641H145.065H144.927Z" stroke="white" stroke-miterlimit="10"/>
<path d="M173.391 14.0466L173.338 14.1689C174.29 14.5893 175.163 15.2277 175.934 15.9939C176.674 16.7335 177.227 17.6539 177.626 18.6382C178.046 19.6438 178.259 20.7558 178.259 21.8944C178.259 23.0011 177.993 24.2248 177.621 25.1506L177.743 25.1985L177.621 25.1453C177.222 26.0977 176.636 27.0554 175.929 27.7896C175.189 28.5558 174.285 29.2208 173.338 29.6146C172.438 30.0083 171.273 30.3009 170.193 30.3009C169.087 30.3009 168.001 30.0083 167.075 29.6146C166.155 29.2208 165.224 28.5292 164.511 27.8162C163.771 27.0766 163.165 26.1243 162.766 25.1453C162.399 24.2195 162.133 22.9958 162.133 21.8891C162.133 20.7505 162.345 19.6385 162.766 18.6329C163.133 17.7124 163.771 16.7547 164.537 15.9886C165.25 15.2437 166.155 14.5573 167.075 14.1636L167.022 14.0412L167.075 14.1636C168.033 13.7646 169.06 13.5039 170.199 13.5039C171.358 13.5039 172.391 13.7699 173.348 14.1636L173.391 14.0466L173.338 14.1689L173.391 14.0466L173.444 13.9242C172.465 13.5145 171.396 13.2432 170.193 13.2432C169.017 13.2432 167.948 13.5198 166.969 13.9242C166.006 14.3392 165.08 15.0468 164.346 15.8077L164.442 15.8981L164.346 15.8024C163.553 16.5951 162.899 17.5741 162.516 18.5371L162.638 18.585L162.516 18.5318C162.079 19.5693 161.861 20.7186 161.861 21.8891C161.861 23.0383 162.133 24.2887 162.516 25.2464C162.925 26.2573 163.553 27.2363 164.319 28.0077C165.054 28.742 166.006 29.4496 166.969 29.8646C167.921 30.2743 169.039 30.5722 170.193 30.5722C171.321 30.5722 172.513 30.2743 173.444 29.8646L173.391 29.7422L173.444 29.8646C174.434 29.4549 175.359 28.7686 176.12 27.9811C176.86 27.215 177.461 26.2307 177.865 25.2517V25.2464C178.249 24.2887 178.52 23.0383 178.52 21.8891C178.52 20.7186 178.302 19.5693 177.865 18.5318L177.743 18.585L177.865 18.5371C177.456 17.5315 176.886 16.5738 176.115 15.8024C175.328 15.0149 174.428 14.3605 173.439 13.9189L173.391 14.0466ZM173.12 14.6638L173.173 14.5414C172.242 14.1317 171.257 13.9136 170.188 13.9136C169.145 13.9136 168.161 14.1317 167.203 14.5414C166.272 14.9511 165.426 15.5257 164.766 16.212C164.053 16.9516 163.511 17.7976 163.101 18.8085C162.718 19.7396 162.526 20.8303 162.526 21.8944C162.526 23.0117 162.744 24.0546 163.128 25.0069C163.537 25.9912 164.112 26.8372 164.793 27.5714C165.447 28.2844 166.272 28.9122 167.203 29.2953L167.256 29.1729L167.203 29.2953C168.108 29.6784 169.198 29.8965 170.183 29.8965C171.199 29.8965 172.263 29.6518 173.162 29.2953C174.099 28.9122 174.891 28.3057 175.626 27.5714C176.285 26.8851 176.855 26.0125 177.264 25.0016L177.142 24.9537L177.264 25.0069C177.674 24.0492 177.865 23.0064 177.865 21.8891C177.865 20.825 177.674 19.7343 177.264 18.7978L177.142 18.851L177.264 18.7978C176.855 17.8189 176.312 16.9197 175.626 16.2014C174.939 15.4884 174.093 14.9404 173.162 14.5307L173.12 14.6638L173.066 14.7861C173.965 15.1852 174.785 15.7119 175.445 16.3983C176.104 17.0846 176.631 17.9572 177.03 18.9096V18.9149C177.424 19.8087 177.61 20.8675 177.61 21.8997C177.61 22.9851 177.424 23.9907 177.03 24.9112C176.631 25.8901 176.078 26.7361 175.445 27.3959L175.54 27.4863L175.445 27.3905C174.726 28.1088 173.96 28.6888 173.066 29.0559L173.12 29.1783L173.072 29.0559C172.199 29.4017 171.162 29.6358 170.188 29.6358C169.241 29.6358 168.177 29.423 167.309 29.0559C166.416 28.6888 165.623 28.0822 164.99 27.3959C164.325 26.6776 163.771 25.8582 163.378 24.9058L163.255 24.9591L163.378 24.9112C163.005 23.9854 162.798 22.9798 162.798 21.8944C162.798 20.8622 162.984 19.8034 163.351 18.9096C163.75 17.9306 164.277 17.1112 164.963 16.3983C165.596 15.7385 166.416 15.1852 167.315 14.7861L167.262 14.6638L167.315 14.7861C168.241 14.3871 169.188 14.1796 170.193 14.1796C171.225 14.1796 172.172 14.3924 173.072 14.7861L173.12 14.6638Z" fill="white"/>
<path d="M173.391 14.0466L173.338 14.1689C174.29 14.5893 175.163 15.2277 175.934 15.9939C176.674 16.7335 177.227 17.6539 177.626 18.6382C178.046 19.6438 178.259 20.7558 178.259 21.8944C178.259 23.0011 177.993 24.2248 177.621 25.1506L177.743 25.1985L177.621 25.1453C177.222 26.0977 176.636 27.0554 175.929 27.7896C175.189 28.5558 174.285 29.2208 173.338 29.6146C172.438 30.0083 171.273 30.3009 170.193 30.3009C169.087 30.3009 168.001 30.0083 167.075 29.6146C166.155 29.2208 165.224 28.5292 164.511 27.8162C163.771 27.0766 163.165 26.1243 162.766 25.1453C162.399 24.2195 162.133 22.9958 162.133 21.8891C162.133 20.7505 162.345 19.6385 162.766 18.6329C163.133 17.7124 163.771 16.7547 164.537 15.9886C165.25 15.2437 166.155 14.5573 167.075 14.1636L167.022 14.0412L167.075 14.1636C168.033 13.7646 169.06 13.5039 170.199 13.5039C171.358 13.5039 172.391 13.7699 173.348 14.1636L173.391 14.0466ZM173.391 14.0466L173.338 14.1689L173.391 14.0466ZM173.391 14.0466L173.444 13.9242C172.465 13.5145 171.396 13.2432 170.193 13.2432C169.017 13.2432 167.948 13.5198 166.969 13.9242C166.006 14.3392 165.08 15.0468 164.346 15.8077L164.442 15.8981L164.346 15.8024C163.553 16.5951 162.899 17.5741 162.516 18.5371L162.638 18.585L162.516 18.5318C162.079 19.5693 161.861 20.7186 161.861 21.8891C161.861 23.0383 162.133 24.2887 162.516 25.2464C162.925 26.2573 163.553 27.2363 164.319 28.0077C165.054 28.742 166.006 29.4496 166.969 29.8646C167.921 30.2743 169.039 30.5722 170.193 30.5722C171.321 30.5722 172.513 30.2743 173.444 29.8646L173.391 29.7422L173.444 29.8646C174.434 29.4549 175.359 28.7686 176.12 27.9811C176.86 27.215 177.461 26.2307 177.865 25.2517V25.2464C178.249 24.2887 178.52 23.0383 178.52 21.8891C178.52 20.7186 178.302 19.5693 177.865 18.5318L177.743 18.585L177.865 18.5371C177.456 17.5315 176.886 16.5738 176.115 15.8024C175.328 15.0149 174.428 14.3605 173.439 13.9189L173.391 14.0466ZM173.12 14.6638L173.173 14.5414C172.242 14.1317 171.257 13.9136 170.188 13.9136C169.145 13.9136 168.161 14.1317 167.203 14.5414C166.272 14.9511 165.426 15.5257 164.766 16.212C164.053 16.9516 163.511 17.7976 163.101 18.8085C162.718 19.7396 162.526 20.8303 162.526 21.8944C162.526 23.0117 162.744 24.0546 163.128 25.0069C163.537 25.9912 164.112 26.8372 164.793 27.5714C165.447 28.2844 166.272 28.9122 167.203 29.2953L167.256 29.1729L167.203 29.2953C168.108 29.6784 169.198 29.8965 170.183 29.8965C171.199 29.8965 172.263 29.6518 173.162 29.2953C174.099 28.9122 174.891 28.3057 175.626 27.5714C176.285 26.8851 176.855 26.0125 177.264 25.0016L177.142 24.9537L177.264 25.0069C177.674 24.0492 177.865 23.0064 177.865 21.8891C177.865 20.825 177.674 19.7343 177.264 18.7978L177.142 18.851L177.264 18.7978C176.855 17.8189 176.312 16.9197 175.626 16.2014C174.939 15.4884 174.093 14.9404 173.162 14.5307L173.12 14.6638ZM173.12 14.6638L173.066 14.7861C173.965 15.1852 174.785 15.7119 175.445 16.3983C176.104 17.0846 176.631 17.9572 177.03 18.9096V18.9149C177.424 19.8087 177.61 20.8675 177.61 21.8997C177.61 22.9851 177.424 23.9907 177.03 24.9112C176.631 25.8901 176.078 26.7361 175.445 27.3959L175.54 27.4863L175.445 27.3905C174.726 28.1088 173.96 28.6888 173.066 29.0559L173.12 29.1783L173.072 29.0559C172.199 29.4017 171.162 29.6358 170.188 29.6358C169.241 29.6358 168.177 29.423 167.309 29.0559C166.416 28.6888 165.623 28.0822 164.99 27.3959C164.325 26.6776 163.771 25.8582 163.378 24.9058L163.255 24.9591L163.378 24.9112C163.005 23.9854 162.798 22.9798 162.798 21.8944C162.798 20.8622 162.984 19.8034 163.351 18.9096C163.75 17.9306 164.277 17.1112 164.963 16.3983C165.596 15.7385 166.416 15.1852 167.315 14.7861L167.262 14.6638L167.315 14.7861C168.241 14.3871 169.188 14.1796 170.193 14.1796C171.225 14.1796 172.172 14.3924 173.072 14.7861L173.12 14.6638Z" stroke="white" stroke-miterlimit="10"/>
</svg>
