<svg width="272" height="165" viewBox="0 0 272 165" fill="none" xmlns="http://www.w3.org/2000/svg">
<rect x="0.5" y="0.5" width="271" height="164" rx="3.5" fill="white" stroke="#D9D9D9" stroke-dasharray="6 6"/>
<path d="M91.5133 112H97.4963V110.772H92.9398V107.877H97.1316V106.654H92.9398V103.773H97.4409V102.545H91.5133V112ZM100.616 107.79C100.616 106.659 101.308 106.012 102.269 106.012C103.206 106.012 103.774 106.626 103.774 107.656V112H105.154V107.49C105.154 105.735 104.189 104.817 102.739 104.817C101.673 104.817 100.976 105.311 100.648 106.063H100.56V104.909H99.2355V112H100.616V107.79ZM112.817 104.909H111.335L109.544 110.366H109.47L107.674 104.909H106.193L108.769 112H110.246L112.817 104.909ZM114.114 112H115.495V104.909H114.114V112ZM114.812 103.815C115.287 103.815 115.684 103.446 115.684 102.993C115.684 102.541 115.287 102.167 114.812 102.167C114.331 102.167 113.939 102.541 113.939 102.993C113.939 103.446 114.331 103.815 114.812 103.815ZM119.415 112.157C120.588 112.157 121.248 111.561 121.511 111.031H121.567V112H122.915V107.291C122.915 105.228 121.29 104.817 120.163 104.817C118.88 104.817 117.698 105.334 117.236 106.626L118.534 106.922C118.737 106.419 119.254 105.934 120.182 105.934C121.073 105.934 121.53 106.4 121.53 107.203V107.236C121.53 107.739 121.013 107.73 119.738 107.877C118.395 108.034 117.019 108.385 117.019 109.996C117.019 111.391 118.067 112.157 119.415 112.157ZM119.715 111.049C118.935 111.049 118.372 110.698 118.372 110.015C118.372 109.276 119.028 109.013 119.826 108.907C120.274 108.847 121.336 108.727 121.534 108.528V109.442C121.534 110.283 120.865 111.049 119.715 111.049ZM124.753 112H126.133V107.67C126.133 106.742 126.849 106.072 127.828 106.072C128.114 106.072 128.437 106.123 128.548 106.156V104.835C128.409 104.817 128.137 104.803 127.962 104.803C127.131 104.803 126.42 105.274 126.161 106.036H126.087V104.909H124.753V112ZM133.183 112H134.563V104.909H133.183V112ZM133.88 103.815C134.355 103.815 134.752 103.446 134.752 102.993C134.752 102.541 134.355 102.167 133.88 102.167C133.4 102.167 133.007 102.541 133.007 102.993C133.007 103.446 133.4 103.815 133.88 103.815ZM136.42 112H137.8V107.628C137.8 106.673 138.47 106.008 139.255 106.008C140.021 106.008 140.552 106.516 140.552 107.287V112H141.928V107.48C141.928 106.626 142.449 106.008 143.349 106.008C144.079 106.008 144.679 106.414 144.679 107.374V112H146.059V107.245C146.059 105.625 145.154 104.817 143.871 104.817C142.851 104.817 142.085 105.306 141.743 106.063H141.669C141.36 105.288 140.709 104.817 139.762 104.817C138.825 104.817 138.128 105.283 137.833 106.063H137.745V104.909H136.42V112ZM149.973 112.157C151.146 112.157 151.806 111.561 152.069 111.031H152.124V112H153.472V107.291C153.472 105.228 151.847 104.817 150.721 104.817C149.437 104.817 148.256 105.334 147.794 106.626L149.091 106.922C149.294 106.419 149.811 105.934 150.739 105.934C151.63 105.934 152.087 106.4 152.087 107.203V107.236C152.087 107.739 151.57 107.73 150.296 107.877C148.953 108.034 147.577 108.385 147.577 109.996C147.577 111.391 148.625 112.157 149.973 112.157ZM150.273 111.049C149.493 111.049 148.93 110.698 148.93 110.015C148.93 109.276 149.585 109.013 150.384 108.907C150.832 108.847 151.893 108.727 152.092 108.528V109.442C152.092 110.283 151.422 111.049 150.273 111.049ZM158.284 114.807C160.089 114.807 161.483 113.98 161.483 112.157V104.909H160.13V106.059H160.029C159.784 105.62 159.295 104.817 157.974 104.817C156.262 104.817 155.001 106.169 155.001 108.427C155.001 110.689 156.289 111.894 157.965 111.894C159.267 111.894 159.77 111.16 160.02 110.707H160.107V112.102C160.107 113.214 159.346 113.694 158.298 113.694C157.148 113.694 156.7 113.117 156.456 112.711L155.269 113.2C155.643 114.068 156.589 114.807 158.284 114.807ZM158.27 110.749C157.037 110.749 156.396 109.803 156.396 108.408C156.396 107.047 157.023 105.989 158.27 105.989C159.475 105.989 160.121 106.973 160.121 108.408C160.121 109.872 159.461 110.749 158.27 110.749ZM166.39 112.143C167.937 112.143 169.031 111.381 169.345 110.227L168.038 109.992C167.789 110.661 167.189 111.003 166.404 111.003C165.222 111.003 164.428 110.237 164.391 108.87H169.433V108.381C169.433 105.819 167.9 104.817 166.293 104.817C164.317 104.817 163.016 106.322 163.016 108.501C163.016 110.703 164.299 112.143 166.39 112.143ZM164.396 107.836C164.451 106.83 165.181 105.957 166.303 105.957C167.374 105.957 168.075 106.751 168.08 107.836H164.396ZM170.964 112H172.344V107.628C172.344 106.673 173.014 106.008 173.799 106.008C174.565 106.008 175.096 106.516 175.096 107.287V112H176.472V107.48C176.472 106.626 176.993 106.008 177.893 106.008C178.623 106.008 179.223 106.414 179.223 107.374V112H180.603V107.245C180.603 105.625 179.698 104.817 178.415 104.817C177.395 104.817 176.628 105.306 176.287 106.063H176.213C175.904 105.288 175.253 104.817 174.306 104.817C173.369 104.817 172.672 105.283 172.377 106.063H172.289V104.909H170.964V112Z" fill="#3C59BE"/>
<circle cx="137" cy="70" r="14" fill="#3C59BE" fill-opacity="0.15"/>
<circle cx="137" cy="70" r="18.5" stroke="#3C59BE"/>
<path fill-rule="evenodd" clip-rule="evenodd" d="M137 64.6665C137.368 64.6665 137.667 64.965 137.667 65.3332V74.6665C137.667 75.0347 137.368 75.3332 137 75.3332C136.632 75.3332 136.333 75.0347 136.333 74.6665V65.3332C136.333 64.965 136.632 64.6665 137 64.6665Z" fill="#3C59BE"/>
<path fill-rule="evenodd" clip-rule="evenodd" d="M131.667 70.0002C131.667 69.632 131.965 69.3335 132.333 69.3335H141.667C142.035 69.3335 142.333 69.632 142.333 70.0002C142.333 70.3684 142.035 70.6668 141.667 70.6668H132.333C131.965 70.6668 131.667 70.3684 131.667 70.0002Z" fill="#3C59BE"/>
</svg>
