<svg width="68" height="68" viewBox="0 0 68 68" fill="none" xmlns="http://www.w3.org/2000/svg">
<path d="M67.9997 41.3039V16.7819C68.0003 16.7095 67.9942 16.6365 67.9843 16.5636C67.9825 16.5496 67.9805 16.5356 67.9782 16.5218C67.9671 16.4548 67.9531 16.3882 67.933 16.3219C67.9325 16.3205 67.9319 16.3192 67.9314 16.3178C67.9166 16.2699 67.8997 16.2225 67.88 16.1755C67.8743 16.1619 67.8673 16.1496 67.8613 16.1362C67.8537 16.1196 67.8457 16.1033 67.8376 16.0868C67.8114 16.0341 67.783 15.9832 67.7516 15.9347C67.7473 15.9279 67.7436 15.921 67.7391 15.9144C67.7011 15.8576 67.6594 15.8045 67.6151 15.7542C67.6068 15.7448 67.5982 15.7361 67.5897 15.7268C67.5487 15.6824 67.5054 15.6405 67.4599 15.6018C67.4527 15.5955 67.4459 15.589 67.4385 15.5828C67.387 15.5405 67.3327 15.5022 67.2765 15.4672C67.2634 15.459 67.25 15.4515 67.2367 15.4438C67.1845 15.4133 67.1308 15.3856 67.0756 15.3615C67.0691 15.3587 67.0634 15.3547 67.0568 15.3519L30.7527 0.119768C30.7493 0.118383 30.7459 0.11746 30.7425 0.116076C30.7283 0.11023 30.7136 0.105768 30.6991 0.100383C30.4765 0.0165372 30.2462 -0.0134628 30.0228 0.00638338C30.0185 0.00669107 30.0143 0.00653722 30.01 0.00699876C29.9083 0.0168449 29.8083 0.0366911 29.7113 0.0660757C29.7054 0.0679218 29.6996 0.0703834 29.6937 0.0723834C29.6513 0.085768 29.6091 0.100691 29.568 0.117614C29.5662 0.118383 29.5642 0.118845 29.5622 0.119768L18.913 4.58777C18.3416 4.82761 17.9697 5.38669 17.9697 6.00654C17.9697 6.62638 18.3416 7.18546 18.913 7.42531L28.619 11.4978V25.0602L0.942961 36.6721C0.923577 36.6802 0.905731 36.6902 0.886961 36.699C0.868654 36.7076 0.850346 36.7159 0.832346 36.7253C0.788654 36.7478 0.746654 36.7722 0.706038 36.7984C0.699577 36.8025 0.692808 36.8055 0.686346 36.8098C0.684808 36.8108 0.683577 36.8121 0.682038 36.813C0.630961 36.8472 0.5825 36.8839 0.536654 36.9233C0.531885 36.9273 0.527731 36.9318 0.523115 36.9359C0.483885 36.9705 0.446654 37.0068 0.411423 37.0448C0.400961 37.0561 0.391115 37.0676 0.380961 37.0792C0.352192 37.1121 0.324961 37.1462 0.299269 37.1813C0.289577 37.1944 0.279885 37.2073 0.270654 37.2207C0.242961 37.2612 0.217423 37.3027 0.193731 37.3453C0.189423 37.3531 0.184346 37.3605 0.180192 37.3684C0.153423 37.4187 0.129885 37.4707 0.108808 37.5235C0.103115 37.5378 0.0986538 37.5524 0.093423 37.567C0.0789615 37.607 0.0658846 37.6473 0.0546538 37.6884C0.0498846 37.7062 0.045423 37.7239 0.0412692 37.7419C0.031423 37.7841 0.023423 37.8267 0.0171153 37.8698C0.0149615 37.8841 0.0123461 37.8984 0.0106538 37.9128C0.00357688 37.9733 -0.000576963 38.0341 -0.000423117 38.0955V51.2296C-0.000423117 51.8493 0.371423 52.4085 0.942808 52.6484L37.2376 67.8767C37.3334 67.9178 37.4342 67.9492 37.5388 67.9701C37.5485 67.9721 37.5583 67.9728 37.568 67.9745C37.6079 67.9818 37.6477 67.9885 37.6887 67.9925C37.7396 67.9976 37.7908 68.0002 37.842 68.0002C37.8933 68.0002 37.9443 67.9976 37.9954 67.9925C38.0362 67.9885 38.0762 67.9818 38.116 67.9745C38.1257 67.9728 38.1356 67.9721 38.1453 67.9701C38.2499 67.9492 38.3508 67.9178 38.4465 67.8767L67.0565 55.8728C67.6279 55.633 67.9997 55.0739 67.9997 54.4541V41.3201C67.9997 41.3147 67.9997 41.3092 67.9997 41.3039ZM50.804 46.2161L41.0885 42.1398C40.3047 41.8099 39.4033 42.1796 39.0746 42.9632C38.746 43.7467 39.1145 44.6482 39.898 44.9771L46.8277 47.8845L37.8423 51.6545L21.172 44.6602L30.1573 40.8902L35.6225 43.1833C36.4062 43.5121 37.3077 43.1433 37.6363 42.3598C37.9651 41.5762 37.5965 40.6747 36.813 40.3458L31.6957 38.1987V28.3972L62.4847 41.3153L50.804 46.2161ZM28.6188 38.1988L17.1954 42.9918L5.51481 38.0908L28.6188 28.3972V38.1988ZM30.1573 3.20684L62.4848 16.7705L55.812 19.5704L30.7627 9.06023C30.758 9.05823 30.7533 9.05638 30.7485 9.05438L23.4845 6.00654L30.1573 3.20684ZM55.2056 22.6527C55.3988 22.7356 55.6053 22.7773 55.812 22.7773C56.0142 22.7773 56.2165 22.7375 56.4073 22.6576L64.9228 19.0845V39.0012L31.6957 25.0601V12.7887L55.2056 22.6527ZM3.07665 40.4047L36.3037 54.3459V64.1476L3.07665 50.2065V40.4047ZM64.9228 53.431L39.3806 64.1476V54.3459L64.9228 43.6292V53.431Z" fill="#C0CE44"/>
</svg>
