<svg width="132" height="64" viewBox="0 0 132 64" fill="none" xmlns="http://www.w3.org/2000/svg">
<path d="M38.1511 54.62C37.8279 52.598 36.2445 51.4162 34.2456 51.4162C31.7988 51.4162 29.9938 53.2489 29.9938 56.2727C29.9938 59.2965 31.7896 61.1293 34.2456 61.1293C36.323 61.1293 37.8418 59.8274 38.1511 57.9577L36.7108 57.9531C36.4661 59.1626 35.4505 59.8274 34.2548 59.8274C32.6344 59.8274 31.411 58.5856 31.411 56.2727C31.411 53.9783 32.6298 52.718 34.2594 52.718C35.4643 52.718 36.4753 53.3967 36.7108 54.62H38.1511ZM41.8108 61.157C42.9834 61.157 43.6436 60.5614 43.9067 60.0305H43.9621V61H45.3101V56.2912C45.3101 54.2276 43.6851 53.8168 42.5587 53.8168C41.2753 53.8168 40.0935 54.3338 39.6318 55.6264L40.9291 55.9219C41.1322 55.4187 41.6492 54.9339 42.5771 54.9339C43.4681 54.9339 43.9252 55.4002 43.9252 56.2035V56.2358C43.9252 56.739 43.4081 56.7298 42.134 56.8775C40.7906 57.0344 39.4149 57.3853 39.4149 58.9964C39.4149 60.3906 40.4628 61.157 41.8108 61.157ZM42.1109 60.049C41.3307 60.049 40.7675 59.6982 40.7675 59.0149C40.7675 58.2763 41.423 58.0131 42.2217 57.907C42.6695 57.8469 43.7313 57.7269 43.9298 57.5284V58.4425C43.9298 59.2827 43.2604 60.049 42.1109 60.049ZM47.1486 61H48.5289V56.6697C48.5289 55.7418 49.2445 55.0724 50.2232 55.0724C50.5094 55.0724 50.8326 55.1232 50.9434 55.1555V53.8352C50.8049 53.8168 50.5325 53.8029 50.3571 53.8029C49.5261 53.8029 48.8152 54.2738 48.5566 55.0355H48.4828V53.9091H47.1486V61ZM52.1379 61H53.5182V56.6697C53.5182 55.7418 54.2338 55.0724 55.2124 55.0724C55.4987 55.0724 55.8218 55.1232 55.9326 55.1555V53.8352C55.7941 53.8168 55.5218 53.8029 55.3463 53.8029C54.5154 53.8029 53.8044 54.2738 53.5459 55.0355H53.472V53.9091H52.1379V61ZM59.9293 61.1431C61.4759 61.1431 62.57 60.3814 62.8839 59.2273L61.5774 58.9918C61.3281 59.6612 60.728 60.0028 59.9432 60.0028C58.7614 60.0028 57.9673 59.2365 57.9304 57.87H62.9716V57.3807C62.9716 54.8185 61.4389 53.8168 59.8324 53.8168C57.8565 53.8168 56.5547 55.3217 56.5547 57.5007C56.5547 59.7028 57.8381 61.1431 59.9293 61.1431ZM57.935 56.8359C57.9904 55.8295 58.7198 54.957 59.8416 54.957C60.9126 54.957 61.6143 55.7511 61.619 56.8359H57.935ZM67.4761 63.8068C69.2812 63.8068 70.6753 62.9805 70.6753 61.157V53.9091H69.3227V55.0586H69.2211C68.9765 54.62 68.4871 53.8168 67.1668 53.8168C65.4541 53.8168 64.1938 55.1694 64.1938 57.4268C64.1938 59.6889 65.4818 60.8938 67.1576 60.8938C68.4594 60.8938 68.9626 60.1598 69.2119 59.7074H69.2996V61.1016C69.2996 62.2141 68.5379 62.6942 67.49 62.6942C66.3405 62.6942 65.8927 62.1172 65.648 61.7109L64.4616 62.2003C64.8355 63.0682 65.7819 63.8068 67.4761 63.8068ZM67.4623 59.7489C66.2297 59.7489 65.588 58.8026 65.588 57.4084C65.588 56.0465 66.2158 54.9893 67.4623 54.9893C68.6672 54.9893 69.3135 55.9727 69.3135 57.4084C69.3135 58.8718 68.6533 59.7489 67.4623 59.7489ZM74.5901 61.157C75.7627 61.157 76.4229 60.5614 76.686 60.0305H76.7414V61H78.0894V56.2912C78.0894 54.2276 76.4644 53.8168 75.338 53.8168C74.0546 53.8168 72.8728 54.3338 72.4111 55.6264L73.7084 55.9219C73.9115 55.4187 74.4285 54.9339 75.3564 54.9339C76.2474 54.9339 76.7045 55.4002 76.7045 56.2035V56.2358C76.7045 56.739 76.1874 56.7298 74.9133 56.8775C73.5699 57.0344 72.1942 57.3853 72.1942 58.9964C72.1942 60.3906 73.2421 61.157 74.5901 61.157ZM74.8902 60.049C74.11 60.049 73.5468 59.6982 73.5468 59.0149C73.5468 58.2763 74.2023 58.0131 75.001 57.907C75.4488 57.8469 76.5106 57.7269 76.7091 57.5284V58.4425C76.7091 59.2827 76.0397 60.049 74.8902 60.049ZM81.3082 56.7898C81.3082 55.6587 82.0007 55.0124 82.9609 55.0124C83.8981 55.0124 84.4659 55.6264 84.4659 56.6559V61H85.8462V56.4897C85.8462 54.7354 84.8814 53.8168 83.4318 53.8168C82.3654 53.8168 81.6683 54.3107 81.3406 55.0632H81.2528V53.9091H79.9279V61H81.3082V56.7898ZM90.3519 61.1385C91.6445 61.1385 92.1523 60.3491 92.4016 59.8967H92.517V61H93.8651V51.5455H92.4847V55.0586H92.4016C92.1523 54.62 91.6815 53.8168 90.3612 53.8168C88.6484 53.8168 87.3881 55.1694 87.3881 57.4684C87.3881 59.7628 88.63 61.1385 90.3519 61.1385ZM90.6566 59.9613C89.424 59.9613 88.7823 58.8764 88.7823 57.4545C88.7823 56.0465 89.4102 54.9893 90.6566 54.9893C91.8615 54.9893 92.5078 55.9727 92.5078 57.4545C92.5078 58.9457 91.8477 59.9613 90.6566 59.9613ZM98.822 61.1431C100.821 61.1431 102.127 59.6797 102.127 57.4869C102.127 55.2802 100.821 53.8168 98.822 53.8168C96.8231 53.8168 95.5166 55.2802 95.5166 57.4869C95.5166 59.6797 96.8231 61.1431 98.822 61.1431ZM98.8266 59.9844C97.5202 59.9844 96.9108 58.8441 96.9108 57.4822C96.9108 56.125 97.5202 54.9709 98.8266 54.9709C100.124 54.9709 100.733 56.125 100.733 57.4822C100.733 58.8441 100.124 59.9844 98.8266 59.9844Z" fill="#BE9A3C"/>
<circle cx="67" cy="19" r="14" fill="#BE9A3C" fill-opacity="0.15"/>
<circle cx="67" cy="19" r="18.5" stroke="#BE9A3C"/>
<path d="M67.7577 14.5455H66.2389L66.3589 21.2809H67.6377L67.7577 14.5455ZM66.996 24.0877C67.4992 24.0877 67.9193 23.6768 67.9193 23.1644C67.9193 22.6612 67.4992 22.2457 66.996 22.2457C66.4881 22.2457 66.0727 22.6612 66.0727 23.1644C66.0727 23.6768 66.4881 24.0877 66.996 24.0877Z" fill="#BE9A3C"/>
</svg>
