<svg width="20" height="20" viewBox="0 0 20 20" fill="none" xmlns="http://www.w3.org/2000/svg">
<path d="M15.0001 8.33342C15.6419 8.3331 16.2702 8.51809 16.8095 8.86618C17.3487 9.21427 17.776 9.71064 18.04 10.2957C18.304 10.8807 18.3935 11.5295 18.2977 12.1642C18.202 12.7988 17.925 13.3924 17.5001 13.8734V17.7068C17.5003 17.8138 17.473 17.919 17.4209 18.0125C17.3688 18.1059 17.2935 18.1844 17.2024 18.2405C17.1112 18.2965 17.0072 18.3282 16.9003 18.3325C16.7934 18.3368 16.6871 18.3136 16.5917 18.2651L16.5167 18.2193L15.0001 17.1593L13.4834 18.2193C13.3958 18.2804 13.294 18.3181 13.1877 18.3287C13.0814 18.3393 12.9742 18.3225 12.8762 18.2799C12.7783 18.2373 12.6929 18.1703 12.6282 18.0852C12.5635 18.0002 12.5217 17.9 12.5067 17.7943L12.5009 17.7076V13.8726C12.0763 13.3915 11.7996 12.7982 11.7039 12.1637C11.6083 11.5293 11.6977 10.8807 11.9616 10.2959C12.2255 9.71104 12.6525 9.21478 13.1915 8.86667C13.7305 8.51856 14.3585 8.3334 15.0001 8.33342ZM16.2501 14.7593C15.8529 14.9196 15.4284 15.0016 15.0001 15.0009C14.5717 15.0016 14.1473 14.9196 13.7501 14.7593V16.5076L14.6426 15.8851C14.734 15.8212 14.8409 15.7829 14.9521 15.7743C15.0634 15.7656 15.1749 15.7869 15.2751 15.8359L15.3584 15.8859L16.2501 16.5076V14.7593ZM16.0417 2.50342C16.6255 2.5034 17.1872 2.72612 17.6123 3.12613C18.0374 3.52614 18.2938 4.07329 18.3293 4.65592L18.3334 4.79508L18.3342 9.16675C17.9962 8.71711 17.5711 8.34017 17.0842 8.05842L17.0834 4.79425C17.0833 4.53651 16.9877 4.28796 16.815 4.09664C16.6423 3.90531 16.4048 3.78481 16.1484 3.75842L16.0417 3.75258H3.95841C3.70053 3.75247 3.45177 3.84801 3.26028 4.02073C3.06878 4.19345 2.94816 4.43106 2.92175 4.68758L2.91675 4.79425V12.7109C2.91675 13.2501 3.32675 13.6943 3.85175 13.7476L3.95841 13.7526L11.3934 13.7534L11.4967 13.9226L11.6076 14.0868L11.6667 14.1643L11.6659 15.0026H3.95841C3.37484 15.0026 2.81324 14.78 2.38817 14.3802C1.96309 13.9803 1.70657 13.4334 1.67091 12.8509L1.66675 12.7118V4.79508C1.66693 4.21166 1.88963 3.65026 2.28944 3.22537C2.68926 2.80047 3.23608 2.54406 3.81841 2.50842L3.95841 2.50425H16.0417V2.50342ZM15.0001 9.58342C14.4474 9.58342 13.9174 9.80296 13.5266 10.1937C13.1359 10.5845 12.9163 11.1145 12.9163 11.6672C12.9163 12.2198 13.1359 12.7498 13.5266 13.1406C13.9174 13.5314 14.4474 13.7509 15.0001 13.7509C15.5527 13.7509 16.0827 13.5314 16.4735 13.1406C16.8643 12.7498 17.0838 12.2198 17.0838 11.6672C17.0838 11.1145 16.8643 10.5845 16.4735 10.1937C16.0827 9.80296 15.5527 9.58342 15.0001 9.58342ZM9.37508 10.4168C9.53343 10.4168 9.68587 10.477 9.80157 10.5851C9.91728 10.6932 9.98764 10.8412 9.99844 10.9992C10.0092 11.1571 9.95965 11.3133 9.85972 11.4362C9.75979 11.559 9.61696 11.6393 9.46008 11.6609L9.37508 11.6668H5.62508C5.46673 11.6667 5.3143 11.6065 5.19859 11.4984C5.08288 11.3903 5.01252 11.2423 5.00173 11.0844C4.99093 10.9264 5.04051 10.7702 5.14044 10.6473C5.24037 10.5245 5.38321 10.4442 5.54008 10.4226L5.62508 10.4168H9.37508ZM14.3751 5.83342C14.5334 5.83347 14.6859 5.89362 14.8016 6.00173C14.9173 6.10984 14.9876 6.25783 14.9984 6.41582C15.0092 6.5738 14.9597 6.72999 14.8597 6.85283C14.7598 6.97567 14.617 7.056 14.4601 7.07758L14.3751 7.08342H5.62508C5.46673 7.08337 5.3143 7.02321 5.19859 6.91511C5.08288 6.807 5.01252 6.659 5.00173 6.50102C4.99093 6.34303 5.04051 6.18684 5.14044 6.064C5.24037 5.94116 5.38321 5.86084 5.54008 5.83925L5.62508 5.83342H14.3751Z" fill="#BBC564"/>
</svg>
