<svg width="24" height="24" viewBox="0 0 24 24" fill="none" xmlns="http://www.w3.org/2000/svg">
<g clip-path="url(#clip0)">
<path fill-rule="evenodd" clip-rule="evenodd" d="M4.37758 11.2699C3.97165 11.2699 3.64258 11.599 3.64258 12.0049V14.9488L3.64748 15.1125C3.6894 15.7975 3.99108 16.4407 4.49097 16.9109C4.99086 17.3811 5.6513 17.6429 6.33758 17.6429H15.4016L15.4026 16.657L15.333 16.5658L15.2027 16.3728L15.0811 16.1738L6.33758 16.1729L6.21214 16.167C5.59474 16.1043 5.11258 15.5819 5.11258 14.9479V12.0049C5.11258 11.599 4.78351 11.2699 4.37758 11.2699ZM8.46658 3.67885C8.46658 4.08424 8.79521 4.41287 9.2006 4.41287H20.5476L20.673 4.41973C20.9745 4.45077 21.2538 4.59248 21.4569 4.81747C21.66 5.04247 21.7725 5.33477 21.7726 5.63787L21.7736 9.47653C22.3461 9.80787 22.8461 10.2512 23.2436 10.7799L23.2426 5.63885L23.2377 5.47519C23.196 4.79001 22.8944 4.14657 22.3945 3.67616C21.8946 3.20575 21.234 2.94383 20.5476 2.94385V2.94483H9.2006C8.79521 2.94483 8.46658 3.27346 8.46658 3.67885ZM21.4504 10.4265C20.8163 10.0171 20.0774 9.79955 19.3226 9.79993C18.568 9.79991 17.8295 10.0177 17.1957 10.427C16.5619 10.8364 16.0596 11.42 15.7493 12.1078C15.439 12.7956 15.3338 13.5583 15.4463 14.3044C15.5588 15.0505 15.8842 15.7483 16.3836 16.314V20.8239L16.3904 20.9259C16.408 21.0503 16.4572 21.1681 16.5332 21.2681C16.6093 21.368 16.7097 21.4469 16.8249 21.497C16.9401 21.5471 17.0662 21.5669 17.1912 21.5544C17.3163 21.5419 17.436 21.4976 17.539 21.4257L19.3226 20.1791L21.1062 21.4257L21.1944 21.4796C21.3065 21.5366 21.4315 21.5639 21.5572 21.5588C21.6829 21.5538 21.8053 21.5165 21.9125 21.4506C22.0197 21.3847 22.1082 21.2924 22.1695 21.1825C22.2308 21.0726 22.2628 20.9488 22.2626 20.823V16.315C22.7623 15.7492 23.088 15.0513 23.2006 14.3049C23.3133 13.5586 23.208 12.7955 22.8976 12.1075C22.5871 11.4195 22.0846 10.8358 21.4504 10.4265ZM19.3226 17.6409C19.8263 17.6417 20.3255 17.5452 20.7926 17.3567V19.4127L19.744 18.6817L19.646 18.6229C19.5281 18.5652 19.397 18.5402 19.2662 18.5504C19.1354 18.5606 19.0097 18.6055 18.9022 18.6807L17.8526 19.4127V17.3567C18.3197 17.5452 18.8188 17.6417 19.3226 17.6409ZM17.5898 11.9877C18.0494 11.5281 18.6727 11.2699 19.3226 11.2699C19.9725 11.2699 20.5958 11.5281 21.0553 11.9877C21.5149 12.4472 21.7731 13.0705 21.7731 13.7204C21.7731 14.3703 21.5149 14.9936 21.0553 15.4532C20.5958 15.9127 19.9725 16.1709 19.3226 16.1709C18.6727 16.1709 18.0494 15.9127 17.5898 15.4532C17.1303 14.9936 16.8721 14.3703 16.8721 13.7204C16.8721 13.0705 17.1303 12.4472 17.5898 11.9877ZM13.2091 12.4479C13.0731 12.3207 12.8938 12.25 12.7076 12.2499H8.29758L8.19762 12.2568C8.01313 12.2822 7.84516 12.3766 7.72764 12.5211C7.61012 12.6656 7.55182 12.8492 7.56451 13.035C7.57721 13.2208 7.65995 13.3949 7.79602 13.522C7.9321 13.6491 8.11136 13.7199 8.29758 13.7199H12.7076L12.8075 13.7131C12.992 13.6877 13.16 13.5932 13.2775 13.4488C13.395 13.3043 13.4533 13.1206 13.4406 12.9348C13.428 12.749 13.3452 12.575 13.2091 12.4479ZM19.0891 7.05786C18.9531 6.93073 18.7738 6.85999 18.5876 6.85993H11.2376L11.1376 6.86679C10.9531 6.89217 10.7852 6.98664 10.6676 7.13109C10.5501 7.27555 10.4918 7.45924 10.5045 7.64503C10.5172 7.83082 10.5999 8.00486 10.736 8.13199C10.8721 8.25913 11.0514 8.32987 11.2376 8.32993H18.5876L18.6875 8.32307C18.872 8.29768 19.04 8.20322 19.1575 8.05876C19.275 7.9143 19.3333 7.73062 19.3206 7.54483C19.308 7.35904 19.2252 7.18499 19.0891 7.05786Z" fill="#8C8C8C"/>
<path fill-rule="evenodd" clip-rule="evenodd" d="M4.34349 1.45752C3.93122 1.45752 3.597 1.79173 3.597 2.204V4.77892H1.02092C0.609581 4.77892 0.276123 5.11237 0.276123 5.52372C0.276123 5.93506 0.609581 6.26852 1.02092 6.26852H3.597V8.84504C3.597 9.25731 3.93122 9.59152 4.34349 9.59152C4.75576 9.59152 5.08997 9.25731 5.08997 8.84504V6.26852H7.66532C8.07666 6.26852 8.41012 5.93506 8.41012 5.52372C8.41012 5.11237 8.07666 4.77892 7.66532 4.77892H5.08997V2.204C5.08997 1.79173 4.75576 1.45752 4.34349 1.45752Z" fill="#8C8C8C"/>
</g>
<defs>
<clipPath id="clip0">
<rect width="23.52" height="23.52" fill="white"/>
</clipPath>
</defs>
</svg>
