<svg width="132" height="64" viewBox="0 0 132 64" fill="none" xmlns="http://www.w3.org/2000/svg">
<path d="M20.047 61H26.03V59.772H21.4735V56.8775H25.6653V55.6541H21.4735V52.7734H25.9746V51.5455H20.047V61ZM28.8587 53.9091H27.3445L29.5235 57.4545L27.3168 61H28.831L30.4237 58.3501L32.021 61H33.5306L31.3008 57.4545L33.5121 53.9091H32.0025L30.4237 56.6697L28.8587 53.9091ZM37.6242 61.1431C39.3 61.1431 40.3849 60.1367 40.5372 58.7564H39.1938C39.0184 59.5227 38.4229 59.9751 37.6335 59.9751C36.4655 59.9751 35.713 59.0011 35.713 57.4545C35.713 55.9357 36.4794 54.9801 37.6335 54.9801C38.5106 54.9801 39.0461 55.5341 39.1938 56.1989H40.5372C40.3895 54.7678 39.2215 53.8168 37.6104 53.8168C35.6115 53.8168 34.3188 55.3217 34.3188 57.4869C34.3188 59.6243 35.5653 61.1431 37.6242 61.1431ZM43.3937 51.5455H42.0134V61H43.3937V51.5455ZM49.7425 58.0593C49.7471 59.2642 48.8515 59.8366 48.076 59.8366C47.2219 59.8366 46.631 59.218 46.631 58.2532V53.9091H45.2507V58.4194C45.2507 60.1783 46.2155 61.0923 47.5774 61.0923C48.6438 61.0923 49.3686 60.5291 49.6963 59.772H49.7702V61H51.1274V53.9091H49.7425V58.0593ZM52.9821 61H54.3624V53.9091H52.9821V61ZM53.6792 52.815C54.1547 52.815 54.5517 52.4457 54.5517 51.9933C54.5517 51.5408 54.1547 51.1669 53.6792 51.1669C53.1991 51.1669 52.8067 51.5408 52.8067 51.9933C52.8067 52.4457 53.1991 52.815 53.6792 52.815ZM56.2194 61H57.5997V56.6697C57.5997 55.7418 58.3153 55.0724 59.294 55.0724C59.5802 55.0724 59.9034 55.1232 60.0142 55.1555V53.8352C59.8757 53.8168 59.6033 53.8029 59.4279 53.8029C58.5969 53.8029 57.886 54.2738 57.6274 55.0355H57.5536V53.9091H56.2194V61ZM64.6491 61H66.0294V53.9091H64.6491V61ZM65.3462 52.815C65.8217 52.815 66.2187 52.4457 66.2187 51.9933C66.2187 51.5408 65.8217 51.1669 65.3462 51.1669C64.8661 51.1669 64.4737 51.5408 64.4737 51.9933C64.4737 52.4457 64.8661 52.815 65.3462 52.815ZM67.8864 61H69.2667V56.6282C69.2667 55.6726 69.9361 55.0078 70.7209 55.0078C71.4873 55.0078 72.0182 55.5156 72.0182 56.2866V61H73.3939V56.4805C73.3939 55.6264 73.9155 55.0078 74.8157 55.0078C75.5451 55.0078 76.1453 55.4141 76.1453 56.3743V61H77.5256V56.245C77.5256 54.6246 76.6208 53.8168 75.3374 53.8168C74.3172 53.8168 73.5508 54.3061 73.2092 55.0632H73.1353C72.826 54.2876 72.1751 53.8168 71.2287 53.8168C70.2916 53.8168 69.5945 54.283 69.2991 55.0632H69.2113V53.9091H67.8864V61ZM81.4392 61.157C82.6118 61.157 83.272 60.5614 83.5351 60.0305H83.5905V61H84.9385V56.2912C84.9385 54.2276 83.3135 53.8168 82.1871 53.8168C80.9037 53.8168 79.7219 54.3338 79.2603 55.6264L80.5575 55.9219C80.7606 55.4187 81.2777 54.9339 82.2056 54.9339C83.0965 54.9339 83.5536 55.4002 83.5536 56.2035V56.2358C83.5536 56.739 83.0365 56.7298 81.7624 56.8775C80.419 57.0344 79.0433 57.3853 79.0433 58.9964C79.0433 60.3906 80.0912 61.157 81.4392 61.157ZM81.7393 60.049C80.9591 60.049 80.3959 59.6982 80.3959 59.0149C80.3959 58.2763 81.0514 58.0131 81.8501 57.907C82.2979 57.8469 83.3597 57.7269 83.5582 57.5284V58.4425C83.5582 59.2827 82.8888 60.049 81.7393 60.049ZM89.75 63.8068C91.5551 63.8068 92.9493 62.9805 92.9493 61.157V53.9091H91.5966V55.0586H91.4951C91.2504 54.62 90.7611 53.8168 89.4407 53.8168C87.728 53.8168 86.4677 55.1694 86.4677 57.4268C86.4677 59.6889 87.7557 60.8938 89.4315 60.8938C90.7334 60.8938 91.2366 60.1598 91.4858 59.7074H91.5736V61.1016C91.5736 62.2141 90.8118 62.6942 89.7639 62.6942C88.6144 62.6942 88.1666 62.1172 87.9219 61.7109L86.7355 62.2003C87.1094 63.0682 88.0558 63.8068 89.75 63.8068ZM89.7362 59.7489C88.5036 59.7489 87.8619 58.8026 87.8619 57.4084C87.8619 56.0465 88.4897 54.9893 89.7362 54.9893C90.9411 54.9893 91.5874 55.9727 91.5874 57.4084C91.5874 58.8718 90.9272 59.7489 89.7362 59.7489ZM97.8566 61.1431C99.4031 61.1431 100.497 60.3814 100.811 59.2273L99.5047 58.9918C99.2554 59.6612 98.6552 60.0028 97.8704 60.0028C96.6886 60.0028 95.8946 59.2365 95.8576 57.87H100.899V57.3807C100.899 54.8185 99.3662 53.8168 97.7596 53.8168C95.7838 53.8168 94.4819 55.3217 94.4819 57.5007C94.4819 59.7028 95.7653 61.1431 97.8566 61.1431ZM95.8623 56.8359C95.9177 55.8295 96.6471 54.957 97.7689 54.957C98.8399 54.957 99.5416 55.7511 99.5462 56.8359H95.8623ZM102.43 61H103.811V56.6282C103.811 55.6726 104.48 55.0078 105.265 55.0078C106.031 55.0078 106.562 55.5156 106.562 56.2866V61H107.938V56.4805C107.938 55.6264 108.459 55.0078 109.36 55.0078C110.089 55.0078 110.689 55.4141 110.689 56.3743V61H112.07V56.245C112.07 54.6246 111.165 53.8168 109.881 53.8168C108.861 53.8168 108.095 54.3061 107.753 55.0632H107.679C107.37 54.2876 106.719 53.8168 105.773 53.8168C104.836 53.8168 104.138 54.283 103.843 55.0632H103.755V53.9091H102.43V61Z" fill="#BE3C3C"/>
<circle cx="67" cy="19" r="14" fill="#BE3C3C" fill-opacity="0.15"/>
<circle cx="67" cy="19" r="18.5" stroke="#BE3C3C"/>
<path fill-rule="evenodd" clip-rule="evenodd" d="M63.2287 15.2288C63.4891 14.9684 63.9112 14.9684 64.1715 15.2288L70.7712 21.8284C71.0316 22.0888 71.0316 22.5109 70.7712 22.7713C70.5109 23.0316 70.0887 23.0316 69.8284 22.7713L63.2287 16.1716C62.9684 15.9113 62.9684 15.4891 63.2287 15.2288Z" fill="#BE3C3C"/>
<path fill-rule="evenodd" clip-rule="evenodd" d="M63.2287 22.7712C62.9684 22.5109 62.9684 22.0887 63.2287 21.8284L69.8284 15.2287C70.0887 14.9684 70.5109 14.9684 70.7712 15.2287C71.0316 15.4891 71.0316 15.9112 70.7712 16.1716L64.1715 22.7712C63.9112 23.0316 63.4891 23.0316 63.2287 22.7712Z" fill="#BE3C3C"/>
</svg>
