<svg width="20" height="20" viewBox="0 0 20 20" fill="none" xmlns="http://www.w3.org/2000/svg">
<path fill-rule="evenodd" clip-rule="evenodd" d="M3.33317 11.1783V13.3332H5.48799L13.8213 4.99984L11.6665 2.84502L3.33317 11.1783ZM11.6665 0.494629L11.0772 1.07725L1.91058 10.2439C1.7543 10.4002 1.6665 10.6122 1.6665 10.8332V14.1665C1.6665 14.6267 2.0396 14.9998 2.49984 14.9998H5.83317C6.05418 14.9998 6.26615 14.912 6.42243 14.7558L15.5891 5.58909C15.9145 5.26366 15.9145 4.73602 15.5891 4.41058L12.2558 1.07725L11.6665 0.494629Z" fill="#8C8C8C"/>
<path fill-rule="evenodd" clip-rule="evenodd" d="M1.6665 18.3333C1.6665 17.8731 2.0396 17.5 2.49984 17.5H17.4998C17.9601 17.5 18.3332 17.8731 18.3332 18.3333C18.3332 18.7936 17.9601 19.1667 17.4998 19.1667H2.49984C2.0396 19.1667 1.6665 18.7936 1.6665 18.3333Z" fill="#8C8C8C"/>
</svg>
