<svg width="82" height="82" viewBox="0 0 82 82" fill="none" xmlns="http://www.w3.org/2000/svg">
<circle cx="41" cy="41" r="41" fill="#BBC564"/>
<path d="M33.868 40.2017L39.3623 29C40.4552 29 41.5034 29.3934 42.2762 30.0936C43.049 30.7939 43.4831 31.7436 43.4831 32.7339V37.7124H51.2577C51.6559 37.7084 52.0503 37.7828 52.4136 37.9305C52.777 38.0783 53.1005 38.2958 53.3618 38.5681C53.6231 38.8405 53.816 39.161 53.927 39.5075C54.038 39.8541 54.0646 40.2183 54.0048 40.5751L52.1093 51.7768C52.0099 52.3704 51.6772 52.9114 51.1724 53.3003C50.6675 53.6891 50.0246 53.8995 49.3621 53.8927H33.868M33.868 40.2017V53.8927M33.868 40.2017H29.7472C29.0186 40.2017 28.3198 40.464 27.8046 40.9308C27.2894 41.3976 27 42.0308 27 42.691V51.4034C27 52.0636 27.2894 52.6968 27.8046 53.1636C28.3198 53.6304 29.0186 53.8927 29.7472 53.8927H33.868" stroke="white" stroke-width="2.76587" stroke-linecap="round" stroke-linejoin="round"/>
</svg>
