<svg width="22" height="20" viewBox="0 0 22 20" fill="none" xmlns="http://www.w3.org/2000/svg">
<path d="M6.19132 9.09995L10.1643 1C10.9546 1 11.7125 1.28446 12.2713 1.79081C12.8301 2.29715 13.144 2.9839 13.144 3.69998V7.29996H18.7658C19.0537 7.297 19.3389 7.35081 19.6017 7.45765C19.8644 7.5645 20.0983 7.72182 20.2873 7.91872C20.4763 8.11562 20.6157 8.34739 20.696 8.59798C20.7763 8.84856 20.7955 9.11197 20.7523 9.36995L19.3816 17.4699C19.3098 17.8991 19.0692 18.2903 18.7041 18.5715C18.3391 18.8527 17.8742 19.0048 17.3951 18.9999H6.19132M6.19132 9.09995V18.9999M6.19132 9.09995H3.21159C2.68474 9.09995 2.17947 9.28959 1.80693 9.62715C1.43439 9.96472 1.2251 10.4226 1.2251 10.8999V17.1999C1.2251 17.6773 1.43439 18.1351 1.80693 18.4727C2.17947 18.8102 2.68474 18.9999 3.21159 18.9999H6.19132" stroke="#C0CE44" stroke-width="2" stroke-linecap="round" stroke-linejoin="round"/>
</svg>
