<svg width="20" height="20" viewBox="0 0 20 20" fill="none" xmlns="http://www.w3.org/2000/svg">
<path fill-rule="evenodd" clip-rule="evenodd" d="M10.6456 2.29223C12.6075 0.397371 15.7261 0.42447 17.6547 2.35314C19.5834 4.28181 19.6105 7.40034 17.7156 9.36223C17.7147 9.36322 17.7137 9.36421 17.7128 9.3652C17.7104 9.36767 17.7079 9.37012 17.7055 9.37256L15.2056 11.8725C15.2056 11.8725 15.2055 11.8725 15.2055 11.8726C14.1799 12.8985 12.7592 13.4284 11.3122 13.3248C9.86522 13.2212 8.53455 12.4941 7.66559 11.3325C7.38992 10.9639 7.4652 10.4417 7.83375 10.166C8.20229 9.89033 8.72453 9.96562 9.0002 10.3342C9.5795 11.1086 10.4666 11.5933 11.4313 11.6624C12.396 11.7315 13.3431 11.3782 14.0269 10.6942L14.027 10.6941L16.5216 8.19947C17.78 6.89125 17.7604 4.81582 16.4762 3.53165C15.1918 2.24721 13.1158 2.22784 11.8076 3.48709L10.3788 4.90761C10.0524 5.2321 9.52474 5.23056 9.20026 4.90417C8.87577 4.57779 8.87731 4.05015 9.20369 3.72567L10.637 2.30067L10.6456 2.29223Z" fill="#8C8C8C"/>
<path fill-rule="evenodd" clip-rule="evenodd" d="M4.79457 8.12761C5.8202 7.10168 7.24084 6.57176 8.68781 6.67539C10.1348 6.77902 11.4655 7.50603 12.3345 8.66772C12.6101 9.03626 12.5349 9.5585 12.1663 9.83417C11.7978 10.1098 11.2755 10.0346 10.9999 9.66602C10.4206 8.89156 9.53344 8.40688 8.56876 8.3378C7.60407 8.26871 6.65694 8.62201 5.97319 9.30602L3.47848 11.8007C2.22004 13.1089 2.23967 15.1844 3.52384 16.4685C4.80801 17.7527 6.88344 17.7723 8.19165 16.5139L9.61124 15.0943C9.93667 14.7688 10.4643 14.7688 10.7897 15.0943C11.1152 15.4197 11.1152 15.9474 10.7897 16.2728L9.36475 17.6978C9.36133 17.7012 9.35789 17.7046 9.35442 17.7079C7.39253 19.6028 4.274 19.5757 2.34533 17.647C0.416658 15.7184 0.389558 12.5998 2.28442 10.6379C2.28777 10.6345 2.29116 10.631 2.29457 10.6276L4.79457 8.12761C4.79454 8.12765 4.79461 8.12758 4.79457 8.12761Z" fill="#8C8C8C"/>
</svg>
