<svg width="20" height="20" viewBox="0 0 20 20" fill="none" xmlns="http://www.w3.org/2000/svg">
<path fill-rule="evenodd" clip-rule="evenodd" d="M11.6667 4.16732C11.6667 2.32637 13.1591 0.833984 15.0001 0.833984C16.841 0.833984 18.3334 2.32637 18.3334 4.16732C18.3334 6.00827 16.841 7.50065 15.0001 7.50065C13.1591 7.50065 11.6667 6.00827 11.6667 4.16732ZM15.0001 2.50065C14.0796 2.50065 13.3334 3.24684 13.3334 4.16732C13.3334 5.08779 14.0796 5.83398 15.0001 5.83398C15.9206 5.83398 16.6667 5.08779 16.6667 4.16732C16.6667 3.24684 15.9206 2.50065 15.0001 2.50065Z" fill="#3C59BE"/>
<path fill-rule="evenodd" clip-rule="evenodd" d="M1.66663 9.99934C1.66663 8.1584 3.15901 6.66602 4.99996 6.66602C6.84091 6.66602 8.33329 8.1584 8.33329 9.99934C8.33329 11.8403 6.84091 13.3327 4.99996 13.3327C3.15901 13.3327 1.66663 11.8403 1.66663 9.99934ZM4.99996 8.33268C4.07948 8.33268 3.33329 9.07887 3.33329 9.99934C3.33329 10.9198 4.07948 11.666 4.99996 11.666C5.92043 11.666 6.66663 10.9198 6.66663 9.99934C6.66663 9.07887 5.92043 8.33268 4.99996 8.33268Z" fill="#3C59BE"/>
<path fill-rule="evenodd" clip-rule="evenodd" d="M11.6667 15.8333C11.6667 13.9924 13.1591 12.5 15.0001 12.5C16.841 12.5 18.3334 13.9924 18.3334 15.8333C18.3334 17.6743 16.841 19.1667 15.0001 19.1667C13.1591 19.1667 11.6667 17.6743 11.6667 15.8333ZM15.0001 14.1667C14.0796 14.1667 13.3334 14.9129 13.3334 15.8333C13.3334 16.7538 14.0796 17.5 15.0001 17.5C15.9206 17.5 16.6667 16.7538 16.6667 15.8333C16.6667 14.9129 15.9206 14.1667 15.0001 14.1667Z" fill="#3C59BE"/>
<path fill-rule="evenodd" clip-rule="evenodd" d="M6.43854 10.8377C6.67025 10.4401 7.18046 10.3056 7.57811 10.5373L13.2698 13.854C13.6674 14.0857 13.8019 14.5959 13.5702 14.9935C13.3385 15.3912 12.8283 15.5257 12.4306 15.294L6.73898 11.9773C6.34133 11.7456 6.20682 11.2354 6.43854 10.8377Z" fill="#3C59BE"/>
<path fill-rule="evenodd" clip-rule="evenodd" d="M13.5616 5.00524C13.7936 5.40274 13.6594 5.91303 13.2619 6.14501L7.57857 9.46168C7.18106 9.69365 6.67078 9.55947 6.4388 9.16197C6.20683 8.76446 6.34102 8.25417 6.73852 8.0222L12.4219 4.70553C12.8194 4.47355 13.3296 4.60774 13.5616 5.00524Z" fill="#3C59BE"/>
</svg>
