<svg width="20" height="20" viewBox="0 0 20 20" fill="none" xmlns="http://www.w3.org/2000/svg">
<path fill-rule="evenodd" clip-rule="evenodd" d="M1.66675 4.99984C1.66675 4.5396 2.03984 4.1665 2.50008 4.1665H17.5001C17.9603 4.1665 18.3334 4.5396 18.3334 4.99984C18.3334 5.46007 17.9603 5.83317 17.5001 5.83317H2.50008C2.03984 5.83317 1.66675 5.46007 1.66675 4.99984Z" fill="#8C8C8C"/>
<path fill-rule="evenodd" clip-rule="evenodd" d="M8.3335 2.50016C7.87326 2.50016 7.50016 2.87326 7.50016 3.3335V5.00016C7.50016 5.4604 7.12707 5.8335 6.66683 5.8335C6.20659 5.8335 5.8335 5.4604 5.8335 5.00016V3.3335C5.8335 1.95278 6.95278 0.833496 8.3335 0.833496H11.6668C13.0475 0.833496 14.1668 1.95278 14.1668 3.3335V5.00016C14.1668 5.4604 13.7937 5.8335 13.3335 5.8335C12.8733 5.8335 12.5002 5.4604 12.5002 5.00016V3.3335C12.5002 2.87326 12.1271 2.50016 11.6668 2.50016H8.3335ZM4.16683 4.16683C4.62707 4.16683 5.00016 4.53993 5.00016 5.00016V16.6668C5.00016 17.1271 5.37326 17.5002 5.8335 17.5002H14.1668C14.6271 17.5002 15.0002 17.1271 15.0002 16.6668V5.00016C15.0002 4.53993 15.3733 4.16683 15.8335 4.16683C16.2937 4.16683 16.6668 4.53993 16.6668 5.00016V16.6668C16.6668 18.0475 15.5475 19.1668 14.1668 19.1668H5.8335C4.45278 19.1668 3.3335 18.0475 3.3335 16.6668V5.00016C3.3335 4.53993 3.70659 4.16683 4.16683 4.16683Z" fill="#8C8C8C"/>
</svg>
