<svg width="132" height="64" viewBox="0 0 132 64" fill="none" xmlns="http://www.w3.org/2000/svg">
<path d="M21.5133 61H27.4963V59.772H22.9398V56.8775H27.1316V55.6541H22.9398V52.7734H27.4409V51.5455H21.5133V61ZM30.6159 56.7898C30.6159 55.6587 31.3083 55.0124 32.2686 55.0124C33.2057 55.0124 33.7735 55.6264 33.7735 56.6559V61H35.1539V56.4897C35.1539 54.7354 34.189 53.8168 32.7394 53.8168C31.673 53.8168 30.9759 54.3107 30.6482 55.0632H30.5605V53.9091H29.2355V61H30.6159V56.7898ZM42.8172 53.9091H41.3353L39.5441 59.3658H39.4703L37.6744 53.9091H36.1926L38.7686 61H40.2458L42.8172 53.9091ZM44.1144 61H45.4948V53.9091H44.1144V61ZM44.8115 52.815C45.287 52.815 45.684 52.4457 45.684 51.9933C45.684 51.5408 45.287 51.1669 44.8115 51.1669C44.3314 51.1669 43.939 51.5408 43.939 51.9933C43.939 52.4457 44.3314 52.815 44.8115 52.815ZM49.4153 61.157C50.5879 61.157 51.248 60.5614 51.5112 60.0305H51.5666V61H52.9146V56.2912C52.9146 54.2276 51.2896 53.8168 50.1632 53.8168C48.8798 53.8168 47.698 54.3338 47.2363 55.6264L48.5336 55.9219C48.7367 55.4187 49.2537 54.9339 50.1816 54.9339C51.0726 54.9339 51.5297 55.4002 51.5297 56.2035V56.2358C51.5297 56.739 51.0126 56.7298 49.7385 56.8775C48.3951 57.0344 47.0194 57.3853 47.0194 58.9964C47.0194 60.3906 48.0673 61.157 49.4153 61.157ZM49.7154 60.049C48.9352 60.049 48.372 59.6982 48.372 59.0149C48.372 58.2763 49.0275 58.0131 49.8262 57.907C50.274 57.8469 51.3358 57.7269 51.5343 57.5284V58.4425C51.5343 59.2827 50.8649 60.049 49.7154 60.049ZM54.7531 61H56.1334V56.6697C56.1334 55.7418 56.849 55.0724 57.8277 55.0724C58.1139 55.0724 58.4371 55.1232 58.5479 55.1555V53.8352C58.4094 53.8168 58.137 53.8029 57.9616 53.8029C57.1306 53.8029 56.4197 54.2738 56.1611 55.0355H56.0873V53.9091H54.7531V61ZM63.1828 61H64.5631V53.9091H63.1828V61ZM63.8799 52.815C64.3554 52.815 64.7524 52.4457 64.7524 51.9933C64.7524 51.5408 64.3554 51.1669 63.8799 51.1669C63.3998 51.1669 63.0074 51.5408 63.0074 51.9933C63.0074 52.4457 63.3998 52.815 63.8799 52.815ZM66.4201 61H67.8004V56.6282C67.8004 55.6726 68.4698 55.0078 69.2546 55.0078C70.021 55.0078 70.5518 55.5156 70.5518 56.2866V61H71.9276V56.4805C71.9276 55.6264 72.4492 55.0078 73.3494 55.0078C74.0788 55.0078 74.679 55.4141 74.679 56.3743V61H76.0593V56.245C76.0593 54.6246 75.1545 53.8168 73.8711 53.8168C72.8509 53.8168 72.0845 54.3061 71.7429 55.0632H71.669C71.3597 54.2876 70.7088 53.8168 69.7624 53.8168C68.8253 53.8168 68.1282 54.283 67.8327 55.0632H67.745V53.9091H66.4201V61ZM79.9729 61.157C81.1455 61.157 81.8057 60.5614 82.0688 60.0305H82.1242V61H83.4722V56.2912C83.4722 54.2276 81.8472 53.8168 80.7208 53.8168C79.4374 53.8168 78.2556 54.3338 77.7939 55.6264L79.0912 55.9219C79.2943 55.4187 79.8113 54.9339 80.7393 54.9339C81.6302 54.9339 82.0873 55.4002 82.0873 56.2035V56.2358C82.0873 56.739 81.5702 56.7298 80.2961 56.8775C78.9527 57.0344 77.577 57.3853 77.577 58.9964C77.577 60.3906 78.6249 61.157 79.9729 61.157ZM80.273 60.049C79.4928 60.049 78.9296 59.6982 78.9296 59.0149C78.9296 58.2763 79.5851 58.0131 80.3838 57.907C80.8316 57.8469 81.8934 57.7269 82.0919 57.5284V58.4425C82.0919 59.2827 81.4225 60.049 80.273 60.049ZM88.2837 63.8068C90.0888 63.8068 91.483 62.9805 91.483 61.157V53.9091H90.1303V55.0586H90.0288C89.7841 54.62 89.2947 53.8168 87.9744 53.8168C86.2617 53.8168 85.0014 55.1694 85.0014 57.4268C85.0014 59.6889 86.2894 60.8938 87.9652 60.8938C89.267 60.8938 89.7702 60.1598 90.0195 59.7074H90.1072V61.1016C90.1072 62.2141 89.3455 62.6942 88.2976 62.6942C87.1481 62.6942 86.7003 62.1172 86.4556 61.7109L85.2692 62.2003C85.6431 63.0682 86.5895 63.8068 88.2837 63.8068ZM88.2699 59.7489C87.0373 59.7489 86.3956 58.8026 86.3956 57.4084C86.3956 56.0465 87.0234 54.9893 88.2699 54.9893C89.4748 54.9893 90.1211 55.9727 90.1211 57.4084C90.1211 58.8718 89.4609 59.7489 88.2699 59.7489ZM96.3903 61.1431C97.9368 61.1431 99.0309 60.3814 99.3448 59.2273L98.0384 58.9918C97.7891 59.6612 97.1889 60.0028 96.4041 60.0028C95.2223 60.0028 94.4283 59.2365 94.3913 57.87H99.4325V57.3807C99.4325 54.8185 97.8999 53.8168 96.2933 53.8168C94.3175 53.8168 93.0156 55.3217 93.0156 57.5007C93.0156 59.7028 94.299 61.1431 96.3903 61.1431ZM94.396 56.8359C94.4513 55.8295 95.1808 54.957 96.3026 54.957C97.3736 54.957 98.0753 55.7511 98.0799 56.8359H94.396ZM100.964 61H102.344V56.6282C102.344 55.6726 103.014 55.0078 103.799 55.0078C104.565 55.0078 105.096 55.5156 105.096 56.2866V61H106.472V56.4805C106.472 55.6264 106.993 55.0078 107.893 55.0078C108.623 55.0078 109.223 55.4141 109.223 56.3743V61H110.603V56.245C110.603 54.6246 109.698 53.8168 108.415 53.8168C107.395 53.8168 106.628 54.3061 106.287 55.0632H106.213C105.904 54.2876 105.253 53.8168 104.306 53.8168C103.369 53.8168 102.672 54.283 102.377 55.0632H102.289V53.9091H100.964V61Z" fill="#3C59BE"/>
<circle cx="67" cy="19" r="14" fill="#3C59BE" fill-opacity="0.15"/>
<circle cx="67" cy="19" r="18.5" stroke="#3C59BE"/>
<path fill-rule="evenodd" clip-rule="evenodd" d="M67.0002 13.6665C67.3684 13.6665 67.6668 13.965 67.6668 14.3332V23.6665C67.6668 24.0347 67.3684 24.3332 67.0002 24.3332C66.632 24.3332 66.3335 24.0347 66.3335 23.6665V14.3332C66.3335 13.965 66.632 13.6665 67.0002 13.6665Z" fill="#3C59BE"/>
<path fill-rule="evenodd" clip-rule="evenodd" d="M61.6666 19.0002C61.6666 18.632 61.9651 18.3335 62.3333 18.3335H71.6666C72.0348 18.3335 72.3333 18.632 72.3333 19.0002C72.3333 19.3684 72.0348 19.6668 71.6666 19.6668H62.3333C61.9651 19.6668 61.6666 19.3684 61.6666 19.0002Z" fill="#3C59BE"/>
</svg>
